<?xml version="1.0" encoding="UTF-8" standalone="no"?>
<!-- Generator: Adobe Illustrator 22.1.0, SVG Export Plug-In . SVG Version: 6.00 Build 0)  -->

<svg
   version="1.1"
   id="Layer_1"
   x="0px"
   y="0px"
   viewBox="0 0 1003 1003"
   style="enable-background:new 0 0 1003 1003;"
   xml:space="preserve"
   sodipodi:docname="acmg-logo-simple.svg"
   inkscape:version="1.3 (0e150ed, 2023-07-21)"
   xmlns:inkscape="http://www.inkscape.org/namespaces/inkscape"
   xmlns:sodipodi="http://sodipodi.sourceforge.net/DTD/sodipodi-0.dtd"
   xmlns="http://www.w3.org/2000/svg"
   xmlns:svg="http://www.w3.org/2000/svg"
   xmlns:rdf="http://www.w3.org/1999/02/22-rdf-syntax-ns#"
   xmlns:cc="http://creativecommons.org/ns#"
   xmlns:dc="http://purl.org/dc/elements/1.1/"><title
   id="title189">ACMG Insignia Logo</title><defs
   id="defs189" /><sodipodi:namedview
   id="namedview189"
   pagecolor="#ffffff"
   bordercolor="#000000"
   borderopacity="0.25"
   inkscape:showpageshadow="2"
   inkscape:pageopacity="0.0"
   inkscape:pagecheckerboard="0"
   inkscape:deskcolor="#d1d1d1"
   inkscape:zoom="0.63446243"
   inkscape:cx="505.94012"
   inkscape:cy="520.91343"
   inkscape:window-width="1512"
   inkscape:window-height="916"
   inkscape:window-x="0"
   inkscape:window-y="38"
   inkscape:window-maximized="1"
   inkscape:current-layer="g189" />&#10;<ellipse
   style="display:inline;fill:#f9f9f9;stroke:#000000;stroke-width:1.03671;stroke-dasharray:2.07344, 2.07344;stroke-dashoffset:1.24406"
   id="path189"
   cx="502.43311"
   cy="503.23434"
   rx="492.08157"
   ry="492.08273"
   inkscape:label="whitebackfill" /><g
   id="g189"
   style="display:inline;image-rendering:auto"
   inkscape:label="acmglogo"
   transform="translate(0.03305075,-0.76643223)">&#10;	<g
   id="g1"
   style="display:inline"
   inkscape:label="border-circle">&#10;		<path
   fill="#231f20"
   d="m 502.3,996.6 c -66.5,0 -131,-13 -191.7,-38.7 C 251.9,933.1 199.3,897.6 154,852.3 108.8,807.1 73.2,754.4 48.4,695.7 22.8,635 9.8,570.5 9.8,504 9.8,437.5 22.8,373 48.5,312.3 73.3,253.6 108.8,201 154.1,155.7 199.3,110.5 252,74.9 310.7,50.1 371.4,24.4 435.9,11.4 502.4,11.4 c 66.5,0 131,13 191.7,38.7 58.7,24.8 111.3,60.3 156.6,105.6 45.2,45.2 80.8,97.9 105.6,156.6 C 982,373 995,437.5 995,504 995,570.5 982,635 956.3,695.7 931.5,754.4 896,807 850.7,852.3 c -45.2,45.2 -97.9,80.8 -156.6,105.6 -60.8,25.6 -125.3,38.7 -191.8,38.7 z m 0,-978.2 C 234.6,18.4 16.8,236.2 16.8,504 16.8,771.8 234.6,989.6 502.4,989.6 770.2,989.6 987.9,771.7 987.9,504 987.9,236.3 770.1,18.4 502.3,18.4 Z"
   id="path1" />&#10;	</g>&#10;	&#10;	&#10;	<g
   id="g6"
   style="display:inline"
   inkscape:label="ACMG">&#10;		<g
   id="g2">&#10;			<path
   fill="#3a3a3c"
   d="m 289.2,871.5 -29,-21.4 -14.1,10.7 -26.1,-19.2 92,-59.8 27.9,20.5 -29.8,105.6 -26.8,-19.7 z m 7.9,-21.8 12.8,-36.5 -30.9,23.1 z"
   id="path2" />&#10;		</g>&#10;		<g
   id="g3">&#10;			<path
   fill="#3a3a3c"
   d="m 437.1,909.5 24.3,15.9 c -4,7 -8.7,12.4 -14,16.3 -5.3,3.9 -11.2,6.3 -17.7,7.2 -6.5,0.9 -14.1,0 -22.9,-2.6 -10.7,-3.1 -19,-7.3 -24.9,-12.4 -5.9,-5.1 -10.1,-12.3 -12.8,-21.6 -2.6,-9.3 -2.2,-20.1 1.4,-32.3 4.8,-16.3 12.8,-27.6 24.1,-33.8 11.2,-6.2 24.8,-7 40.7,-2.3 12.4,3.6 21.4,9 27.1,16.1 5.6,7.1 8.6,16.4 9,27.8 l -28.7,-1.9 c -0.1,-3.3 -0.4,-5.8 -1,-7.5 -1,-2.8 -2.6,-5.2 -4.7,-7.2 -2.1,-2 -4.7,-3.4 -7.7,-4.3 -6.9,-2 -13,-0.8 -18.3,3.7 -4,3.3 -7.3,9.4 -9.9,18.2 -3.2,10.9 -3.7,18.9 -1.6,23.9 2.1,5 6.2,8.4 12.2,10.2 5.8,1.7 10.7,1.4 14.7,-1 4,-2.5 7.5,-6.6 10.7,-12.4 z"
   id="path3" />&#10;		</g>&#10;		<g
   id="g4">&#10;			<path
   fill="#3a3a3c"
   d="m 504.6,856.8 41.3,-6.2 25.3,59.4 6.5,-64.2 41.3,-6.2 15.3,101.6 -25.7,3.9 -11.7,-77.5 -8.1,80.5 -23.3,3.5 -31.5,-74.5 11.7,77.5 -25.7,3.9 z"
   id="path4" />&#10;		</g>&#10;		<g
   id="g5">&#10;			<path
   fill="#3a3a3c"
   d="M 723.1,852.5 711,834.9 751.4,807 l 24.9,36.1 c -4.1,10.6 -8.5,18.9 -13.1,24.9 -4.6,6 -11,11.8 -19.2,17.4 -10,6.9 -19.4,10.9 -28.1,11.8 -8.7,0.9 -17.1,-0.8 -25.3,-5.1 -8.2,-4.4 -15.3,-10.9 -21.3,-19.7 -6.4,-9.2 -10,-18.6 -10.9,-28 -0.9,-9.5 1.1,-18.5 6,-27.1 3.8,-6.7 10.6,-13.4 20.3,-20.1 9.3,-6.4 16.9,-10.4 22.7,-11.9 5.8,-1.5 11.5,-1.5 17,-0.1 5.5,1.5 10.9,4.4 16.2,8.8 l -22.1,21.9 c -3.2,-2.5 -6.7,-3.7 -10.3,-3.7 -3.6,0 -7.4,1.4 -11.2,4 -5.7,4 -8.9,9.1 -9.6,15.4 -0.7,6.3 2,13.8 7.9,22.4 6.3,9.2 12.5,14.5 18.7,16.1 6.1,1.5 12.3,0.2 18.5,-4 2.9,-2 5.4,-4.4 7.5,-7 2.1,-2.7 4.1,-6.2 6.1,-10.6 l -5.5,-8 z"
   id="path5" />&#10;		</g>&#10;	</g>&#10;	<g
   id="g188"
   style="display:inline"
   inkscape:label="insignia"
   transform="matrix(1.2672896,0,0,1.2672896,-138.04983,-154.81255)">&#10;		<g
   id="g7">&#10;			<path
   fill="#040404"
   d="m 479.8,173.1 c 5,-3.9 11,-7.4 17.5,-6.5 3.8,0.4 6.9,2.9 9.4,5.6 5.3,-3.2 11.3,-6.6 17.7,-5.6 4.2,0.5 7.6,3.2 10,6.6 5.5,-3 12.1,-5.7 18.4,-3.6 3.7,1.1 6.5,3.9 8.4,7.2 5.4,-2.4 11.6,-4.1 17.5,-2.5 4,1.1 6.9,4.4 8.8,8 5.5,-2.1 11.8,-3.4 17.6,-1.4 3.9,1.4 6.5,4.9 8.3,8.5 5.9,-1.8 12.7,-2.8 18.5,0 3.7,1.8 6,5.4 7.4,9.1 6.1,-1.5 13.1,-1.8 18.5,1.8 3.3,2.1 5,5.8 5.9,9.5 6.7,-0.8 14.3,-0.7 19.6,4 2.8,2.3 3.8,5.9 4.6,9.3 6.4,-0.2 13.8,0.4 18.4,5.5 2.7,2.6 3.5,6.3 3.6,10 6.6,0.1 14.1,1.6 18.3,7.2 2.2,2.6 2.7,6.1 2.8,9.4 5.6,0.8 11.7,1.9 15.8,6.2 3.2,3.2 4.5,7.8 4,12.3 6.7,1.3 14.2,3.6 17.7,10 2,3 1.5,6.7 1.5,10.1 5.8,1.7 12.1,4.2 15.2,9.7 2.3,3.5 2,7.8 1.3,11.7 5.5,2.1 11.2,5.1 14.1,10.5 2,3.6 1.4,7.9 0.8,11.8 5.7,2.6 11.6,6.4 13.8,12.6 1.4,3.8 0.5,8 -1.1,11.6 5.4,2.6 10.6,6.5 13,12.1 1.7,4 0.7,8.4 -0.6,12.3 3.6,3.1 7.9,5.8 10,10.3 2.8,4.7 2,10.7 -0.9,15.2 5,3.9 9.9,8.9 10.9,15.4 0.7,4 -1.1,7.9 -3.1,11.2 4.6,4.1 9,9.5 9.1,16 0.2,3.9 -1.9,7.5 -4.3,10.4 4.2,4.6 8.2,10.4 7.8,16.9 -0.1,3.8 -2.3,7 -4.6,9.8 3.6,4.6 6.9,10 6.8,16.1 -0.2,4.3 -2.8,8 -5.8,10.9 3.9,5.6 7.1,12.3 5.5,19.2 -0.8,3.6 -3.4,6.2 -6.1,8.5 3.1,5.8 5.9,12.9 3.3,19.4 -1.1,3.3 -4.2,5.3 -6.6,7.6 2.3,5.5 4.2,11.8 2.3,17.7 -1.2,3.8 -4.4,6.5 -7.7,8.4 2.4,6.1 3.9,13.5 0.5,19.6 -1.7,3.2 -5,5.1 -8.2,6.4 1.7,5.6 2.8,12 0.4,17.6 -1.7,4.1 -5.6,6.8 -9.7,8 0.8,5.8 1.2,12 -1.2,17.5 6.5,5.5 12.5,11.4 18.9,16.9 -4.1,6.7 -9.9,12.1 -15.4,17.6 -9.5,9.1 -19.4,18 -29.9,25.9 -10.4,13.8 -23.5,25.2 -36.4,36.4 -5.6,4.2 -10.8,9.8 -17.9,11.2 -5.7,-4.4 -10.9,-9.5 -16.1,-14.5 -11.4,-11.1 -22.8,-22.1 -34.2,-33.1 -30.5,-29.9 -60.9,-59.9 -90.9,-90.3 -2.9,1.9 -5.7,3.8 -8.6,5.8 13.6,14.4 27.8,28.3 41.3,42.8 -37.1,0.4 -74.1,0.1 -111.2,0.1 -0.3,10.6 0,21.2 -0.2,31.9 -8.8,0.1 -17.6,0.1 -26.4,0 -0.2,-10.6 -0.1,-21.2 0,-31.8 -38.7,-0.2 -77.3,0.2 -116,-0.2 14.2,-15.2 29.4,-29.3 43.6,-44.5 -7.3,-4.7 -14.4,-9.9 -21.6,-14.7 -24.2,21.9 -48.5,43.7 -73.2,65.2 -10,8.5 -17.2,20.1 -28.8,26.7 -10.3,6.9 -21,12.9 -31.4,19.5 -13.4,8.3 -27.5,15.8 -42.7,20.4 2.5,-4.8 4.9,-9.7 8,-14.2 -6,-2.1 -8.2,-8.7 -8.1,-14.5 -7.2,-2.9 -13.9,-9.3 -13,-17.7 -3.6,-2.2 -7.5,-4.6 -9.4,-8.6 -2.2,-3.5 -1.7,-7.9 -0.9,-11.7 -4.9,-2.3 -10,-5.1 -12.8,-9.9 -2.6,-4.1 -1.9,-9.2 -0.6,-13.6 -5.6,-3.2 -11.5,-7.5 -12.8,-14.2 -1,-3.4 0.2,-6.8 1.4,-10 -4.6,-3 -9.2,-6.6 -11.2,-11.9 -1.7,-4.8 -1.2,-11.2 3.3,-14.4 -8.2,-4.8 -12.5,-16.6 -6.1,-24.7 -4.8,-4.4 -9.5,-10.1 -9.1,-17 0.1,-3.6 2,-6.7 4,-9.6 -3.9,-4.7 -7.9,-10 -7.6,-16.5 -0.1,-3.9 2.1,-7.4 4.7,-10.1 -4,-4.8 -7.4,-10.7 -6.6,-17.2 0.1,-4.1 2.8,-7.4 5.8,-9.9 -2.6,-4.5 -5,-9.4 -4.4,-14.8 0,-4.5 3,-8.2 6.4,-10.9 -3.1,-5.7 -5.6,-12.5 -3.4,-18.9 1.1,-3.5 3.9,-6.1 7,-7.9 -2.7,-5.6 -4.2,-12.3 -2.2,-18.4 1.2,-3.7 4.3,-6.1 7.5,-8 -2,-5.1 -3.3,-10.8 -1.8,-16.3 1.2,-4.7 5.2,-8.4 9.9,-9.7 -1.8,-6.4 -2.6,-14 1.4,-19.8 1.8,-2.9 5.1,-4.3 8.2,-5.6 -0.9,-4.8 -1.5,-9.9 0.2,-14.6 1.5,-5.2 6.4,-8.8 11.6,-9.5 -0.9,-6.5 -0.6,-14.1 4.3,-19.1 2.3,-2.6 5.7,-3.6 9,-4.4 -0.1,-5.3 -0.1,-11.1 3,-15.7 2.7,-4.5 8.1,-6.7 13.2,-6.5 0.1,-6.9 1.4,-14.7 7.2,-19.2 2.8,-2.4 6.5,-2.7 10,-2.9 -2.1,-7.1 -5.2,-14.2 -4.9,-21.8 -0.1,-3.7 1.3,-8.4 5.4,-9.5 6.9,-1.9 14.1,-0.1 21,1.3 3.3,-5.7 9.8,-9.3 16.4,-7.9 1.1,-4.5 3,-8.9 5.9,-12.5 -1.9,-6.4 -3.6,-13.2 -2.1,-19.8 1.6,-5.5 8.3,-6.3 13.1,-5.8 9.6,0.6 18.4,4.6 28,5.4 2.4,-5.7 6.2,-11.4 12.3,-13.6 3.7,-1.4 7.7,-0.5 11.4,0.7 2.7,-4.9 6.3,-9.7 11.6,-11.9 4.1,-1.7 8.8,-1 12.7,0.8 3.3,-5.1 7.7,-10.2 13.9,-11.6 4,-1.1 8,0.5 11.5,2.4 3.7,-4.8 8.4,-9.4 14.5,-10.6 4.3,-1.2 8.5,0.8 12.1,2.9 3.8,-3.9 8.2,-7.8 13.9,-8.7 4.7,-1 9.2,1.2 12.8,4 4.6,-4.1 10.2,-8 16.7,-7.4 3.7,0.4 7,2.6 9.7,5.1 z m -1.3,7.6 c -6.9,7.7 -12.5,16.4 -17.7,25.2 6.4,-0.9 12.9,-2.1 18.4,-5.7 5,-3.2 8.4,-8.3 12.2,-12.7 3.9,-4.5 7.5,-9.2 10.6,-14.3 -2.6,-1.3 -5.4,-3.2 -8.4,-2.4 -6.1,1.3 -11,5.5 -15.1,9.9 z m 27.5,-2 c -7.7,6.9 -14.3,15 -20.5,23.3 7.5,0 15.5,-0.9 21.8,-5.3 8.8,-6.1 15.8,-14.4 22.7,-22.6 -2.4,-1.7 -4.9,-3.5 -8,-3.3 -6.1,0.5 -11.5,4 -16,7.9 z m -50,0.8 c -8.4,8.7 -14.3,19.5 -19.9,30.1 5.6,-1.1 11.3,-2.5 16.2,-5.4 5.1,-3.1 8.8,-7.9 12.2,-12.7 3.8,-5.6 8,-11 11,-17 -6.9,-4.1 -14.6,-0.1 -19.5,5 z m 70.1,6.2 c -5.4,5.5 -10.9,10.8 -15.7,16.8 6.5,0 13.2,0 19.2,-2.7 6.2,-2.8 10.9,-7.9 16,-12.2 3.9,-3.2 7.3,-6.9 10.8,-10.5 -2.4,-2.6 -5.9,-4.5 -9.6,-3.9 -8.2,1.2 -14.9,6.8 -20.7,12.5 z M 429.6,184 c -7.6,9.5 -12.4,20.8 -17.1,31.9 8.6,-2.3 17.4,-6.2 22.3,-14 4.9,-7.9 10,-15.8 13.7,-24.3 -7,-4 -14.5,0.9 -18.9,6.4 z m 128.7,-0.4 c -8.6,5.7 -16.2,12.8 -23.6,20 5.5,0.7 11.2,1.2 16.6,-0.1 7.5,-1.5 13.5,-6.6 19.4,-11 4,-3.1 8.3,-6 11.7,-9.8 -1.1,-2.8 -4.3,-4.3 -7.1,-4.6 -6.1,-0.5 -12,2.2 -17,5.5 z m -157,10.8 c -5.3,9 -9.1,18.9 -12.6,28.7 7.7,-2.5 15.5,-6.2 20.2,-13 5.6,-8.4 9.7,-17.8 13.7,-27 -2.6,-0.9 -5.3,-2 -8,-1 -6,1.9 -10.1,7.2 -13.3,12.3 z m 187.1,-7.7 c -10.7,5.2 -20,12.9 -28.9,20.8 6.4,1.2 13,2 19.4,0.2 6,-1.7 10.8,-5.7 16,-8.9 4.8,-2.9 9.4,-6.1 13.8,-9.6 -4.4,-7 -13.9,-5.5 -20.3,-2.5 z m -210,13.1 c -6,10.7 -8.8,22.8 -11.6,34.7 7.7,-3.5 15.7,-8.4 19,-16.7 3.5,-9 7.7,-17.7 9.9,-27.1 -7.3,-2.9 -13.9,3.2 -17.3,9.1 z m 205.7,11.8 c 6.6,2.1 13.7,3.3 20.6,1.9 6.1,-1.4 11.5,-4.8 17,-7.7 4.5,-2.4 8.8,-4.9 13,-7.9 -3.5,-6.5 -11.8,-7.1 -18.1,-4.9 -12,4 -22.4,11.3 -32.5,18.6 z m -224.6,-8.2 c -7.4,7.3 -9.7,18 -12.2,27.7 3.6,1.6 7.2,3.2 10.7,4.9 3,-4 5.4,-8.5 6.9,-13.3 2.3,-7.4 4.7,-14.8 6.1,-22.5 -4.1,-0.7 -8.5,0.1 -11.5,3.2 z m 275.2,1.2 c -9.5,3.9 -18.4,9.1 -26.9,14.7 8,2.8 17.2,5.1 25.4,1.5 8.7,-3.9 17.9,-7.1 26,-12.3 -1.6,-2.2 -3.2,-4.8 -6,-5.7 -6.1,-2.3 -12.7,-0.4 -18.5,1.8 z m -156.6,1.5 c -7.9,2.9 -16.3,4.5 -24.7,4.3 0.2,-0.6 0.7,-1.9 1,-2.5 -7.8,4.4 -17,6.6 -25.9,6.3 -6.9,3.8 -14.5,6 -22.2,7.3 0.1,-0.7 0.3,-2 0.4,-2.7 -5.7,4.4 -12.5,7.4 -19.5,9.1 -1.9,0.5 -3.9,0.9 -5.3,2.3 -5.3,4.6 -11.7,7.6 -18.2,10.2 -0.9,-1 -1.8,-2 -2.8,-3 0,0.4 0,1.1 0,1.5 3.2,3.5 6.9,6.5 10.1,10 3.2,-4.6 7,-9.5 12.8,-10.8 3.6,-1.2 7.4,0.2 10.7,1.6 3.3,-4.5 7.4,-9 13.1,-10.2 4.2,-1.3 8.6,0.5 12.2,2.9 4,-5 9.4,-9.8 16.1,-10.2 3.7,-0.4 7.2,1.3 10.1,3.4 4.4,-4.4 9.5,-8.8 16,-9.3 4.2,-0.5 8.2,1.6 11.4,4.1 4.4,-3.7 9.8,-7.1 15.8,-6.7 4,0 7.7,2.3 10.4,5.1 4.6,-3.1 9.8,-6.1 15.5,-5.6 4.6,-0.1 8.6,2.9 11.2,6.5 5.5,-2.9 12,-5.1 18.1,-2.9 3.3,1.1 5.5,3.9 7.6,6.4 6.1,-3.2 13.8,-5.7 20.4,-2.4 3.1,1.3 5.1,4.1 6.8,6.9 5.5,-1.9 11.6,-3.4 17.1,-1 3.9,1.4 6.4,4.8 8.1,8.5 5.6,-1.4 11.8,-2.4 17.2,0.3 3.9,1.8 6.4,5.6 7.6,9.6 5.9,-1 12.6,-0.9 17.6,2.9 2.9,2.1 4.5,5.5 5.3,8.9 6.3,-0.8 13.4,-0.2 18.3,4.3 2.6,2.4 3.7,5.9 4.3,9.3 6.4,-0.2 13.7,0.9 18.1,6.1 2.5,2.6 3,6.3 3.5,9.7 6,0.4 12.5,2.2 16.3,7.3 2.5,3 2.7,7.1 2.6,10.9 6,0.9 12.4,3 16.3,8.1 2.6,3.2 3.1,7.5 2.6,11.4 6.3,1.3 13,3.9 16.5,9.7 2.4,3.3 2,7.5 1.7,11.3 5.8,2.1 11.9,5.4 14.3,11.4 1.5,3.3 1,7.1 0.1,10.5 5.1,2.4 10.4,5.6 12.8,11 2,3.9 1.4,8.4 -0.1,12.4 -0.4,0.2 -1.3,0.6 -1.8,0.8 3.6,2.4 7.2,5 9.5,8.7 2.9,4.5 2.8,10.6 0.2,15.3 4.7,3.3 9.6,7.2 11.6,12.9 1.7,4.8 0.5,10.2 -2.6,14.1 5.1,4.2 9.9,10.1 9.4,17.1 0,3.4 -1.9,6.2 -3.7,8.9 3.4,3.5 6.6,7.6 7.6,12.6 1.3,4.8 -0.7,10 -4.1,13.5 3.7,4.5 6.9,9.9 7,15.9 -0.1,4.3 -2.4,8.2 -5.5,11.1 3.3,4.7 6.4,10.1 6,16.1 0.2,5 -3,9.3 -7.1,11.9 2.8,5.4 5.1,11.7 3.2,17.8 -1,4 -4.2,7 -7.9,8.7 1.8,4.8 3.6,9.7 3.1,14.9 -0.4,6 -4.9,11.9 -11.2,12.7 2,7.1 3.3,15.5 -1,22 -2,3.3 -5.7,4.9 -9.3,5.9 3.6,2.7 6.8,5.8 10.2,8.8 1.2,-2.1 2.5,-4.3 3.8,-6.3 0.3,0.8 1,2.3 1.3,3 0.3,-9.2 2.8,-18.5 7.9,-26.2 0.5,-7.4 1.8,-14.9 4.7,-21.8 0.4,-0.2 1.3,-0.6 1.7,-0.8 -0.6,-8.4 0.5,-16.9 3.1,-24.9 l 2,2.1 c -1.7,-8.9 -1.3,-18.4 1.7,-27 -1.5,-7.8 -1.5,-15.9 -0.2,-23.7 0.6,0.4 1.8,1.2 2.4,1.6 -3.6,-8.2 -3,-17.3 -3,-26 -3,-7.9 -4.7,-16.3 -4.5,-24.8 l 2.5,1.6 c -4.7,-8.2 -6.4,-17.7 -7,-27 -3.5,-6.9 -6.1,-14.3 -7.1,-22 0.7,0.3 2.2,0.8 2.9,1 -5.3,-6.2 -8.2,-14 -10.2,-21.7 -0.4,-1.9 -1.8,-3.3 -3,-4.8 -4.5,-5.6 -7.6,-12.3 -9.8,-19.1 0.8,0.1 2.3,0.4 3.1,0.5 -7,-5.5 -11.2,-13.6 -14.7,-21.6 0.3,-0.2 0.9,-0.7 1.2,-0.9 -7.1,-5.1 -12.1,-12.5 -16,-20.2 0.9,0.1 2.6,0.2 3.4,0.3 -8,-4.9 -14.4,-12.3 -18.4,-20.7 -6.7,-4.2 -12.2,-10.1 -16.8,-16.4 0.6,-0.1 1.8,-0.4 2.4,-0.5 -5.8,-3.1 -11.2,-6.9 -15.6,-11.8 -2,-2 -3.5,-4.6 -6.3,-5.6 -7.1,-3.1 -13.4,-7.9 -18.8,-13.4 l 2.7,-0.6 c -8.4,-3 -16.8,-7.1 -22.7,-14 -7.8,-2.2 -15,-6 -21.5,-10.8 1,-0.4 2,-0.8 3.1,-1.2 -6.1,-0.9 -12.1,-2.7 -17.6,-5.6 -3.2,-1.6 -6.2,-4.1 -9.9,-4.2 -7.4,-0.8 -14.6,-3.2 -21.2,-6.7 0.6,-0.4 1.9,-1.3 2.6,-1.8 -9.1,0.7 -17.9,-1.9 -26.3,-5.1 -8.2,0.2 -16.4,-0.7 -24.1,-3.4 l 2.2,-2 c -9,1.5 -18.5,1.2 -27.2,-2 -7.8,1.5 -15.8,1.3 -23.6,0.1 0.4,-0.6 1.3,-1.9 1.7,-2.5 -8,3.7 -17,3 -25.8,3 z m -139,6.4 c -4.6,2.4 -6.9,7.3 -9.1,11.7 4.5,1.8 9,3.4 13.4,5.3 1.2,-5.9 2.3,-11.9 3,-17.9 -2.5,0 -5.1,-0.4 -7.3,0.9 z m 314.1,4.7 c -7.4,2.7 -14.8,5.6 -21.7,9.6 7.7,3.8 16.5,6.7 25.1,4.5 9.2,-2.3 18.3,-5.6 27,-9.4 -1.4,-3.1 -3.6,-6.1 -7,-7.1 -7.8,-2.4 -16,-0.1 -23.4,2.4 z m -177.3,7 c -8.8,8.7 -14.8,19.7 -20.8,30.4 9,-1.1 18.5,-4.4 24,-12.1 5.3,-7.4 11.3,-14.3 15.7,-22.3 -6.2,-4.4 -14.1,-0.8 -18.9,4 z m 21,3.1 c -6.9,7.4 -12.8,15.6 -18.3,24.1 6.1,-0.8 12.4,-1.5 17.8,-4.5 3.8,-1.9 6.3,-5.5 9.2,-8.5 5.2,-5.8 11.4,-11 15.3,-17.9 -2.7,-2.9 -7.1,-3.5 -10.7,-2.3 -5.2,1.7 -9.6,5.2 -13.3,9.1 z m -204.7,-3.9 c -1.7,6 0,12.4 2.5,17.9 5.2,11.8 12.3,22.7 19.7,33.2 4.1,6.1 10.4,10.1 15.5,15.2 45.6,40.7 91.2,81.4 136.8,122 6.5,-13.8 12.9,-27.6 19.4,-41.4 -41,-39.8 -82.2,-79.5 -123.1,-119.4 -5.7,-5.8 -13.1,-9.3 -19.9,-13.4 -11.6,-6.4 -23.4,-12.9 -36.3,-16.3 -4.7,-1.1 -11.3,-2.6 -14.6,2.2 z m 157.9,4.5 c -8.1,9.3 -13.3,20.7 -18.4,31.8 8.9,-2.2 18.2,-6 23.2,-14.1 4.6,-7.7 10,-15 13.9,-23.1 -6.6,-4 -14.2,0.2 -18.7,5.4 z m 77.7,-3.7 c -10.5,6.8 -18.6,16.5 -26.6,25.9 8.7,0.2 18,-0.7 25,-6.3 7.4,-6 14.4,-12.5 20.8,-19.5 -4.9,-6 -13.5,-3.8 -19.2,-0.1 z m 26.8,2.9 c -10.6,6 -19.3,14.8 -27.8,23.5 8.8,0.8 18.6,0.8 26,-4.9 6.4,-5.1 13.2,-9.8 19.3,-15.2 0.7,-0.8 2.8,-2.3 1.2,-3.3 -5,-5.4 -13.1,-3.2 -18.7,-0.1 z M 424.3,234 c -8,10 -12.3,22.2 -16.7,34 5,-1.7 10.1,-3.7 14.4,-6.9 4.9,-3.5 8,-8.9 10.8,-14.1 3.2,-6.3 6.8,-12.4 8.9,-19.2 -6.6,-2.8 -13.4,1 -17.4,6.2 z M 682,228.5 c -9.4,2.1 -18.6,5.4 -27.4,9.3 -0.6,1.6 1.5,1.8 2.4,2.5 5.1,2.4 10.5,4.4 16.1,4.5 5.6,-0.1 10.9,-2 16.3,-3.2 5.6,-1.3 11.1,-3 16.5,-5.2 -1.4,-2.4 -2.6,-5.3 -5.3,-6.6 -5.6,-3.2 -12.4,-2.7 -18.6,-1.3 z M 576.8,234 c -9.6,5.4 -18.1,12.5 -26.3,19.9 5.4,0.9 11,1.8 16.5,0.7 6.7,-0.9 12.1,-5.4 17.6,-8.9 5.2,-3.3 10.4,-6.6 14.9,-10.8 -2,-1.8 -4,-4 -6.8,-4.5 -5.4,-1.2 -11,1.1 -15.9,3.6 z m -174.2,3.1 c -8.1,7.7 -10.8,19 -13.9,29.3 2.3,2.2 4.5,4.4 6.8,6.5 3.6,-2.9 7,-6.2 9,-10.4 4.2,-9.1 7.9,-18.5 10.2,-28.2 -4.2,-1.2 -8.9,-0.3 -12.1,2.8 z m 198.1,4.5 c -9.6,4.5 -18.4,10.6 -26.8,17 6.7,1.7 13.9,3.4 20.7,1.4 4.6,-1.4 8.5,-4.2 12.8,-6.2 5.8,-2.9 11.7,-5.8 16.9,-9.6 -1.7,-2 -3.3,-4.4 -6,-5.2 -5.8,-1.9 -12.1,0.2 -17.6,2.6 z m -226.5,10.9 c 3.7,3.5 7.3,7 10.9,10.6 2.1,-6.8 4.3,-13.6 5.3,-20.6 -7.4,-1.8 -13.1,4 -16.2,10 z m 300.7,-2.3 c 7.1,5.7 16.2,9.5 25.5,8.3 9,-1.1 17.9,-2.8 26.6,-5.1 -1.3,-8.1 -10.2,-10.6 -17.3,-10.5 -11.9,0.4 -23.5,3.7 -34.8,7.3 z m -390.4,18.2 c 4.6,1.6 9.1,3.5 13.6,5.3 0.3,-2.7 1.7,-5.6 0.2,-8.1 -3.2,-6.3 -6.5,-12.6 -8.9,-19.2 -4,6.5 -4.8,14.4 -4.9,22 z m 351.4,-19.6 c 3.7,2.7 7.5,5.2 11.5,7.4 -1.8,-4.8 -6.7,-7.1 -11.5,-7.4 z m -142.5,4.5 c -7.5,1.4 -15.3,3.4 -22.9,1.8 -7.2,2.8 -14.8,4.4 -22.5,4.6 0.1,-0.5 0.3,-1.4 0.4,-1.9 -7.1,4.6 -15.7,6.8 -24.1,7.2 -4.7,3.1 -9.8,5.6 -15.3,7.1 -3.6,1.1 -7.6,1.4 -10.7,3.8 3,2.7 5.9,5.4 8.6,8.4 3.1,-4.1 6.9,-8.3 12.2,-9.3 3.9,-1.2 7.8,0.4 11.3,2.1 4.4,-6 11.8,-11.3 19.6,-8.9 2.4,0.8 7,2.3 4.9,5.5 3.9,-5.3 9.5,-10 16.3,-10.8 4.4,-0.6 8.7,1.5 11.9,4.3 4.7,-3.6 10.2,-7.1 16.4,-6.3 3.7,0.1 6.8,2.5 9.5,4.8 4.5,-3 9.8,-5.6 15.4,-4.7 4.4,0.3 7.9,3.3 10.2,6.9 4.9,-2.2 10.2,-4.6 15.7,-3.4 4.7,0.6 8.8,4.1 10.2,8.6 5.6,-3 12.6,-4.4 18.7,-2 3.6,1.5 6,4.8 7.6,8.2 4.3,-0.9 8.7,-2 13,-0.9 5.4,1.1 9.8,5.6 10.8,11 -1,0.4 -2,0.7 -3,1.1 l 3,0.7 c -0.2,-0.2 -0.6,-0.7 -0.8,-1 6.7,-1.1 14.6,-1.9 20.3,2.8 2.8,2.1 4.2,5.4 5.1,8.7 6.2,-0.1 13.3,0.2 17.9,5 2.8,2.7 3.7,6.6 4,10.4 7.1,-0.4 14.6,1.8 19.2,7.5 -1.4,-6.3 -2.9,-14.2 -9.7,-16.8 -6.2,-2.5 -11.5,-6.7 -16.7,-10.8 0.4,-0.4 1.1,-1.1 1.5,-1.5 -8.2,-2.2 -15.7,-6.5 -22.3,-11.9 -7.1,-2 -14.1,-4.6 -20.2,-8.9 0.6,-0.4 1.8,-1 2.4,-1.4 -8.7,0 -17.7,-2.9 -24.8,-7.9 -7.6,-0.9 -15.5,-1.9 -22.1,-6.1 -7.8,0.1 -15.9,-0.4 -23,-3.9 0.7,-0.3 2.1,-0.9 2.8,-1.2 -8.7,2.1 -17.9,1.3 -26.5,-1.2 -7.8,1.7 -16.2,1.9 -24.3,0.3 z M 596.6,265 c 0,0.2 0.1,0.5 0.2,0.7 6.9,2.9 14.5,4.4 21.9,2.9 -0.1,-5.5 0.6,-11 2,-16.4 -8.3,3.8 -16.5,7.8 -24.1,12.8 z M 627,252.1 c -2.2,6.2 -2.3,12.9 -2.2,19.4 8.2,8.5 19.6,12.6 29.7,18.5 10.8,6 22.4,13.7 26.2,26.1 2.6,7.3 0.6,15.4 -3.6,21.8 -7.1,11.4 -17.3,20.3 -27.1,29.4 5.3,5.4 10.6,10.9 16.4,15.9 9.9,-9.1 20.3,-19.3 34.2,-21.4 9.5,-2.1 19.1,2.5 26.1,8.6 11.8,10.3 19.3,24.4 27.5,37.6 6,10.7 12.3,21.3 16.8,32.8 1.4,4.6 1.6,9.4 1.6,14.1 2.5,1.6 4.8,3.6 6.9,5.7 -0.9,2.9 -1.3,5.9 -1.7,8.9 3.8,3.8 7.3,8.9 6.1,14.5 5.3,7.5 6.4,17 10.8,24.9 1.2,2.9 4.5,3 7.3,3.4 -8.9,-53.7 -26.4,-106.7 -56.7,-152.3 -26.1,-39.7 -61.6,-72.6 -101.2,-98.5 -5.5,-3.4 -10.6,-7.8 -17.1,-9.4 z m -357.7,11.2 c 3.5,1.1 7,2.3 10.5,3.4 -0.2,-2.9 -0.3,-5.7 -1,-8.5 -3.9,-0.3 -6.9,2.4 -9.5,5.1 z m 425.7,1.6 c 6.5,6 15.2,10.3 24.2,9.8 9.3,-0.9 18.6,-1.5 27.7,-3.6 -0.9,-2.8 -1.7,-6.1 -4.4,-7.7 -5.4,-3.6 -12.3,-4.2 -18.6,-3.7 -9.8,0.7 -19.4,2.8 -28.9,5.2 z m -41,-4 c 2.8,2 5.5,4.2 8.7,5.6 -0.3,2.1 0.6,2.7 2.6,2.1 0.7,2.3 3.1,0.9 4.8,0.8 -2,-7.1 -9.7,-8.8 -16.1,-8.5 z m -408.1,7.3 c -1.3,5.7 0.4,11.6 2.6,16.8 5.2,11.9 12.3,22.8 19.7,33.4 3.1,4.7 7.6,8.1 11.7,11.7 46.3,41.5 93,82.7 139.1,124.3 -4.1,-22.6 -8.3,-45.2 -12.4,-67.8 3,1.3 5.9,2.5 8.9,3.8 -30.9,-30.1 -62,-59.9 -92.8,-90.1 -4.9,-4.3 -9,-9.5 -14.8,-12.6 -15.4,-9 -31,-18.4 -48.4,-23 -4.4,-0.5 -11.4,-1.9 -13.6,3.5 z m 236,6.6 c -6.9,8 -12.4,17.2 -17.4,26.4 6.6,-1.3 13.6,-2.8 19.1,-6.9 4.8,-3.5 7.7,-8.9 11.3,-13.6 3.2,-4.3 7,-8.2 9.4,-13.1 -1.1,-2.1 -3.8,-2.6 -6,-2.8 -6.7,0.5 -12.1,5.3 -16.4,10 z m 21.3,2.6 c -5.8,6.8 -10.9,14.2 -15.5,21.9 8.4,-0.8 17.4,-2.8 23.3,-9.2 6.4,-7.1 13.3,-13.9 18.2,-22.2 -2.4,-2.6 -6.2,-3.4 -9.5,-2.5 -6.9,1.7 -12.1,6.8 -16.5,12 z m -46,0.1 c -6.4,8.8 -11.2,18.7 -15.5,28.7 8.5,-2.1 17.7,-5.6 22.5,-13.5 4.7,-8 10.5,-15.4 14.4,-23.9 -2.4,-0.8 -4.8,-2.2 -7.3,-1.6 -6,1.1 -10.5,5.7 -14.1,10.3 z m 73.3,-1.2 c -7.5,6.6 -14.2,14 -20.4,21.9 8.6,0.3 17.9,-0.8 24.8,-6.6 7.4,-6.1 14.7,-12.4 20.6,-20.1 -2.4,-1.4 -4.7,-3.3 -7.6,-3.3 -6.7,0.1 -12.5,4 -17.4,8.1 z M 303.7,273 m 135.3,1.6 c -8.1,6.6 -11.5,16.8 -15,26.3 2.6,2.6 5.2,5.3 7.9,7.9 6.5,-5.1 9.6,-12.8 13,-20 2.4,-5.2 4.3,-10.7 5.9,-16.3 -4.1,-1 -8.6,-0.8 -11.8,2.1 z m 115.5,6.9 c -7.4,5.4 -14.5,11.3 -20.6,18.1 6.6,0.7 13.6,1.3 20,-1.2 5.6,-2.2 10,-6.4 15,-9.6 4.7,-3 9,-6.5 13.1,-10.3 -2,-1.8 -4,-4.1 -6.9,-4.4 -7.6,-0.8 -14.6,3.2 -20.6,7.4 z m 63.8,-7.6 c -0.9,1.4 1.4,3 2.6,2 0.8,-1.4 -1.5,-3.1 -2.6,-2 z m 54.9,1.1 c 4.4,2.9 8.3,6.5 12.5,9.7 1.9,1.8 4.3,-0.5 6.3,-1 -2.8,-7.6 -11.5,-9.6 -18.8,-8.7 z m -366.4,1.4 c -0.8,1.7 1.8,3.2 3.3,2.9 0.4,-1.5 -1.8,-3.5 -3.3,-2.9 z m 407.9,3.3 c 6.2,5.8 13.5,11.5 22.3,12.2 9.7,0.8 19.4,0.1 29.1,-0.5 0,-8.3 -8.4,-12.2 -15.5,-13.2 -11.9,-1.4 -24,-0.2 -35.9,1.5 z m -304.6,7.7 c 3.6,3.3 6.9,6.8 10.5,10.1 2.3,-5.9 4.4,-11.9 5.4,-18.2 -6.8,-2 -12.5,2.8 -15.9,8.1 z m 175.7,-3.1 c -10.9,4.8 -20.6,11.9 -29.7,19.6 7.5,1.7 15.7,3 23,-0.1 9.5,-4.3 18.5,-9.6 26.7,-16 -4,-7.3 -13.5,-6.3 -20,-3.5 z M 315.2,283 c 2.4,3.1 5.1,6 8.4,8.2 -2.6,-2.9 -5.4,-5.6 -8.4,-8.2 z m 376.9,7.4 c 4.5,3.9 9,8 13.3,12.2 1.9,-0.5 3.7,-1 5.6,-1.5 -1.5,-8.8 -11.5,-10.7 -18.9,-10.7 z m -365.8,3.1 c 2.7,4.8 7.2,8.2 11.2,12 0.2,-0.4 0.6,-1.3 0.8,-1.7 -4,-3.4 -7.6,-7.3 -12,-10.3 z m 272.7,5.4 c -6.7,3.2 -13.6,6.3 -19.6,10.7 5.4,2.1 11.1,3.9 17,3.9 6.3,0 11.8,-3.4 17.5,-5.6 5.7,-2.2 11.4,-4.2 16.8,-7.1 -1.6,-3 -3.8,-5.9 -7.3,-6.6 -8.3,-2.2 -16.8,1.4 -24.4,4.7 z m -368.2,15 c 0.5,11.9 3.8,23.4 7.4,34.7 5.2,-7.3 9.5,-16.1 8.4,-25.3 -1.2,-9.2 -2.7,-18.3 -5.2,-27.2 -8.2,1.5 -10.7,10.6 -10.6,17.8 z m 501.6,-16.4 c 5.9,6.5 13.2,12.5 22.2,13.5 9.4,0.9 18.9,1.3 28.4,1 0.4,-8.1 -7.4,-12.5 -14.2,-13.9 -12,-2.5 -24.4,-1.5 -36.4,-0.6 z m -485.3,0.9 c 1.8,10 3.1,20.2 5.9,30 2.5,-3.1 4.6,-6.4 6.5,-9.9 -6.2,-5.1 -9,-13 -12.4,-20.1 z m 210.4,7.7 0.3,-1.4 c -7,3.8 -14.8,6 -22.7,6.8 17.7,17.4 35.4,34.7 53.3,51.9 0.2,-0.1 0.8,-0.3 1,-0.4 6.8,-14 13.1,-28.3 20,-42.3 14.4,30.6 28.9,61.1 43.3,91.6 20.4,-9.2 40.9,-18.4 61.3,-27.5 -0.4,2.5 -0.9,4.9 -1.4,7.4 13,-11.3 25.6,-23 38.6,-34.3 -0.5,-1.2 -1,-2.4 -1.5,-3.6 -5.6,-3 -10.7,-6.8 -15.1,-11.5 -1.2,-1.2 -2.2,-2.6 -3.8,-3.1 -6.4,-3 -13.7,-5.8 -17.9,-11.8 -7.5,-2.2 -15.7,-4.6 -21.3,-10.4 -7.5,-1.2 -14.6,-4 -21.3,-7.5 -8,-0.5 -16.2,-1.3 -23.4,-5.1 0.6,-0.3 1.9,-0.8 2.5,-1.1 -8.2,1 -16.9,0.7 -24.6,-2.5 -7.9,1.2 -16.1,2 -23.8,-0.3 -6.8,2 -14,2.8 -21.1,2.6 0.4,-0.7 1.1,-2.1 1.4,-2.8 -7.4,3.4 -15.6,4.8 -23.8,5.3 z m 173.3,0.8 c -10.3,2.5 -20.1,6.7 -29.5,11.4 0.1,0.2 0.3,0.5 0.4,0.7 7.2,4.1 15.9,6.3 24.2,4.3 9.3,-2.2 18.4,-5.3 27.1,-9.3 -1.5,-2.4 -2.8,-5.2 -5.5,-6.4 -5.2,-2.4 -11.3,-1.8 -16.7,-0.7 z m -288.1,1.5 c -0.2,0.3 -0.7,0.9 -0.9,1.2 1.9,1.8 3.8,3.7 5.6,5.6 0.6,-0.4 1.3,-0.8 1.9,-1.2 -2.2,-1.9 -4.4,-3.8 -6.6,-5.6 z m 368.4,-0.1 c 4.5,4.5 8.8,9.2 12.9,14 2,-0.3 4,-0.6 5.9,-0.9 -0.5,-2.5 -0.9,-5.2 -2.8,-7 -4.2,-4.3 -10.4,-5.2 -16,-6.1 z m -358.9,8.4 c -0.4,0.4 -1.1,1.1 -1.4,1.5 2.4,2.4 4.8,4.8 7.2,7.2 0,-1.2 0,-2.4 0,-3.5 -1.9,-1.7 -3.8,-3.4 -5.8,-5.2 z m 396.5,-1.3 c 4,5 8.3,10 14,12.9 6.6,3.5 14.3,3.9 21.5,5 4.5,0.7 9,1 13.6,1.2 1.1,-7.3 -5.2,-12.4 -11.3,-14.5 -12,-4.3 -25.1,-4.1 -37.8,-4.6 z m -534.1,20.9 c 1.5,12 6.2,23.3 10.9,34.4 3.8,-6.8 7.2,-14.5 6.2,-22.5 -1.3,-10.4 -4.7,-20.3 -8.5,-30 -7.6,2.4 -9.5,11.1 -8.6,18.1 z m 48.2,-14.8 c -2.7,5.5 -6.7,10.2 -10.8,14.8 -0.6,-0.2 -1.7,-0.5 -2.3,-0.6 -2.8,8.2 -7.1,16.4 -14.1,21.8 -2.1,8.1 -5.6,15.9 -11.1,22.3 -0.2,-0.9 -0.6,-2.8 -0.8,-3.7 -1,9.5 -4.7,18.6 -10.3,26.3 -1,7.9 -3.6,15.4 -7.2,22.4 -0.4,-0.7 -1.2,-2.2 -1.5,-2.9 0.2,9.3 -2.2,18.5 -6.2,26.8 0.7,7.9 -0.9,15.8 -3.1,23.3 -0.5,-0.5 -1.6,-1.5 -2.1,-1.9 2,8.9 0.8,18.2 -1.6,26.9 1,7.8 1.3,15.9 -0.1,23.7 -0.6,-0.6 -1.8,-1.7 -2.4,-2.3 3.4,8.6 3.6,18 2.8,27.1 2,7.2 3.3,14.7 3.5,22.2 -0.7,-0.4 -2.1,-1.2 -2.8,-1.7 4.3,8 6.9,17.1 6.6,26.2 4,7 6.4,14.8 7.5,22.8 l -2.7,-1.2 c 5.5,7.1 8.7,15.7 10.6,24.4 l -2,-0.3 c 5,5.8 8.4,12.7 11,19.8 -0.6,0.1 -1.8,0.2 -2.5,0.2 6.8,6 11.5,14.1 14.8,22.5 5.7,5.4 10.5,11.7 14.2,18.6 -0.7,0 -2.2,-0.1 -3,-0.1 5.4,3.7 9.9,8.4 14,13.5 0.9,-1.2 1.7,-2.4 2.6,-3.5 -6.3,-4.4 -9.6,-12.8 -6.5,-20.1 -7.3,-1.5 -15.3,-4.9 -18.8,-12 -2,-4 -1.3,-8.5 0,-12.6 0.6,0.1 1.9,0.3 2.5,0.4 -6.4,-3 -13.1,-7.7 -14.6,-15.1 -0.9,-3.3 0.3,-6.6 1.5,-9.7 -5.1,-3.3 -10.5,-7.6 -11.8,-13.9 -1.3,-4.2 0.4,-8.5 2.6,-12.1 -5.2,-4 -10.2,-9.5 -10.5,-16.4 -0.3,-3.6 1.5,-6.9 3.2,-10 -4.9,-4.4 -9.8,-10.1 -9.6,-17.2 -0.2,-3.7 1.8,-7 3.9,-9.9 -3.9,-4.5 -7.5,-10 -7,-16.2 0,-3.9 2.4,-7.3 5,-10 -2.8,-3.7 -5.2,-7.8 -5.9,-12.4 -1.1,-5.3 1.6,-10.5 5.6,-13.8 -3.4,-5.3 -6.3,-11.6 -4.8,-18.1 0.8,-4.2 4,-7.3 7.5,-9.4 -2.8,-5.8 -4.9,-12.5 -2.7,-18.8 1.2,-3.6 4.3,-6 7.4,-7.9 -2.4,-5.7 -4,-12.3 -2.1,-18.3 1.3,-4.1 4.7,-7 8.5,-8.6 -1.3,-4.8 -1.7,-9.9 -0.8,-14.7 1.2,-4.9 5.4,-8.5 10.2,-9.8 -1.4,-6.2 -1.6,-13.2 2.2,-18.5 2.1,-3.1 5.7,-4.5 9.2,-5.5 -0.2,-5.8 -0.1,-12.4 3.9,-17 2.6,-3.3 6.8,-4.6 10.9,-5 -0.4,-6.3 0.6,-13.3 5.2,-18 2.6,-2.8 6.6,-3.8 10.3,-4.2 0.2,-2.3 0.4,-4.6 0.8,-6.9 -2.2,-1.9 -4.3,-3.8 -6.3,-5.7 z m 359.1,8.5 c 4.8,3.4 10.3,6.1 16.1,7.2 5.5,1 11,-0.8 16.5,-1.4 6.7,-0.8 13.2,-2.7 19.6,-4.9 -1,-2.4 -1.8,-5.3 -4.3,-6.7 -5.3,-3.5 -12,-3.2 -18,-2.6 -10.2,1.6 -20.1,4.9 -29.9,8.4 z M 362,325.5 c 0,0.9 -0.1,2.6 -0.2,3.5 l 0.1,-0.6 c 2.9,4.1 6.9,7.3 10.5,10.8 0.3,-0.8 0.9,-2.4 1.2,-3.2 -2.4,-2.6 -5.1,-4.7 -7.7,-7 -1.3,-1.2 -2.6,-2.4 -3.9,-3.5 z m 366.7,2 c 3.8,5.1 7.9,9.9 11.6,15 2.6,0 5.3,-0.1 7.9,-0.2 -0.4,-2.9 -0.7,-6.1 -3,-8.2 -4.4,-4.3 -10.7,-5.6 -16.5,-6.6 z m -456,3 c -0.4,13 2.9,25.8 6.5,38.3 5.5,-6.7 9.8,-15.2 9,-24.1 -4.7,-5.3 -10.3,-9.5 -15.5,-14.2 z m 236.6,4.5 c -13.3,28.1 -26.4,56.3 -39.7,84.4 -18.4,-7.5 -36.6,-15.4 -55,-23 6.5,36.2 13.3,72.4 19.8,108.6 -20.8,-13.6 -40.9,-28.2 -61.9,-41.5 0,12.4 0,24.8 0,37.2 -18.3,0 -36.6,0 -54.9,0 12.3,13.1 25.1,25.8 37,39.3 -13.2,7.2 -26.2,14.5 -39.4,21.8 39.8,26.8 79.9,53.2 119.7,80.2 -13.1,13.2 -26.4,26.2 -39.3,39.5 36.1,0.2 72.1,-0.1 108.2,0.2 -0.1,10.6 -0.2,21.2 0,31.8 4.9,-0.1 9.8,-0.1 14.7,-0.1 0,-10.6 0,-21.3 0,-31.9 34.4,0 68.8,0.1 103.2,0 -11.9,-12.9 -24.5,-25.1 -36.5,-38 39.2,-27.3 78.5,-54.3 117.7,-81.6 -12.9,-7.5 -26.1,-14.7 -39,-22.2 12.8,-12.9 25.6,-25.8 38.2,-38.9 -18.4,-0.1 -36.8,0 -55.2,0 0,-12.5 0,-25 0,-37.4 -20.9,13.3 -41.2,27.5 -62,40.9 6.9,-36.4 14.1,-72.7 21.1,-109.1 -18.8,8.3 -37.4,17 -56.3,25.1 -13.4,-28.5 -26.8,-56.9 -40.4,-85.3 z m 254.2,0.7 c 4.6,6.8 10.4,13.4 18.5,16.1 9.6,3.1 19.6,4.8 29.7,5.4 0.9,-7.9 -5.9,-13.3 -12.6,-15.7 -11.3,-4.1 -23.6,-5 -35.6,-5.8 z M 257,354 c 0.2,12.8 5,24.9 9.1,36.9 4.9,-7.3 8.6,-16 7.1,-24.9 -1.5,-9.4 -3.7,-18.7 -6.7,-27.7 -7,1.7 -9.8,9.2 -9.5,15.7 z m 383.6,-11.4 c 4.8,4.3 10.3,8 16.4,10.1 4.4,-4.4 8.6,-9 12.5,-13.9 -9.8,0.4 -19.4,1.9 -28.9,3.8 z m -438.1,3.9 c -2.5,5.8 -1.6,12.4 0,18.2 2.8,9.8 6.9,19.2 11.7,28.2 3.5,-7.6 6.6,-16.2 4.5,-24.7 -2.4,-9.5 -5.8,-18.7 -9.8,-27.6 -2.5,1.5 -5.3,3 -6.4,5.9 z M 377,343.9 c 18,17.2 35.7,34.7 53.6,52 5.9,4.1 13.2,5.8 19.6,9.1 -23.3,-21.1 -46.7,-42.2 -70.1,-63.1 -1,0.6 -2.1,1.3 -3.1,2 z m 367.1,3.6 c 3.5,5.4 7.2,10.6 10.6,16 2.8,0 5.6,0.1 8.4,0.3 -0.2,-2.6 -0.1,-5.6 -2,-7.7 -4.1,-5.4 -10.9,-7.1 -17,-8.6 z m -452,11 c -0.2,-0.5 -0.7,-1.4 -0.9,-1.8 -3.2,7.8 -7.5,15.5 -14.1,21 -2.3,8.1 -6.7,15.3 -11.7,22 -1.7,7.5 -4.6,14.8 -8.5,21.5 -0.5,-0.2 -1.4,-0.5 -1.9,-0.7 -0.7,7.7 -3.3,14.9 -6.4,21.9 -0.4,-0.1 -1.1,-0.4 -1.5,-0.5 0.3,7.9 -1.7,15.7 -4.3,23.1 -0.4,-0.1 -1.2,-0.4 -1.7,-0.5 0.2,8.4 -0.3,17.1 -3.7,24.9 1.4,8.2 0.7,16.7 -1.3,24.7 1.9,7.8 3,16.2 1.1,24.2 2.5,7.6 3.7,15.6 3.3,23.7 l -1.6,-1 c 4.1,7.3 5.4,15.7 6.2,23.9 l -1.8,-0.2 c 4.4,7.3 6.8,15.6 7.5,24.1 4.8,6.7 7.4,14.7 9.4,22.6 4.9,6.3 9,13.3 11.4,20.9 -0.7,0 -2,-0.1 -2.7,-0.1 6.3,5 10.4,12.1 13.7,19.4 1.2,3.2 4.2,4.9 6.5,7.2 1.5,-1.3 3,-2.5 4.5,-3.7 -3.1,-4.3 -4.5,-9.7 -3.3,-15 -5.5,-2.2 -11.5,-4.8 -14.5,-10.2 -2.6,-4.2 -2.2,-9.5 -0.3,-13.8 -5.4,-2.5 -10.5,-6.4 -12.7,-12.2 -1.5,-4 -0.5,-8.4 1.3,-12.1 -4.1,-2.8 -7.9,-6.4 -9.7,-11.2 -1.5,-4.8 -0.8,-10.8 3.2,-14.2 -5.8,-4.1 -11,-10.7 -10.3,-18.3 0.1,-3.2 1.9,-5.9 3.7,-8.4 -3.3,-3.8 -6.5,-8 -7.3,-13.1 -1.1,-4.6 1.2,-9.2 4.1,-12.6 -3.1,-4.2 -6.1,-9 -5.8,-14.5 0,-4.6 2.6,-8.8 6.4,-11.3 -2.7,-5 -5.1,-11.1 -2.9,-16.7 1,-3.4 3.8,-5.8 6.5,-7.9 -2.8,-5.3 -4.3,-11.6 -2.2,-17.4 1.3,-3.7 4.6,-6 7.8,-8.1 0.4,0.6 1.3,1.7 1.8,2.2 -2.7,-6.2 -4.7,-13.4 -2.3,-20.1 1.4,-4.1 5.1,-6.8 9,-8.4 -1.1,-5.6 -2,-11.9 0.9,-17.1 1.8,-3.4 5.2,-5.6 8.8,-6.8 -0.7,-5.5 -0.8,-11.5 2.4,-16.3 2.2,-3.4 5.9,-5.3 9.7,-6 -0.2,-5.8 0,-12.3 4.3,-16.6 2.7,-3.2 6.9,-4.4 11,-4.3 0.1,-2.1 0.2,-4.1 0.3,-6.2 -2.1,-1.9 -4.1,-3.8 -6.2,-5.7 -1.6,1.8 -3.4,3.7 -5.2,5.7 z m 485.4,-1.7 c 3.3,5.4 6.6,11 11.9,14.8 6,4.3 13.3,6 20.3,8 4.5,1.4 9,2.4 13.6,3.2 2.2,-7.7 -4.4,-13.9 -10.8,-16.9 -10.9,-5.2 -23,-7.3 -35,-9.1 z m -534.1,10.4 c -2.7,8 0,16.4 2.8,23.9 3,7.4 6,14.8 10.3,21.4 3.1,-7.4 6.2,-15.7 3.9,-23.8 -2.6,-9.6 -5.9,-19 -10.3,-28 -2.8,1.6 -5.8,3.3 -6.7,6.5 z m 64.2,-5.3 c -0.1,13.2 4.2,26 8.5,38.4 4.4,-7.1 8.8,-15.2 7.5,-23.8 -4.9,-5.4 -10.7,-9.8 -16,-14.6 z m -118.4,19.5 c 2.9,12.5 9.8,23.5 16.4,34.4 2.9,-7.9 5.3,-16.8 2.1,-25 -3.5,-9 -7.2,-18 -12.1,-26.4 -6.7,2.6 -8,10.7 -6.4,17 z M 698.9,368 c -3,0.8 -5.7,2.1 -8.5,3.3 6.3,0.5 12.7,0.3 19,-0.6 l -0.8,-1.2 c -0.2,-0.6 -0.6,-1.7 -0.8,-2.2 -3,-0.4 -6,0.1 -8.9,0.7 z m -51.6,0.2 c 1.4,3.5 4.6,5.6 7.1,8.3 4,3.5 7.3,7.8 11.7,10.9 -0.7,-2.9 -3.3,-4.6 -5.2,-6.7 -4.5,-4.2 -8.5,-9.1 -13.6,-12.5 z m 65.7,0.3 c -0.2,1.8 -0.5,3.6 -0.8,5.4 6.9,1.8 14.3,5.6 17,12.6 1.1,3.5 0.9,7.5 -0.6,10.9 -0.9,0 -2.6,-0.1 -3.4,-0.1 5.4,2.2 10.6,5.5 13.6,10.6 2.6,4.2 2.2,9.6 0.4,14 5.5,3.1 11.1,7.3 13.1,13.6 1.8,4.7 0.5,10.3 -3.1,13.8 5.7,4.2 11,10.8 10.1,18.3 -0.1,2.9 -1.8,5.4 -3.3,7.7 6.1,5.5 12.1,13.9 8.7,22.4 -1.2,2.6 -3.3,7 -6.7,5.1 4.5,5.1 7.9,11.8 6.7,18.8 -0.6,3.5 -3.1,6.3 -5.5,8.7 3.5,5.1 6.6,11.1 5.9,17.5 -0.2,4.8 -3.6,8.6 -7.4,11.2 2.9,5.5 4.9,12 3,18.2 -1.1,3.9 -4.3,6.5 -7.6,8.6 3,6.3 3.7,13.7 1.7,20.4 1.3,1.2 2.6,2.3 3.9,3.6 1.5,-5.4 4.3,-10.1 6.8,-15 -0.6,-9.4 2.6,-18.2 5.7,-26.8 -1.6,-8.8 0.2,-17.7 2.3,-26.2 -1.3,-8.5 -2.4,-17.6 0.5,-25.8 -1.8,-7.5 -2.9,-15.3 -2,-23 0.2,0 0.7,0 1,-0.1 -3.9,-7.7 -4.3,-16.4 -5.2,-24.9 -3.2,-7.4 -6.3,-15.4 -5.7,-23.6 -3.9,-6.6 -6.4,-14 -7.9,-21.5 0.3,0 1,0.1 1.4,0.1 -4.9,-6.5 -7.5,-14.2 -12.2,-20.8 -7.5,-13.1 -16.6,-26.5 -30.4,-33.7 z m 44.6,0 c 3.6,5.4 6.7,11.2 9.8,17 3,0.4 6,0.8 9,1 -0.1,-2.9 -0.1,-6 -1.9,-8.4 -4.1,-5.4 -10.8,-7.5 -16.9,-9.6 z m -465,19.8 c 2.3,11.6 7.2,22.4 12.4,32.9 3.2,-7.3 6.7,-15.3 4.9,-23.4 -2.3,-10 -5.4,-19.9 -9.8,-29.2 -7.7,3.2 -8.9,12.4 -7.5,19.7 z m 318,14.1 c -2.4,12.4 -4.8,24.8 -7.2,37.2 19.8,-17.4 39.2,-35 58.7,-52.8 -5.3,-5.4 -10.7,-10.8 -16.1,-16.2 -11.8,10.6 -23.6,21.2 -35.4,31.8 z m 68.8,-22.9 c 4.4,4.1 9.1,8.6 15.1,10 10.2,2.5 20.7,3.7 31.2,3.9 0.4,-4.4 -1.5,-8.7 -5.2,-11 -9.7,-6.6 -22,-6.2 -33.2,-7 -3.4,-0.8 -5.6,2.2 -7.9,4.1 z m 109.7,-0.6 c 3.7,7.5 8.4,15.4 16.5,18.7 9.1,3.5 18,7.7 27.6,9.9 2.8,-7.5 -3.4,-14.1 -9.5,-17.4 -10.7,-5.9 -22.8,-8.6 -34.6,-11.2 z m -185.5,68.9 c -1,0.9 -2,1.8 -2.2,3.2 -1.2,5.9 -2.3,11.8 -3.4,17.7 4.3,3.6 8.4,7.5 12.7,11.2 14.2,-9.1 28.1,-18.7 42.2,-27.9 0,14.3 0,28.6 0,43 21.2,0 42.4,0 63.6,0 -13.2,14.3 -27.5,27.6 -40.8,41.9 3.9,3.3 7.5,7.1 12,9.5 8.9,5 17.8,10 26.6,15.1 -1.9,1.4 -3.9,2.8 -5.8,4.2 4,3.6 8,7 12.1,10.5 0.8,-1.5 1.5,-3 2.4,-4.4 0,-5.7 0.8,-11.4 2.4,-16.9 0.5,-1.9 1.2,-3.8 0.7,-5.7 -1.4,-7.7 -0.5,-15.6 1,-23.3 l 1.1,0.2 c -2.5,-8 -1.7,-16.4 -1.7,-24.6 -2.5,-7.2 -4.2,-14.7 -3.6,-22.3 0.6,-5 -2.7,-9.3 -3.6,-14.1 -1.4,-4.3 -0.8,-9.2 -3.7,-12.9 -4.2,-6.3 -6.5,-13.6 -8.2,-21 l 2.2,0.6 c -5.5,-6 -9.2,-13.4 -12,-21 -6.3,-6.4 -12.1,-13.7 -14.9,-22.4 -2.2,-2 -4.4,-4.1 -6.5,-6.2 -24.1,21.9 -48.3,43.9 -72.6,65.6 z m -373,-47.5 c 3.2,12.3 10,23.2 16.7,33.8 3.2,-8.3 5.2,-18 1.3,-26.5 -3.9,-8.3 -7,-17 -11.8,-24.8 -6.7,2.9 -7.9,11.1 -6.2,17.5 z m 96.9,-9.8 c -0.2,-0.5 -0.6,-1.5 -0.8,-2.1 -2.5,7.6 -6.5,15.1 -12.5,20.6 -1.5,5.4 -3.4,10.9 -6.3,15.8 -1.5,2.7 -3.6,5.2 -4,8.4 -1.2,6.1 -3.4,11.9 -6.3,17.4 -0.5,-0.8 -1.4,-2.4 -1.9,-3.2 -0.2,8.6 -2.3,17.1 -6,24.8 -0.2,-0.6 -0.7,-1.8 -1,-2.4 0.8,6.4 -0.2,12.9 -1.7,19.1 -0.6,2.7 -2,5.4 -1.3,8.2 0.9,6.4 0.7,12.9 -0.5,19.3 -0.4,0.4 -1.2,1.1 -1.5,1.5 1.9,7.3 2.2,14.9 1.6,22.4 l -1.3,-0.4 c 2.6,6.7 3.8,13.8 3.8,20.9 -0.8,-0.5 -2.3,-1.5 -3,-2 3.8,7.8 6.8,16.5 6.4,25.3 3.9,6.3 5.7,13.6 7.6,20.7 4.6,6.4 8.8,13.2 11,20.9 -0.6,-0.2 -1.8,-0.5 -2.4,-0.6 6,5.7 11,12.8 13.6,20.7 1.3,1.1 2.6,2.3 4,3.4 15.5,-14.1 31.3,-28 46.9,-42 -22.6,-15.3 -45.4,-30.3 -68.1,-45.5 13.7,-7.8 27.6,-15.3 41.3,-23.1 -13.7,-14.6 -27.6,-29 -41.3,-43.6 21,0 42,0 63,0 0,-14.3 -0.1,-28.7 0,-43 19.8,13.5 39.7,26.8 59.4,40.3 -1.6,-8.8 -3.1,-17.7 -4.9,-26.5 -0.4,-2.5 -2.6,-3.9 -4.2,-5.5 -28,-25.2 -56,-50.4 -84,-75.6 -2,1.9 -3.8,3.8 -5.6,5.8 z m -148.4,4.6 c -1.6,6.1 0.2,12.5 2.7,18 4.2,9.3 9.7,18 15.8,26.2 2.4,-8 4.1,-16.9 0.8,-24.9 -3.7,-9 -8.5,-17.4 -13.6,-25.7 -2.4,1.5 -5,3.4 -5.7,6.4 z m 102,0.4 c -2.7,6.3 -0.7,13.3 1.5,19.4 3.8,9.4 8.7,18.3 14.4,26.6 2.5,-7.7 5.5,-16.7 1.3,-24.3 -4.5,-8.7 -6.6,-18.5 -11.6,-27 -2.1,1.4 -4.6,2.7 -5.6,5.3 z m 490,-2.7 c 2.7,5.8 5.5,11.6 7.9,17.5 1.8,0.4 3.7,0.8 5.5,1.2 2.3,-9.2 -6.2,-15.4 -13.4,-18.7 z m -81.4,0.8 c 4.5,7.6 10.4,15.2 19.2,18 9,2.6 18,5.5 27.3,6.9 1.9,-7.9 -5,-13.9 -11.4,-16.8 -11.1,-4.7 -23.3,-6.4 -35.1,-8.1 z m 110.9,7.2 c 2.2,6.1 4.9,12.4 9.6,17.1 5.3,5 12.1,7.8 18.5,11 4,2 8.2,3.8 12.5,5.3 3.7,-7.9 -2.8,-15.3 -9.1,-19.4 -9.6,-6.2 -20.5,-10.4 -31.5,-14 z m -578.9,25.3 c 4.4,11.4 11.8,21.3 19.1,31 1.8,-6.4 2.7,-13.1 1.5,-19.7 -1.3,-5.8 -5,-10.7 -7.6,-16 -2.6,-5 -5.5,-9.8 -8.7,-14.4 -7.2,3.4 -6.7,12.7 -4.3,19.1 z m 48.3,-7.3 c -1.9,7.6 1.2,15.2 4.5,21.9 4.1,7.8 8.7,15.4 14.2,22.3 1.7,-5.9 3.1,-12 2.3,-18.1 -0.5,-5.1 -3.1,-9.5 -5.5,-13.9 -3.4,-6.1 -6.1,-12.7 -9.9,-18.6 -2.3,1.6 -4.8,3.4 -5.6,6.4 z m -100.5,3.8 c -0.4,7.1 3.1,13.6 6.8,19.4 5,7.5 10.5,14.7 16.8,21.2 1.5,-8.3 2.1,-17.4 -2.2,-24.9 -4.8,-8.4 -10.1,-16.6 -16.4,-24 -2.5,2.1 -5,4.7 -5,8.3 z m 534.7,-7.3 c 3.3,7.5 8.1,14.8 15.5,18.6 8.9,4.6 18.6,7.6 28.2,10.2 3,-7.4 -3.2,-14 -9.2,-17.4 -10.6,-5.9 -22.7,-8.7 -34.5,-11.4 z m 77.7,1.9 c 2.5,6.1 4.8,12.2 6.9,18.4 1.8,0.5 3.6,1.1 5.4,1.6 0.5,-2.5 1.5,-5.1 0.4,-7.5 -2,-5.9 -7.6,-9.4 -12.7,-12.5 z m 26.3,7.4 c 1.5,5.8 3.7,11.4 7.4,16.2 4.1,5.3 10.3,8 15.9,11.5 4.9,3 9.9,5.7 15.3,7.9 0.8,-2.6 2.2,-5.4 1.1,-8.2 -2.1,-6.6 -7.8,-11.2 -13.5,-14.8 -8.3,-5.1 -17.2,-9 -26.2,-12.6 z M 212.5,438 c -1.2,6.3 1.5,12.5 4.5,17.9 5.3,9 11.9,17 18.9,24.7 0.9,-5.7 1.6,-11.6 0.6,-17.3 -0.9,-4.7 -3.2,-8.9 -5.9,-12.7 -4.5,-6.3 -8.2,-13.2 -13.4,-19.1 -2,1.8 -4.3,3.7 -4.7,6.5 z m 49.9,17.6 c 4.9,11.4 13,21 20.9,30.5 1,-5.8 2.1,-11.7 0.9,-17.6 -1.1,-6.4 -5.4,-11.4 -8.5,-16.8 -3,-5.2 -6.2,-10.3 -10,-15 -6.7,3.8 -6.1,12.6 -3.3,18.9 z m 451.2,-18.1 c 2,5.8 4.5,11.7 8.7,16.3 4.5,4.9 10.9,7.4 16.7,10.5 4.8,2.6 9.7,5 14.9,6.9 3.7,-7 -1.5,-14.1 -7,-18.2 -10.1,-7.3 -21.8,-11.4 -33.3,-15.5 z M 167.8,440 c -1.9,2.2 -4.2,4.4 -4.3,7.5 -0.6,6.5 2.6,12.6 6.1,17.8 5.7,8.2 12.3,15.7 19.6,22.6 0.5,-4.5 1,-9 0.3,-13.5 -0.7,-6.5 -4.1,-12.4 -8,-17.5 -4.3,-5.8 -8.6,-11.7 -13.7,-16.9 z m 624,3.9 c 2.1,6.2 3.4,12.6 5.8,18.7 2.3,2.4 3.5,-1.7 3.7,-3.5 0.2,-6.5 -5.1,-11.2 -9.5,-15.2 z m 22.7,4 c 1.4,6.2 2.9,12.6 6.7,17.9 4,5.5 9.9,9.2 15.5,13.1 4.2,2.9 8.5,5.7 12.9,8.2 1.1,-2.5 2.8,-5.2 2,-8 -1.3,-6.3 -6,-11.1 -10.8,-15 -8,-6.4 -17.1,-11.4 -26.3,-16.2 z m -604.9,29.4 c 6,11 15.1,19.9 23.9,28.6 1.1,-8.7 0.6,-18.1 -4.5,-25.6 -5.4,-7.8 -11.4,-15.1 -17.9,-22.1 -6,4.7 -4.8,13.2 -1.5,19.1 z m 559.6,-16.7 c 1.1,2.2 2.1,4.3 3.3,6.4 0,-2.2 -0.4,-4.4 -1.4,-6.3 -0.5,0 -1.4,-0.1 -1.9,-0.1 z m -46.5,0.6 c 1.9,7.3 4.2,15 10,20.1 8.2,6.9 17.3,12.6 26.9,17.4 1,-2.6 2.4,-5.4 1.5,-8.3 -1.7,-6.1 -6.5,-10.7 -11.5,-14.4 -8.3,-6 -17.6,-10.6 -26.9,-14.8 z m -466.2,2.2 c -4.3,5 -3.9,12 -0.8,17.4 6.3,11.5 16.4,20.3 26,29 0.3,-8.5 0.1,-17.8 -5.4,-24.7 -6,-7.7 -11.6,-16.1 -19.8,-21.7 z m -94.6,21.4 c 6.6,11 16.7,19.3 26.3,27.6 0.3,-8.6 -0.5,-18 -6.2,-24.9 -6.2,-7.3 -12.3,-14.6 -19.5,-21 -5.4,4.8 -4.1,12.7 -0.6,18.3 z M 799.8,472 c 1.3,5.8 2.6,11.5 4.1,17.3 3.4,-6.1 -0.2,-12.6 -4.1,-17.3 z m 18.6,0.6 c 1,6.4 2.3,13 5.9,18.5 3.1,4.7 7.9,7.9 12.1,11.5 4.8,4 9.7,7.9 15.1,11.1 1.2,-2.7 3,-5.5 2.2,-8.6 -1.1,-5.4 -4.6,-9.9 -8.4,-13.6 -8.1,-7.5 -17.5,-13.3 -26.9,-18.9 z m -221.8,2.2 c -1,5.5 -2.1,11 -3.2,16.5 4.2,-2.6 8.4,-5.4 12.5,-8.2 -3.2,-2.7 -6.3,-5.4 -9.3,-8.3 z m 176.2,0.6 c 0.9,7.6 2.7,15.5 7.9,21.5 1.4,2.1 3.1,3.9 5,5.5 -0.5,-2.4 -1.4,-4.8 -2.5,-7 -1.4,-4.1 -4.1,-7.5 -6.9,-10.7 0.4,-0.6 1.1,-1.8 1.5,-2.4 2.6,-0.4 0.9,-6.1 -1.6,-5.1 -1.1,-0.6 -2.3,-1.2 -3.4,-1.8 z m -45.9,7.9 c 0.7,6.4 1.7,13.1 5.1,18.8 3.5,5.8 9.1,9.7 14,14.1 3.8,3.5 7.7,6.8 12.1,9.5 4.7,-5.9 2,-13.8 -2.4,-19 -8.1,-9.5 -18.5,-16.6 -28.8,-23.4 z m -521.3,2.4 c -1.5,2.4 -3.3,4.8 -3.1,7.8 0.4,5.9 3.7,11 7.4,15.4 7.2,8 15.5,14.9 24.2,21.1 -0.4,-6.4 -0.9,-13 -3.8,-18.9 -2.6,-5 -6.9,-8.8 -10.6,-12.9 -4.4,-4.6 -9,-8.8 -14.1,-12.5 z m 44.2,7.1 c -2.1,6.4 2.1,12.7 5.9,17.6 7.4,8.6 16.5,15.5 25.7,22 -0.6,-6.4 -1.1,-13 -4.1,-18.7 -2.5,-4.7 -6.8,-8.1 -10.4,-11.9 -4.5,-4.3 -8.5,-9.1 -13.8,-12.5 -2,-1 -2.5,2.3 -3.3,3.5 z m -90.2,0.2 c -1.7,2.6 -3.6,5.4 -3,8.7 0.8,6.9 5.4,12.7 10,17.6 6.6,6.6 13.8,12.6 21.4,18 -0.2,-5.9 -0.7,-12 -3.1,-17.4 -2,-4.4 -5.1,-8.2 -8.5,-11.5 C 171,503 165.8,497.5 159.6,493 Z m 662.9,4.3 c 0.3,6.5 0.8,13.2 3.8,19.1 3.3,6.3 8.8,10.9 13.7,15.8 3.4,3.4 7,6.5 10.7,9.5 5.4,-5.4 3,-13.7 -1,-19.2 -7.2,-10.1 -17.4,-17.7 -27.2,-25.2 z m -46.5,3 c 0.5,6.3 1.1,12.8 4.1,18.5 2.9,5.6 7.8,9.6 12.1,14 4.1,4.1 8.6,7.8 13.3,11.3 1.5,-2.4 3.3,-4.9 2.9,-7.9 -0.6,-7.3 -5.6,-13.2 -10.6,-18.1 -6.7,-0.6 -8,-8 -13,-11.1 -2.9,-2.4 -5.9,-4.5 -8.8,-6.7 z m 31,5.5 c -1,0.8 -1.1,3.8 0.6,3.7 1,-0.9 1.1,-3.8 -0.6,-3.7 z m -76.5,3.3 c 0,5.5 0.2,11 2.1,16.2 1.7,5.1 5.3,9.3 8.9,13.2 5.2,5.4 10.2,11.2 16.4,15.5 1.6,-2.6 3.5,-5.3 3.1,-8.5 -0.5,-5.8 -3.9,-11 -7.5,-15.4 -6.8,-7.9 -14.9,-14.6 -23,-21 z m -523.7,21.8 c 8.1,9.8 19,16.6 29.5,23.5 -0.8,-6.3 -1.8,-12.8 -5.1,-18.3 -3.3,-5.6 -8.8,-9.3 -13.6,-13.5 -4.1,-3.6 -8.4,-7.1 -12.9,-10.1 -5,5.5 -2.1,13.4 2.1,18.4 z m 41.5,-17.4 c -0.9,2.6 -2.5,5.3 -1.7,8.2 1.4,6 5.7,10.8 10.3,14.7 8,6.6 17,11.8 26,16.8 -1.6,-7.8 -3.2,-16.9 -10.3,-21.7 -8.3,-5.8 -14.9,-14 -24.3,-18 z m -91.1,5.6 c -4.3,6.6 -0.7,14.5 4.2,19.6 8.4,8.7 18.7,15.2 29.1,21.2 -1.1,-8.7 -3.5,-18.4 -11.2,-23.7 -7.6,-5.5 -13.6,-13 -22.1,-17.1 z m 665.2,3.4 c -0.1,6 -0.1,12.2 2.3,17.9 2.6,6.7 8.1,11.5 12.7,16.8 3.4,3.7 6.7,7.6 10.8,10.5 3.2,-2.4 4.4,-6.7 3.4,-10.5 -1.5,-6.9 -6,-12.6 -10.7,-17.7 -5.7,-6.1 -11.8,-11.8 -18.5,-17 z m -45.8,1.8 c -0.5,8.5 -0.1,17.8 5.4,24.8 6.1,7.6 11.9,15.5 19.5,21.7 1.5,-2.3 3.5,-4.5 3.6,-7.4 0.3,-7.5 -4.3,-13.9 -8.8,-19.4 -6,-7.2 -12.7,-13.6 -19.7,-19.7 z m -46.6,9.5 c -0.6,6.7 -0.7,13.7 2,20.1 2.1,5.1 5.8,9.1 9.1,13.4 3.7,4.8 7.4,9.5 11.8,13.8 1.9,-2 4,-4.2 4.2,-7.1 0.6,-7.3 -3.6,-13.9 -7.7,-19.5 C 743.5,546.9 737,540 730,533.8 Z M 250,538 c -1.2,2.7 -2.8,5.6 -1.7,8.6 1.9,6.6 7.2,11.4 12.6,15.3 8,5.5 16.5,10.2 25.3,14.1 -1.6,-6.5 -3.5,-13.2 -7.9,-18.4 -2.7,-3.3 -6.4,-5.5 -10,-7.7 -6.2,-3.8 -11.8,-8.5 -18.3,-11.9 z m -39.9,20.5 c 8.8,8.1 19.5,13.9 30.1,19.4 -1.4,-6.8 -3.2,-13.9 -7.8,-19.3 -3.9,-4.5 -9.1,-7.4 -13.8,-10.9 -4.3,-3.3 -8.8,-6.3 -13.5,-8.9 -4.7,6.7 -0.3,14.8 5,19.7 z m -50.8,-13 c -1.5,2.8 -2.7,6 -1.7,9.3 1.7,5.6 6,10.1 10.5,13.7 8.1,6.4 17.1,11.5 26.3,16 -1.1,-4.9 -2.2,-9.8 -4.5,-14.2 -2.7,-5.3 -7.3,-9.3 -12,-12.7 -6.1,-4.2 -12.1,-8.5 -18.6,-12.1 z m 662.1,1.3 c -0.7,6.8 -1.2,14 1.5,20.5 2.6,6.4 7.2,11.6 11.3,17 2.7,3.7 5.7,7.2 8.9,10.4 1.9,-2.4 4.2,-4.8 4.3,-8 0.2,-5.2 -1.9,-10.3 -4.6,-14.7 -6,-9.3 -13.5,-17.5 -21.4,-25.2 z m -45.3,2.5 c -1.3,7.6 -2.2,15.8 1.2,23 4.8,9.3 10.6,18.1 17.5,26.1 2.3,-2.2 4.7,-4.7 5,-8.1 0.4,-5.6 -1.9,-11 -4.5,-15.8 -5.3,-9.2 -12.1,-17.4 -19.2,-25.2 z M 728,563 c -1.4,8 -1,17.2 4.5,23.7 6.1,5.7 12.6,11.1 18.9,16.7 1,-5.7 0,-11.5 -2.7,-16.6 -5.1,-10 -12.2,-18.7 -19.5,-27.1 -1.2,0.6 -0.9,2.2 -1.2,3.3 z m -475.3,1 c -0.6,3.2 -1.6,6.6 0,9.7 2.3,4.9 6.6,8.5 11.1,11.4 9,5.6 18.9,9.7 28.9,13.3 -2.4,-7.1 -5.3,-14.5 -11.3,-19.2 -4.1,-3.1 -9,-5.1 -13.4,-7.8 -4.9,-2.8 -9.9,-5.6 -15.3,-7.4 z m -45.1,0.7 c -4.3,7.5 1.4,15.3 7.2,19.9 9.3,7.1 20,12.1 30.7,16.6 -1.7,-6 -3.8,-12.2 -7.8,-17.1 -4.2,-5.2 -10.4,-7.9 -15.9,-11.3 -4.5,-3.1 -9.2,-5.9 -14.2,-8.1 z m 454.8,32.7 c 14,14 28.1,28 42.3,41.7 27.7,27.1 55.2,54.3 83.6,80.6 1.6,1.3 3.6,3.6 5.9,2.2 7.2,-3.3 12.9,-9.1 18.9,-14.2 7.5,-7.1 15.2,-14.2 20.6,-23 -16,-14.6 -32.2,-29 -48.4,-43.4 -27.4,-24 -54.4,-48.4 -81.9,-72.1 -13.8,9.1 -27.3,18.9 -41,28.2 z m 155.1,-26.1 c -1.2,8 -2.1,16.7 1.8,24.1 4.5,9 10.6,17.1 17,24.9 1.9,-1.8 4.1,-3.6 4.6,-6.4 1.3,-6.3 -1.4,-12.6 -4.4,-17.9 -5.3,-8.9 -12,-17 -19,-24.7 z m -655.4,1.3 c -0.8,2.7 -1.9,5.7 -0.8,8.5 2.1,6.3 7.7,10.7 13.1,14.2 8.4,5.2 17.4,9.2 26.6,12.8 -1.8,-5.7 -3.8,-11.6 -7.6,-16.4 -3,-3.9 -7.3,-6.4 -11.4,-8.8 -6.5,-3.7 -12.8,-7.8 -19.9,-10.3 z m 611.2,2.4 c -2.6,7.5 -4.9,15.7 -2.4,23.5 3,9.8 7.7,19 12.7,27.9 2.1,-1.5 4.6,-2.8 5.6,-5.3 2.4,-5.5 1.1,-11.8 -0.8,-17.3 -3.7,-10.2 -9.2,-19.7 -15.1,-28.8 z m -514.8,16.5 c -2.3,7.6 3.7,14.1 9.9,17.4 10.7,5.8 22.7,8.5 34.5,11.1 -3.7,-7.2 -8.1,-14.7 -15.5,-18.4 -9.3,-4.3 -18.9,-8 -28.9,-10.1 z M 221.2,610 c 10,7 21.7,11.2 33.1,15.1 -2.9,-8.1 -6.9,-16.3 -14.5,-20.9 -8.3,-4.9 -16.9,-9 -25.8,-12.6 -4.3,7.1 1.6,14.4 7.2,18.4 z m 591.3,-13.5 c -1.8,6.2 -3.1,12.9 -1.5,19.4 1.3,6 4.9,11.2 7.7,16.7 2.4,4.8 5.3,9.3 8.4,13.8 4.2,-2.5 6.6,-7.3 5.9,-12.2 -1.5,-11.5 -8.5,-21.1 -14.7,-30.5 -2,-2.5 -3.3,-5.5 -5.8,-7.2 z m -644.7,2.1 c -3.2,7.2 1.9,14.2 7.6,18.2 10,7.1 21.6,11.2 33.1,15.1 -2.1,-6 -4.7,-12 -9.1,-16.7 -3.9,-3.9 -8.7,-6.5 -13.6,-8.8 -5.9,-2.8 -11.7,-6 -18,-7.8 z m 486.5,3.4 c 1.9,2 4.1,3.7 6.5,5.2 -1.7,-2.4 -3.8,-4.4 -6.5,-5.2 z m 107.9,11.2 c 5,4 9.6,8.4 14.5,12.7 -3.1,-8 -6.3,-16 -10.2,-23.7 -1.6,3.5 -3.1,7.2 -4.3,11 z m -153,21 c 14.3,14.4 29,28.6 43.3,43 29.7,28.6 58.7,57.9 89.1,85.8 1.8,1.5 3.9,4.1 6.6,2.8 6.8,-2.9 12.1,-8.3 17.7,-13 7.8,-7.5 16,-14.7 21.8,-23.9 -12.1,-11.6 -24.8,-22.6 -37.3,-33.8 -33.5,-29.7 -67.1,-59.3 -100.6,-89 -13.5,9.4 -27,18.8 -40.6,28.1 z m -300,36.4 c 6,5.8 11.7,11.9 17.9,17.6 24,-20.8 47.6,-42.1 71.2,-63.4 -6.9,-5 -14.2,-9.5 -21.2,-14.4 -22.8,20 -45,40.5 -67.9,60.2 z m -42.6,-54.7 c -1.5,7.4 4.5,13.3 10.8,16.1 11.4,5.1 23.9,6.6 36.2,8.1 -3.6,-5.6 -7.5,-11.2 -13.2,-14.8 -4.9,-2.9 -10.6,-3.7 -15.9,-5.4 -5.9,-1.9 -11.8,-3.4 -17.9,-4 z m -46.1,2.7 c -0.4,2.8 -1,5.7 0.4,8.3 2.6,5.1 7.7,8.3 12.7,10.7 10,4.4 20.7,7 31.4,9 -2.9,-5.2 -5.9,-10.7 -10.5,-14.6 -4.5,-3.9 -10.3,-5.6 -15.7,-7.8 -5.9,-2.4 -12.1,-4.2 -18.3,-5.6 z m 585.4,0.7 c -4.4,10.5 -5.2,23.2 1.2,33.1 4.5,4.8 9.8,8.8 14.6,13.2 1.2,-5.4 1.1,-11 -0.7,-16.2 -3.5,-10.7 -9.1,-20.6 -15.1,-30.1 z m -633.8,5.1 c -2.2,8 4.4,14.5 10.9,17.8 10.6,5.3 22.2,7.9 33.8,10.3 -3.7,-7.3 -8.3,-14.9 -16.1,-18.3 -9.3,-4.1 -18.7,-8 -28.6,-9.8 z m 106.2,16.2 c -0.3,4.1 1.2,8.1 4.6,10.5 8.5,6.4 19.7,6.9 29.9,7.6 3.5,-1 5.6,-4.6 8.5,-6.7 -3.9,-3.6 -8.4,-6.7 -13.6,-7.9 -9.7,-2 -19.5,-3.6 -29.4,-3.5 z m 518.2,2.1 m -554.6,17.4 c 11,4.9 23,6.9 34.8,8.6 -3.3,-5.5 -6.9,-11.1 -12.2,-14.8 -5.8,-4.1 -12.9,-5.6 -19.6,-7.6 -4.6,-1.4 -9.3,-2.4 -14.1,-3.3 -2.3,8 4.6,14.1 11.1,17.1 z m -59.4,-11.3 c -1.9,7.5 4.1,13.6 10.4,16.6 11.2,5.3 23.6,7.2 35.7,9.1 -2.9,-4.8 -6,-9.6 -10.3,-13.3 -4.3,-3.7 -9.9,-5.7 -15.3,-7.3 -6.7,-1.9 -13.5,-3.9 -20.5,-5.1 z m 111.8,12.8 c 0.1,2.5 -0.1,5.3 1.1,7.6 0.6,1.1 1,2.9 2.7,2.4 4,-2.6 7.5,-5.9 11.3,-8.7 -5,-0.5 -10.1,-1.1 -15.1,-1.3 z m -53,6.8 c -0.5,4.6 1.7,9.1 5.7,11.5 10,6.4 22.4,6.4 33.8,7 1.6,-1.8 3.3,-3.6 4.9,-5.3 -3.7,-3.8 -7.8,-7.5 -13.1,-8.8 -10.2,-2.4 -20.7,-4.3 -31.3,-4.4 z m 64.1,3 c 2.1,3.6 5.4,6.2 8.2,9.2 4.2,4.1 8.3,8.2 12.9,11.9 -0.2,-0.6 -0.7,-1.8 -0.9,-2.4 -4.1,-4.2 -8.5,-8.1 -12.5,-12.4 -2.5,-2.2 -4.4,-5.3 -7.7,-6.3 z m -111.3,2 c -1.2,8.1 6.1,13.4 12.8,15.8 11.4,3.9 23.6,4.6 35.5,5.4 -3.9,-5.4 -8.2,-10.8 -14.1,-14 -5.3,-2.9 -11.4,-3.5 -17.2,-4.8 -5.6,-1.2 -11.3,-2.1 -17,-2.4 z m 68.4,47.4 c -6.5,9.4 -14.5,17.6 -20.7,27.1 10.1,-4.2 19.4,-10 28.7,-15.6 10.4,-6.6 21.1,-12.5 31.2,-19.6 8.1,-5.5 13.8,-13.7 20.9,-20.3 -5.9,-6.1 -12.4,-11.8 -18.3,-17.9 -17.7,11.6 -29.8,29.3 -41.8,46.3 z m -2.2,-28.9 c -0.9,5.3 1.8,10.2 5.9,13.3 3.2,-4.2 6.3,-8.4 9.6,-12.6 -5.2,-0.4 -10.3,-0.8 -15.5,-0.7 z m -52.4,4.2 c -0.5,6 4,12.8 10.4,12.6 13.2,0.2 26.5,1.6 38.9,6 -3.6,-4.7 -7.7,-9.2 -12.8,-12.3 -6.2,-3.5 -13.3,-4.3 -20.3,-5.1 -5.3,-0.7 -10.8,-1.2 -16.2,-1.2 z m 11.2,16.7 c -0.1,3.4 0.4,7.1 3.1,9.5 6.7,6.3 16.2,7.4 24.9,8.5 3.1,-3.7 6.1,-7.5 8.9,-11.4 -11.5,-5.3 -24.5,-5.8 -36.9,-6.6 z m 12.6,19.7 c 0.9,3.4 2,9.1 6.7,8.6 2.5,-1.5 3.8,-4.4 5.8,-6.5 -4.3,-0.4 -8.4,-1.2 -12.5,-2.1 z"
   id="path6" />&#10;		</g>&#10;		<g
   id="g8">&#10;			<path
   fill="#040404"
   d="m 289.8,692.7 c 6.2,-1.8 13.3,3.2 13.3,9.8 0.7,6.4 -5.3,12.2 -11.6,11.4 -6.5,-0.4 -11.5,-7.5 -9.4,-13.7 1,-3.7 4.1,-6.5 7.7,-7.5 z m -6,11 c 0.1,4.8 4.6,7.7 8.9,8.7 5.3,-1 10.4,-6.3 8.1,-11.9 -1,-3.9 -4.9,-5.5 -8.4,-6.4 -4.6,0.9 -9.2,4.5 -8.6,9.6 z"
   id="path7" />&#10;		</g>&#10;		<path
   fill="#ffffff"
   d="m 685.1,342.4 c 5.8,-2 12.7,3 12.1,9.3 0.2,5.3 -4.9,9.6 -9.9,9.5 -4.6,-0.6 -8.9,-4.5 -8.9,-9.4 -0.2,-4.3 2.7,-8.2 6.7,-9.4 z"
   id="path8" />&#10;		<path
   fill="#ffffff"
   d="m 647.3,368.2 c 5.2,3.4 9.1,8.3 13.6,12.5 1.9,2.1 4.5,3.8 5.2,6.7 -4.4,-3.1 -7.7,-7.4 -11.7,-10.9 -2.5,-2.6 -5.8,-4.8 -7.1,-8.3 z"
   id="path9" />&#10;		<path
   fill="#ffffff"
   d="m 305.4,671.4 c 3.3,1 5.3,4.1 7.7,6.3 4,4.3 8.4,8.2 12.5,12.4 0.2,0.6 0.7,1.8 0.9,2.4 -4.6,-3.6 -8.7,-7.8 -12.9,-11.9 -2.9,-3 -6.2,-5.6 -8.2,-9.2 z"
   id="path10" />&#10;		<path
   fill="#ffffff"
   d="m 283.8,703.7 c -0.6,-5.2 4.1,-8.7 8.6,-9.7 3.5,0.9 7.4,2.5 8.4,6.4 2.3,5.6 -2.8,10.9 -8.1,11.9 -4.3,-0.9 -8.9,-3.7 -8.9,-8.6 z"
   id="path11" />&#10;		&#10;		&#10;		&#10;		&#10;		&#10;		&#10;		&#10;		&#10;		&#10;		&#10;		&#10;		&#10;		&#10;		&#10;		&#10;		<path
   fill="#3a3a3c"
   d="m 618.3,273.9 c 1.1,-1 3.4,0.6 2.6,2 -1.2,1 -3.5,-0.7 -2.6,-2 z"
   id="path27" />&#10;		<g
   id="g28">&#10;			<path
   fill="#3a3a3c"
   d="m 684.1,340.1 c 4.1,-0.9 9,-0.5 12.1,2.8 5.7,5.2 4.3,16.2 -3,19.3 -6.3,3.6 -15.2,-0.6 -16.8,-7.5 -1.9,-6 1.8,-12.7 7.7,-14.6 z m 1,2.3 c -4,1.2 -6.9,5.1 -6.7,9.3 -0.1,4.9 4.3,8.8 8.9,9.4 5.1,0.1 10.1,-4.2 9.9,-9.5 0.6,-6.2 -6.3,-11.2 -12.1,-9.2 z"
   id="path28" />&#10;		</g>&#10;		<path
   fill="#3a3a3c"
   d="m 776.2,477.2 c 2.5,-1.1 4.2,4.7 1.6,5.1 -0.5,-1.7 -1,-3.4 -1.6,-5.1 z"
   id="path29" />&#10;		<path
   fill="#3a3a3c"
   d="m 783.2,495.4 c 1.1,2.2 1.9,4.6 2.5,7 -1.9,-1.6 -3.6,-3.4 -5,-5.5 1,0.9 2.9,2.7 3.9,3.6 -0.4,-1.3 -1.1,-3.8 -1.4,-5.1 z"
   id="path30" />&#10;		<path
   fill="#3a3a3c"
   d="m 807,505.8 c 1.7,-0.1 1.6,2.8 0.6,3.7 -1.7,0.1 -1.5,-2.9 -0.6,-3.7 z"
   id="path31" />&#10;		<path
   fill="#3a3a3c"
   d="m 654.3,602 c 2.8,0.8 4.9,2.8 6.5,5.2 -2.4,-1.5 -4.6,-3.2 -6.5,-5.2 z"
   id="path32" />&#10;		<path
   fill="#3a3a3c"
   d="m 330.7,693.2 c 24.7,-21.4 49,-43.2 73.2,-65.2 7.3,4.8 14.3,10 21.6,14.7 -14.2,15.2 -29.4,29.4 -43.6,44.5 38.6,0.4 77.3,0 116,0.2 0,10.6 -0.1,21.2 0,31.8 8.8,0.1 17.6,0.1 26.4,0 0.1,-10.6 -0.1,-21.3 0.2,-31.9 37.1,0 74.1,0.2 111.2,-0.1 -13.5,-14.5 -27.6,-28.5 -41.3,-42.8 2.8,-2 5.7,-3.9 8.6,-5.8 30,30.4 60.4,60.4 90.9,90.3 -36.2,31.9 -78.7,57.7 -125.7,69.9 -36,9.7 -74,9.2 -110.5,3.2 -44.4,-7.4 -87.1,-25.5 -122.8,-52.9 -11.8,-8.8 -22.5,-18.9 -32.9,-29.3 11.5,-6.5 18.7,-18.1 28.7,-26.6 z"
   id="path33"
   style="display:none" />&#10;		<g
   id="g172">&#10;			<path
   fill="#f99e39"
   d="m 478.5,180.7 c 4.1,-4.4 9,-8.6 15.1,-9.7 3,-0.8 5.8,1 8.4,2.4 -3.1,5.1 -6.7,9.8 -10.6,14.3 -3.9,4.4 -7.2,9.5 -12.2,12.7 -5.5,3.5 -12.1,4.8 -18.4,5.7 5.2,-9 10.8,-17.7 17.7,-25.4 z"
   id="path34" />&#10;			<path
   fill="#f99e39"
   d="m 506,178.7 c 4.5,-3.9 9.9,-7.4 16,-7.9 3.1,-0.2 5.6,1.6 8,3.3 -6.9,8.2 -13.8,16.5 -22.7,22.6 -6.4,4.4 -14.3,5.3 -21.8,5.3 6.2,-8.3 12.8,-16.4 20.5,-23.3 z"
   id="path35" />&#10;			<path
   fill="#f99e39"
   d="m 456,179.5 c 4.9,-5.1 12.7,-9.1 19.5,-5 -3,6.1 -7.1,11.5 -11,17 -3.4,4.8 -7.1,9.6 -12.2,12.7 -5,2.9 -10.6,4.3 -16.2,5.4 5.6,-10.6 11.5,-21.4 19.9,-30.1 z"
   id="path36" />&#10;			<path
   fill="#f99e39"
   d="m 526.1,185.7 c 5.7,-5.7 12.4,-11.3 20.7,-12.5 3.7,-0.7 7.1,1.3 9.6,3.9 -3.5,3.6 -6.9,7.3 -10.8,10.5 -5.2,4.3 -9.8,9.4 -16,12.2 -6,2.6 -12.7,2.7 -19.2,2.7 4.8,-6 10.4,-11.3 15.7,-16.8 z"
   id="path37" />&#10;			<path
   fill="#f99e39"
   d="m 429.6,184 c 4.4,-5.4 11.9,-10.4 18.9,-6.4 -3.7,8.6 -8.8,16.4 -13.7,24.3 -4.9,7.8 -13.8,11.7 -22.3,14 4.7,-11.1 9.5,-22.4 17.1,-31.9 z"
   id="path38" />&#10;			<path
   fill="#f99e39"
   d="m 558.3,183.6 c 5,-3.3 10.8,-6 17,-5.6 2.9,0.3 6,1.8 7.1,4.6 -3.4,3.8 -7.7,6.7 -11.7,9.8 -6,4.5 -12,9.5 -19.4,11 -5.5,1.3 -11.1,0.8 -16.6,0.1 7.4,-7.1 15,-14.2 23.6,-19.9 z"
   id="path39" />&#10;			<path
   fill="#f99e39"
   d="m 401.3,194.4 c 3.2,-5.2 7.3,-10.4 13.3,-12.3 2.7,-1.1 5.4,0.1 8,1 -4,9.3 -8.1,18.6 -13.7,27 -4.7,6.8 -12.5,10.5 -20.2,13 3.4,-9.8 7.2,-19.7 12.6,-28.7 z"
   id="path40" />&#10;			<path
   fill="#f99e39"
   d="m 588.4,186.7 c 6.4,-3 15.9,-4.5 20.2,2.6 -4.3,3.6 -9,6.7 -13.8,9.6 -5.2,3.2 -10,7.2 -16,8.9 -6.3,1.8 -13,0.9 -19.4,-0.2 9,-7.9 18.3,-15.6 29,-20.9 z"
   id="path41" />&#10;			<path
   fill="#f99e39"
   d="m 378.4,199.8 c 3.4,-5.9 10,-12 17.4,-9.2 -2.2,9.4 -6.5,18.2 -9.9,27.1 -3.3,8.2 -11.3,13.1 -19,16.7 2.6,-11.8 5.4,-23.9 11.5,-34.6 z"
   id="path42" />&#10;			<path
   fill="#f99e39"
   d="m 584.1,211.6 c 10.1,-7.3 20.5,-14.6 32.5,-18.5 6.3,-2.2 14.6,-1.6 18.1,4.9 -4.1,2.9 -8.5,5.5 -13,7.9 -5.5,2.9 -10.9,6.3 -17,7.7 -6.9,1.3 -14,0.1 -20.6,-2 z"
   id="path43" />&#10;			<path
   fill="#f99e39"
   d="m 359.5,203.4 c 3,-3.1 7.4,-3.9 11.5,-3.1 -1.5,7.6 -3.8,15.1 -6.1,22.5 -1.5,4.8 -3.8,9.3 -6.9,13.3 -3.5,-1.7 -7.1,-3.3 -10.7,-4.9 2.5,-9.8 4.8,-20.5 12.2,-27.8 z"
   id="path44" />&#10;			<path
   fill="#f99e39"
   d="m 634.7,204.6 c 5.8,-2.2 12.4,-4.1 18.5,-1.8 2.8,0.9 4.3,3.5 6,5.7 -8.1,5.2 -17.2,8.3 -26,12.3 -8.2,3.6 -17.4,1.4 -25.4,-1.5 8.5,-5.6 17.4,-10.8 26.9,-14.7 z"
   id="path45" />&#10;			<path
   fill="#f99e39"
   d="m 339.1,212.5 c 2.2,-1.3 4.8,-0.8 7.3,-0.9 -0.7,6 -1.8,12 -3,17.9 -4.4,-1.9 -8.9,-3.6 -13.4,-5.3 2.2,-4.5 4.5,-9.3 9.1,-11.7 z"
   id="path46" />&#10;			<path
   fill="#f99e39"
   d="m 653.2,217.2 c 7.4,-2.5 15.7,-4.8 23.4,-2.4 3.4,1 5.6,4 7,7.1 -8.7,3.8 -17.8,7 -27,9.4 -8.6,2.2 -17.4,-0.7 -25.1,-4.5 6.9,-4 14.3,-6.9 21.7,-9.6 z"
   id="path47" />&#10;			<path
   fill="#f99e39"
   d="m 475.9,224.2 c 4.8,-4.8 12.7,-8.4 18.9,-3.9 -4.4,8 -10.4,14.9 -15.7,22.3 -5.5,7.6 -15,10.9 -24,12.1 6,-10.8 12,-21.8 20.8,-30.5 z"
   id="path48" />&#10;			<path
   fill="#f99e39"
   d="m 496.9,227.3 c 3.8,-3.9 8.1,-7.4 13.3,-9.1 3.6,-1.2 8,-0.6 10.7,2.3 -3.9,6.9 -10.1,12 -15.3,17.9 -2.8,3.1 -5.4,6.6 -9.2,8.5 -5.5,3 -11.8,3.7 -17.8,4.5 5.5,-8.5 11.4,-16.7 18.3,-24.1 z"
   id="path49" />&#10;			<path
   fill="#f99e39"
   d="m 450.1,227.9 c 4.5,-5.2 12.1,-9.4 18.7,-5.4 -3.9,8.1 -9.3,15.4 -13.9,23.1 -5,8.1 -14.3,12 -23.2,14.1 5.1,-11.1 10.3,-22.5 18.4,-31.8 z"
   id="path50" />&#10;			<path
   fill="#f99e39"
   d="m 527.8,224.2 c 5.6,-3.7 14.3,-5.9 19.2,0.1 -6.4,7 -13.4,13.5 -20.8,19.5 -7,5.6 -16.4,6.5 -25,6.3 8,-9.4 16.2,-19.1 26.6,-25.9 z"
   id="path51" />&#10;			<path
   fill="#f99e39"
   d="m 554.6,227.1 c 5.6,-3 13.8,-5.3 18.7,0.1 1.6,1 -0.5,2.5 -1.2,3.3 -6.1,5.4 -12.9,10.1 -19.3,15.2 -7.4,5.7 -17.2,5.7 -26,4.9 8.4,-8.8 17.2,-17.5 27.8,-23.5 z"
   id="path52" />&#10;			<path
   fill="#f99e39"
   d="m 424.3,234 c 4,-5.2 10.8,-9 17.4,-6.2 -2.2,6.8 -5.7,12.9 -8.9,19.2 -2.7,5.3 -5.8,10.6 -10.8,14.1 -4.3,3.2 -9.3,5.2 -14.4,6.9 4.4,-11.9 8.7,-24.1 16.7,-34 z"
   id="path53" />&#10;			<path
   fill="#f99e39"
   d="m 682,228.5 c 6.2,-1.4 13,-1.9 18.8,1.2 2.7,1.3 3.9,4.2 5.3,6.6 -5.4,2.2 -10.9,3.9 -16.5,5.2 -5.4,1.2 -10.7,3.2 -16.3,3.2 -5.7,0 -11.1,-2.1 -16.1,-4.5 -1,-0.7 -3.1,-0.9 -2.4,-2.5 8.6,-3.8 17.8,-7.1 27.2,-9.2 z"
   id="path54" />&#10;			<path
   fill="#f99e39"
   d="m 576.8,234 c 4.9,-2.5 10.5,-4.8 16.1,-3.6 2.8,0.5 4.8,2.7 6.8,4.5 -4.6,4.1 -9.8,7.5 -14.9,10.8 -5.6,3.5 -10.9,8 -17.6,8.9 -5.5,1.1 -11.1,0.1 -16.5,-0.7 8,-7.4 16.5,-14.6 26.1,-19.9 z"
   id="path55" />&#10;			<path
   fill="#f99e39"
   d="m 402.6,237.1 c 3.2,-3.2 7.9,-4.1 12.1,-2.8 -2.4,9.7 -6,19.1 -10.2,28.2 -2,4.2 -5.4,7.5 -9,10.4 -2.3,-2.2 -4.5,-4.4 -6.8,-6.5 3.1,-10.3 5.9,-21.6 13.9,-29.3 z"
   id="path56" />&#10;			<path
   fill="#f99e39"
   d="m 600.7,241.6 c 5.5,-2.4 11.7,-4.5 17.6,-2.5 2.6,0.8 4.3,3.2 6,5.2 -5.3,3.8 -11.1,6.8 -16.9,9.6 -4.3,2 -8.2,4.8 -12.8,6.2 -6.9,1.9 -14,0.3 -20.7,-1.4 8.5,-6.5 17.2,-12.6 26.8,-17.1 z"
   id="path57" />&#10;			<path
   fill="#f99e39"
   d="m 374.2,252.5 c 3.1,-6 8.8,-11.8 16.2,-10 -0.9,7.1 -3.1,13.9 -5.3,20.6 -3.6,-3.6 -7.2,-7.2 -10.9,-10.6 z"
   id="path58" />&#10;			<path
   fill="#f99e39"
   d="m 674.9,250.2 c 11.3,-3.6 22.9,-7 34.9,-7.3 7,-0.1 16,2.5 17.3,10.5 -8.8,2.3 -17.7,4 -26.6,5.1 -9.4,1.2 -18.5,-2.5 -25.6,-8.3 z"
   id="path59" />&#10;			<path
   fill="#f99e39"
   d="m 284.5,268.4 c 0,-7.6 0.9,-15.4 4.9,-22 2.5,6.7 5.8,12.9 8.9,19.2 1.4,2.5 0,5.4 -0.2,8.1 -4.5,-1.8 -9,-3.7 -13.6,-5.3 z"
   id="path60" />&#10;			<path
   fill="#f99e39"
   d="m 635.9,248.8 c 4.9,0.3 9.7,2.6 11.5,7.4 -4,-2.2 -7.9,-4.7 -11.5,-7.4 z"
   id="path61" />&#10;			<path
   fill="#f99e39"
   d="m 596.6,265 c 7.6,-5 15.8,-9 24.2,-12.7 -1.4,5.3 -2.1,10.8 -2,16.4 -7.4,1.5 -15.1,-0.1 -21.9,-2.9 -0.2,-0.3 -0.2,-0.6 -0.3,-0.8 z"
   id="path62" />&#10;			<path
   fill="#f99e39"
   d="m 269.3,263.3 c 2.6,-2.6 5.5,-5.3 9.5,-5.1 0.7,2.8 0.8,5.7 1,8.5 -3.4,-1.2 -6.9,-2.4 -10.5,-3.4 z"
   id="path63" />&#10;			<path
   fill="#f99e39"
   d="m 695,264.9 c 9.5,-2.5 19.1,-4.5 28.9,-5.3 6.4,-0.5 13.2,0.1 18.6,3.7 2.7,1.6 3.5,4.9 4.4,7.7 -9.1,2.1 -18.4,2.7 -27.7,3.6 -9,0.6 -17.7,-3.6 -24.2,-9.7 z"
   id="path64" />&#10;			<path
   fill="#f99e39"
   d="m 654,260.9 c 6.4,-0.3 14.1,1.4 16.1,8.4 -1.7,0.1 -4,1.5 -4.8,-0.8 -0.5,-1.1 -1.4,-1.8 -2.6,-2.1 -3.2,-1.3 -5.9,-3.5 -8.7,-5.5 z"
   id="path65" />&#10;			<path
   fill="#f99e39"
   d="m 481.9,274.8 c 4.3,-4.8 9.7,-9.6 16.4,-9.9 2.1,0.2 4.9,0.8 6,2.8 -2.4,4.8 -6.3,8.7 -9.4,13.1 -3.6,4.6 -6.5,10 -11.3,13.6 -5.5,4.1 -12.4,5.6 -19.1,6.9 5,-9.3 10.5,-18.4 17.4,-26.5 z"
   id="path66" />&#10;			<path
   fill="#f99e39"
   d="m 503.2,277.4 c 4.5,-5.1 9.7,-10.3 16.5,-12.1 3.3,-1 7.1,-0.1 9.5,2.5 -4.9,8.3 -11.8,15.1 -18.2,22.2 -5.9,6.5 -14.9,8.4 -23.3,9.2 4.5,-7.6 9.7,-15 15.5,-21.8 z"
   id="path67" />&#10;			<path
   fill="#f99e39"
   d="m 457.2,277.5 c 3.6,-4.6 8.1,-9.2 14.1,-10.3 2.6,-0.6 5,0.8 7.3,1.6 -3.9,8.5 -9.7,15.9 -14.4,23.9 -4.8,7.9 -14,11.4 -22.5,13.5 4.3,-10 9.1,-19.9 15.5,-28.7 z"
   id="path68" />&#10;			<path
   fill="#f99e39"
   d="m 530.5,276.3 c 4.9,-4.1 10.7,-8 17.4,-8.1 2.9,-0.1 5.3,1.8 7.6,3.3 -5.8,7.6 -13.2,14 -20.6,20.1 -6.9,5.8 -16.2,6.9 -24.8,6.6 6.2,-7.8 12.9,-15.3 20.4,-21.9 z"
   id="path69" />&#10;			<path
   fill="#f99e39"
   d="m 439,274.6 c 3.2,-2.9 7.7,-3.1 11.8,-2.1 -1.5,5.6 -3.4,11 -5.9,16.3 -3.4,7.2 -6.6,14.9 -13,20 -2.6,-2.6 -5.3,-5.2 -7.9,-7.9 3.5,-9.5 6.9,-19.8 15,-26.3 z"
   id="path70" />&#10;			<path
   fill="#f99e39"
   d="m 554.5,281.5 c 6,-4.1 13,-8.2 20.6,-7.3 2.9,0.3 4.9,2.5 6.9,4.4 -4.1,3.8 -8.5,7.2 -13.1,10.3 -5,3.2 -9.4,7.3 -15,9.6 -6.4,2.4 -13.3,1.8 -20,1.2 6.1,-6.9 13.2,-12.8 20.6,-18.2 z"
   id="path71" />&#10;			<path
   fill="#f99e39"
   d="m 673.2,275 c 7.3,-0.9 16,1.1 18.7,8.8 -2,0.5 -4.3,2.8 -6.3,1 -4.1,-3.2 -8,-6.8 -12.4,-9.8 z"
   id="path72" />&#10;			<path
   fill="#f99e39"
   d="m 714.7,279.7 c 11.9,-1.7 23.9,-2.9 35.9,-1.6 7.1,1 15.5,5 15.5,13.2 -9.7,0.6 -19.5,1.3 -29.1,0.5 -8.8,-0.6 -16,-6.2 -22.3,-12.1 z"
   id="path73" />&#10;			<path
   fill="#f99e39"
   d="m 410.1,287.4 c 3.4,-5.3 9.1,-10.1 15.9,-8.1 -0.9,6.3 -3.1,12.3 -5.4,18.2 -3.6,-3.4 -7,-6.8 -10.5,-10.1 z"
   id="path74" />&#10;			<path
   fill="#f99e39"
   d="m 585.8,284.3 c 6.5,-2.8 16,-3.8 20.1,3.4 -8.3,6.4 -17.3,11.7 -26.7,16 -7.3,3.1 -15.5,1.8 -23,0.1 9,-7.5 18.7,-14.7 29.6,-19.5 z"
   id="path75" />&#10;			<path
   fill="#f99e39"
   d="m 692.1,290.4 c 7.4,0.1 17.4,1.9 18.9,10.7 -1.9,0.5 -3.7,1 -5.6,1.5 -4.3,-4.3 -8.8,-8.3 -13.3,-12.2 z"
   id="path76" />&#10;			<path
   fill="#f99e39"
   d="m 599,298.9 c 7.6,-3.3 16.1,-6.8 24.5,-4.7 3.5,0.7 5.7,3.6 7.3,6.6 -5.4,2.9 -11.1,5 -16.8,7.1 -5.7,2.2 -11.2,5.5 -17.5,5.6 -5.9,0 -11.6,-1.8 -17,-3.9 5.9,-4.4 12.8,-7.5 19.5,-10.7 z"
   id="path77" />&#10;			<path
   fill="#f99e39"
   d="m 230.8,313.9 c -0.1,-7.2 2.3,-16.2 10.5,-17.8 2.6,8.9 4,18.1 5.2,27.2 1.2,9.2 -3.2,18 -8.4,25.3 -3.5,-11.3 -6.8,-22.9 -7.3,-34.7 z"
   id="path78" />&#10;			<path
   fill="#f99e39"
   d="m 732.4,297.5 c 12.1,-0.9 24.4,-1.9 36.4,0.6 6.9,1.5 14.6,5.9 14.2,13.9 -9.5,0.3 -19,-0.1 -28.4,-1 -9,-1 -16.3,-7 -22.2,-13.5 z"
   id="path79" />&#10;			<path
   fill="#f99e39"
   d="m 247.1,298.4 c 3.4,7.1 6.2,15 12.4,20.2 -1.9,3.5 -4.1,6.8 -6.5,9.9 -2.8,-9.9 -4.1,-20.1 -5.9,-30.1 z"
   id="path80" />&#10;			<path
   fill="#f99e39"
   d="m 630.8,306.9 c 5.4,-1.2 11.5,-1.7 16.7,0.8 2.7,1.2 4,4 5.5,6.4 -8.7,4 -17.8,7.1 -27.1,9.3 -8.2,2 -17,-0.2 -24.2,-4.3 -0.1,-0.2 -0.3,-0.5 -0.4,-0.7 9.4,-4.7 19.2,-8.9 29.5,-11.5 z"
   id="path81" />&#10;			<path
   fill="#f99e39"
   d="m 711.1,308.3 c 5.6,0.9 11.9,1.8 16,6.1 1.9,1.8 2.3,4.5 2.8,7 -2,0.3 -4,0.6 -5.9,0.9 -4.2,-4.9 -8.5,-9.5 -12.9,-14 z"
   id="path82" />&#10;			<path
   fill="#f99e39"
   d="m 352.2,316.7 c 2,1.7 3.9,3.4 5.8,5.2 0,1.2 0,2.4 0,3.5 -2.4,-2.4 -4.8,-4.8 -7.2,-7.2 0.4,-0.4 1.1,-1.1 1.4,-1.5 z"
   id="path83" />&#10;			<path
   fill="#f99e39"
   d="m 748.7,315.4 c 12.7,0.4 25.8,0.2 37.8,4.6 6.1,2.2 12.4,7.3 11.3,14.5 -4.5,-0.2 -9.1,-0.5 -13.6,-1.2 -7.3,-1.1 -14.9,-1.5 -21.5,-5 -5.7,-2.9 -10,-7.9 -14,-12.9 z"
   id="path84" />&#10;			<path
   fill="#f99e39"
   d="m 214.6,336.3 c -0.9,-7 1,-15.7 8.6,-18.1 3.8,9.7 7.3,19.6 8.5,30 1,8 -2.4,15.7 -6.2,22.5 -4.7,-11 -9.3,-22.4 -10.9,-34.4 z"
   id="path85" />&#10;			<path
   fill="#f99e39"
   d="m 621.9,330 c 9.7,-3.5 19.6,-6.8 29.9,-8.3 6,-0.6 12.7,-0.9 18,2.6 2.4,1.4 3.3,4.2 4.3,6.7 -6.4,2.2 -12.9,4.1 -19.6,4.9 -5.5,0.6 -11,2.5 -16.5,1.4 -5.8,-1.2 -11.3,-3.9 -16.1,-7.3 z"
   id="path86" />&#10;			<path
   fill="#f99e39"
   d="m 728.7,327.5 c 5.8,1 12.1,2.4 16.5,6.6 2.3,2.1 2.6,5.3 3,8.2 -2.6,0.1 -5.3,0.2 -7.9,0.2 -3.7,-5.1 -7.8,-10 -11.6,-15 z"
   id="path87" />&#10;			<path
   fill="#f99e39"
   d="m 362.3,326.1 c 1.2,0.9 2.4,1.9 3.6,2.9 2.6,2.3 5.4,4.4 7.7,7 -0.3,0.8 -0.9,2.4 -1.2,3.2 -3.6,-3.5 -7.6,-6.7 -10.5,-10.8 z"
   id="path88" />&#10;			<path
   fill="#f99e39"
   d="m 272.7,330.5 c 5.1,4.7 10.8,8.9 15.4,14.2 0.9,8.9 -3.4,17.4 -9,24.1 -3.5,-12.5 -6.8,-25.3 -6.4,-38.3 z"
   id="path89" />&#10;			<path
   fill="#f99e39"
   d="m 763.5,335.7 c 12,0.7 24.2,1.7 35.6,5.8 6.6,2.4 13.5,7.9 12.6,15.7 -10.1,-0.6 -20.1,-2.3 -29.7,-5.4 -8,-2.6 -13.8,-9.2 -18.5,-16.1 z"
   id="path90" />&#10;			<path
   fill="#f99e39"
   d="m 257,354 c -0.3,-6.5 2.5,-14 9.5,-15.7 3,9 5.2,18.3 6.7,27.7 1.4,8.9 -2.3,17.6 -7.1,24.9 -4.1,-12 -8.9,-24.1 -9.1,-36.9 z"
   id="path91" />&#10;			<path
   fill="#f99e39"
   d="m 640.6,342.6 c 9.5,-1.9 19.1,-3.4 28.8,-3.8 -3.9,4.9 -8,9.5 -12.5,13.9 -6.1,-2.2 -11.5,-5.9 -16.3,-10.1 z"
   id="path92" />&#10;			<path
   fill="#f99e39"
   d="m 202.5,346.5 c 1.1,-2.9 3.9,-4.4 6.4,-5.8 4,8.9 7.4,18.2 9.8,27.6 2.2,8.5 -0.9,17 -4.5,24.7 -4.8,-9 -8.9,-18.4 -11.7,-28.2 -1.6,-5.9 -2.5,-12.5 0,-18.3 z"
   id="path93" />&#10;			<path
   fill="#f99e39"
   d="m 744.1,347.5 c 6.2,1.5 12.9,3.3 17,8.6 1.8,2.2 1.8,5.1 2,7.7 -2.8,-0.1 -5.6,-0.2 -8.4,-0.3 -3.4,-5.4 -7.1,-10.7 -10.6,-16 z"
   id="path94" />&#10;			<path
   fill="#f99e39"
   d="m 777.5,356.8 c 11.9,1.9 24.1,4 35.1,9.2 6.3,3 12.9,9.1 10.8,16.9 -4.6,-0.8 -9.2,-1.9 -13.6,-3.2 -7,-2.1 -14.3,-3.7 -20.3,-8 -5.3,-3.9 -8.7,-9.6 -12,-14.9 z"
   id="path95" />&#10;			<path
   fill="#f99e39"
   d="m 243.4,367.2 c 0.9,-3.2 3.9,-4.9 6.7,-6.4 4.4,8.9 7.7,18.4 10.3,28 2.3,8.1 -0.7,16.4 -3.9,23.8 -4.3,-6.7 -7.4,-14.1 -10.3,-21.4 -2.8,-7.6 -5.5,-16.1 -2.8,-24 z"
   id="path96" />&#10;			<path
   fill="#f99e39"
   d="m 307.6,361.9 c 5.4,4.8 11.2,9.2 16,14.6 1.3,8.6 -3.1,16.7 -7.5,23.8 -4.3,-12.4 -8.6,-25.1 -8.5,-38.4 z"
   id="path97" />&#10;			<path
   fill="#f99e39"
   d="m 189.2,381.4 c -1.6,-6.3 -0.2,-14.4 6.4,-17 4.9,8.4 8.6,17.4 12.1,26.4 3.2,8.2 0.8,17.1 -2.1,25 -6.6,-10.9 -13.5,-22 -16.4,-34.4 z"
   id="path98" />&#10;			<path
   fill="#f99e39"
   d="m 690.4,371.4 c 2.8,-1.2 5.6,-2.5 8.5,-3.3 2.8,-0.3 5.6,-0.4 8.4,-0.4 0.3,0.5 1,1.4 1.3,1.9 l 0.8,1.2 c -6.3,0.8 -12.7,1 -19,0.6 z"
   id="path99" />&#10;			<path
   fill="#f99e39"
   d="m 757.6,368.5 c 6.1,2.1 12.8,4.2 16.8,9.7 1.8,2.4 1.8,5.5 1.9,8.4 -3,-0.3 -6,-0.6 -9,-1 -3,-5.8 -6.1,-11.6 -9.7,-17.1 z"
   id="path100" />&#10;			<path
   fill="#f99e39"
   d="m 292.6,388.3 c -1.5,-7.2 -0.3,-16.5 7.5,-19.6 4.5,9.3 7.5,19.2 9.8,29.2 1.8,8.1 -1.7,16.1 -4.9,23.4 -5.2,-10.6 -10,-21.5 -12.4,-33 z"
   id="path101" />&#10;			<path
   fill="#f99e39"
   d="m 679.4,379.5 c 2.3,-1.9 4.5,-4.9 8,-4.1 11.2,0.8 23.5,0.4 33.2,7 3.7,2.4 5.6,6.7 5.2,11 -10.5,-0.2 -21,-1.4 -31.2,-3.9 -6.2,-1.5 -10.8,-5.9 -15.2,-10 z"
   id="path102" />&#10;			<path
   fill="#f99e39"
   d="m 789.1,378.9 c 11.8,2.6 23.9,5.3 34.6,11.1 6.1,3.4 12.3,9.9 9.5,17.4 -9.6,-2.2 -18.5,-6.4 -27.6,-9.9 -8.1,-3.1 -12.8,-11.1 -16.5,-18.6 z"
   id="path103" />&#10;			<path
   fill="#f99e39"
   d="m 230.6,400.3 c -1.8,-6.3 -0.5,-14.6 6.2,-17.4 4.8,7.8 7.9,16.5 11.8,24.8 3.9,8.5 1.9,18.1 -1.3,26.5 -6.6,-10.7 -13.5,-21.7 -16.7,-33.9 z"
   id="path104" />&#10;			<path
   fill="#f99e39"
   d="m 179.1,395.1 c 0.7,-3 3.2,-4.9 5.7,-6.4 5,8.3 9.9,16.8 13.6,25.7 3.3,8 1.6,16.9 -0.8,24.9 -6.1,-8.2 -11.6,-16.9 -15.8,-26.2 -2.4,-5.5 -4.3,-11.9 -2.7,-18 z"
   id="path105" />&#10;			<path
   fill="#f99e39"
   d="m 281.1,395.5 c 1,-2.6 3.5,-3.9 5.6,-5.3 5,8.5 7.1,18.3 11.6,27 4.3,7.7 1.2,16.6 -1.3,24.3 -5.7,-8.3 -10.6,-17.3 -14.4,-26.6 -2.3,-6.1 -4.2,-13.1 -1.5,-19.4 z"
   id="path106" />&#10;			<path
   fill="#f99e39"
   d="m 771.1,392.8 c 7.2,3.4 15.7,9.5 13.4,18.7 -1.9,-0.4 -3.7,-0.8 -5.5,-1.2 -2.4,-5.9 -5.2,-11.7 -7.9,-17.5 z"
   id="path107" />&#10;			<path
   fill="#f99e39"
   d="m 689.7,393.6 c 11.9,1.7 24,3.4 35.1,8.2 6.5,2.9 13.4,8.8 11.4,16.8 -9.3,-1.5 -18.3,-4.4 -27.3,-6.9 -8.8,-2.8 -14.7,-10.5 -19.2,-18.1 z"
   id="path108" />&#10;			<path
   fill="#f99e39"
   d="m 800.6,400.8 c 10.9,3.6 21.8,7.8 31.5,14 6.2,4.1 12.7,11.5 9.1,19.4 -4.3,-1.5 -8.4,-3.3 -12.5,-5.3 -6.4,-3.2 -13.2,-6 -18.5,-11 -4.7,-4.7 -7.3,-11 -9.6,-17.1 z"
   id="path109" />&#10;			<path
   fill="#f99e39"
   d="m 221.7,426.1 c -2.4,-6.4 -2.9,-15.7 4.3,-19.1 3.2,4.6 6.2,9.4 8.7,14.4 2.7,5.3 6.3,10.1 7.6,16 1.2,6.6 0.3,13.3 -1.5,19.7 -7.4,-9.7 -14.7,-19.6 -19.1,-31 z"
   id="path110" />&#10;			<path
   fill="#f99e39"
   d="m 270,418.8 c 0.7,-3 3.3,-4.8 5.7,-6.4 3.8,5.9 6.4,12.5 9.9,18.6 2.4,4.3 5,8.8 5.5,13.9 0.7,6.1 -0.7,12.2 -2.3,18.1 -5.5,-6.9 -10.1,-14.5 -14.2,-22.3 -3.4,-6.7 -6.5,-14.3 -4.6,-21.9 z"
   id="path111" />&#10;			<path
   fill="#f99e39"
   d="m 169.5,422.6 c 0,-3.5 2.5,-6.2 5,-8.3 6.3,7.4 11.6,15.6 16.4,24 4.3,7.6 3.8,16.7 2.2,24.9 -6.3,-6.5 -11.8,-13.7 -16.8,-21.2 -3.7,-5.8 -7.2,-12.3 -6.8,-19.4 z"
   id="path112" />&#10;			<path
   fill="#f99e39"
   d="m 704.2,415.3 c 11.8,2.7 23.9,5.5 34.5,11.4 6,3.4 12.2,10 9.2,17.4 -9.7,-2.5 -19.3,-5.5 -28.2,-10.2 -7.4,-3.8 -12.2,-11.1 -15.5,-18.6 z"
   id="path113" />&#10;			<path
   fill="#f99e39"
   d="m 781.9,417.2 c 5,3.2 10.6,6.6 12.7,12.5 1.1,2.5 0.1,5.1 -0.4,7.5 -1.8,-0.6 -3.6,-1.1 -5.4,-1.6 -2,-6.2 -4.3,-12.4 -6.9,-18.4 z"
   id="path114" />&#10;			<path
   fill="#f99e39"
   d="m 808.2,424.6 c 9,3.5 17.9,7.5 26.1,12.6 5.7,3.6 11.4,8.2 13.5,14.8 1.2,2.8 -0.3,5.6 -1.1,8.2 -5.3,-2.2 -10.4,-4.8 -15.3,-7.9 -5.5,-3.5 -11.8,-6.2 -15.9,-11.5 -3.5,-4.7 -5.8,-10.4 -7.3,-16.2 z"
   id="path115" />&#10;			<path
   fill="#f99e39"
   d="m 212.5,438 c 0.5,-2.8 2.7,-4.7 4.7,-6.5 5.2,5.8 8.9,12.7 13.4,19.1 2.7,3.8 5.1,8 5.9,12.7 1,5.7 0.3,11.6 -0.6,17.3 -7,-7.7 -13.6,-15.7 -18.9,-24.7 -3.1,-5.4 -5.8,-11.6 -4.5,-17.9 z"
   id="path116" />&#10;			<path
   fill="#f99e39"
   d="m 262.4,455.6 c -2.8,-6.2 -3.4,-15 3.3,-19 3.8,4.7 7,9.8 10,15 3.2,5.4 7.5,10.5 8.5,16.8 1.2,5.9 0.1,11.8 -0.9,17.6 -7.9,-9.4 -16,-19 -20.9,-30.4 z"
   id="path117" />&#10;			<path
   fill="#f99e39"
   d="m 713.6,437.5 c 11.5,4.1 23.3,8.2 33.2,15.5 5.5,4.1 10.7,11.2 7,18.2 -5.1,-1.9 -10.1,-4.2 -14.9,-6.9 -5.8,-3.1 -12.2,-5.6 -16.7,-10.5 -4.2,-4.6 -6.7,-10.5 -8.6,-16.3 z"
   id="path118" />&#10;			<path
   fill="#f99e39"
   d="m 167.8,440 c 5.1,5.2 9.4,11.1 13.8,16.9 3.9,5.1 7.3,11 8,17.5 0.6,4.5 0.1,9 -0.3,13.5 -7.3,-6.8 -13.9,-14.4 -19.6,-22.6 -3.5,-5.3 -6.7,-11.3 -6.1,-17.8 0,-3.1 2.3,-5.3 4.2,-7.5 z"
   id="path119" />&#10;			<path
   fill="#f99e39"
   d="m 791.8,443.9 c 4.4,4 9.7,8.7 9.5,15.2 -0.2,1.8 -1.4,5.9 -3.7,3.5 -2.4,-6.1 -3.8,-12.5 -5.8,-18.7 z"
   id="path120" />&#10;			<path
   fill="#f99e39"
   d="m 814.5,447.9 c 9.2,4.7 18.3,9.8 26.4,16.2 4.8,3.9 9.5,8.8 10.8,15 0.7,2.8 -0.9,5.5 -2,8 -4.4,-2.6 -8.8,-5.3 -12.9,-8.2 -5.5,-3.9 -11.4,-7.6 -15.5,-13.1 -3.9,-5.2 -5.4,-11.7 -6.8,-17.9 z"
   id="path121" />&#10;			<path
   fill="#f99e39"
   d="m 209.6,477.3 c -3.2,-5.9 -4.5,-14.4 1.5,-19 6.4,7 12.5,14.3 17.9,22.1 5.1,7.4 5.6,16.9 4.5,25.6 -8.9,-8.7 -18,-17.6 -23.9,-28.7 z"
   id="path122" />&#10;			<path
   fill="#f99e39"
   d="m 769.2,460.6 c 0.5,0 1.4,0.1 1.9,0.1 1,2 1.4,4.1 1.4,6.3 -1.2,-2.1 -2.2,-4.3 -3.3,-6.4 z"
   id="path123" />&#10;			<path
   fill="#f99e39"
   d="m 722.7,461.2 c 9.3,4.3 18.6,8.8 27,14.8 5,3.6 9.8,8.2 11.5,14.4 0.9,2.9 -0.5,5.7 -1.5,8.3 -9.6,-4.8 -18.7,-10.5 -26.9,-17.4 -5.9,-5.1 -8.2,-12.9 -10.1,-20.1 z"
   id="path124" />&#10;			<path
   fill="#f99e39"
   d="m 256.5,463.4 c 8.1,5.6 13.8,14 19.9,21.7 5.5,7 5.7,16.3 5.4,24.7 -9.6,-8.7 -19.7,-17.4 -26,-29 -3.2,-5.4 -3.6,-12.4 0.7,-17.4 z"
   id="path125" />&#10;			<path
   fill="#f99e39"
   d="m 161.9,484.8 c -3.4,-5.5 -4.8,-13.5 0.6,-18.3 7.2,6.3 13.3,13.7 19.5,21 5.7,6.9 6.5,16.3 6.2,24.9 -9.7,-8.3 -19.7,-16.6 -26.3,-27.6 z"
   id="path126" />&#10;			<path
   fill="#f99e39"
   d="m 799.8,472 c 4,4.7 7.5,11.2 4.1,17.3 -1.5,-5.8 -2.8,-11.6 -4.1,-17.3 z"
   id="path127" />&#10;			<path
   fill="#f99e39"
   d="m 818.4,472.6 c 9.4,5.6 18.8,11.4 26.8,18.9 3.8,3.7 7.3,8.2 8.4,13.6 0.8,3.1 -1,5.9 -2.2,8.6 -5.4,-3.2 -10.3,-7 -15.1,-11.1 -4.2,-3.6 -9,-6.8 -12.1,-11.5 -3.5,-5.5 -4.8,-12.1 -5.8,-18.5 z"
   id="path128" />&#10;			<path
   fill="#f99e39"
   d="m 772.8,475.4 c 1.1,0.6 2.3,1.2 3.4,1.8 0.6,1.7 1.1,3.3 1.6,5.1 -0.4,0.6 -1.1,1.8 -1.5,2.4 2.7,3.2 5.5,6.6 6.9,10.7 0.3,1.3 1,3.8 1.4,5.1 -1,-0.9 -2.9,-2.7 -3.9,-3.6 -5.2,-6 -7,-13.9 -7.9,-21.5 z"
   id="path129" />&#10;			<path
   fill="#f99e39"
   d="m 726.9,483.3 c 10.3,6.8 20.8,13.9 28.8,23.4 4.4,5.2 7.1,13.2 2.4,19 -4.4,-2.7 -8.3,-6.1 -12.1,-9.5 -4.9,-4.5 -10.6,-8.3 -14,-14.1 -3.4,-5.6 -4.4,-12.3 -5.1,-18.8 z"
   id="path130" />&#10;			<path
   fill="#f99e39"
   d="m 205.6,485.7 c 5.1,3.7 9.8,8 14,12.6 3.8,4.1 8.1,7.8 10.6,12.9 3,5.8 3.4,12.5 3.8,18.9 -8.8,-6.2 -17,-13.2 -24.2,-21.1 -3.7,-4.3 -7.1,-9.5 -7.4,-15.4 -0.1,-3.1 1.7,-5.6 3.2,-7.9 z"
   id="path131" />&#10;			<path
   fill="#f99e39"
   d="m 249.8,492.8 c 0.8,-1.3 1.3,-4.5 3.3,-3.5 5.3,3.3 9.3,8.2 13.8,12.5 3.6,3.8 7.9,7.2 10.4,11.9 3,5.8 3.5,12.4 4.1,18.7 -9.2,-6.5 -18.3,-13.5 -25.7,-22 -3.8,-4.8 -8,-11.2 -5.9,-17.6 z"
   id="path132" />&#10;			<path
   fill="#f99e39"
   d="m 159.6,493 c 6.1,4.5 11.3,10 16.8,15.3 3.4,3.4 6.5,7.1 8.5,11.5 2.4,5.5 2.9,11.5 3.1,17.4 -7.6,-5.4 -14.8,-11.3 -21.4,-18 -4.7,-4.9 -9.2,-10.7 -10,-17.6 -0.6,-3.2 1.3,-6 3,-8.6 z"
   id="path133" />&#10;			<path
   fill="#f99e39"
   d="m 822.5,497.3 c 9.8,7.5 20,15.1 27.3,25.2 4,5.4 6.4,13.8 1,19.2 -3.7,-3 -7.3,-6.1 -10.7,-9.5 -5,-4.9 -10.4,-9.5 -13.7,-15.8 -3.1,-5.9 -3.7,-12.6 -3.9,-19.1 z"
   id="path134" />&#10;			<path
   fill="#f99e39"
   d="m 776,500.3 c 2.9,2.2 5.9,4.3 8.8,6.5 5,3.1 6.3,10.5 13,11.1 5,4.9 10,10.9 10.6,18.1 0.4,3 -1.4,5.5 -2.9,7.9 -4.7,-3.4 -9.2,-7.1 -13.3,-11.3 -4.3,-4.4 -9.3,-8.4 -12.1,-14 -3,-5.5 -3.6,-12 -4.1,-18.3 z"
   id="path135" />&#10;			<path
   fill="#f99e39"
   d="m 730.5,509.1 c 8.2,6.4 16.2,13.1 23,21.1 3.6,4.4 6.9,9.6 7.5,15.4 0.4,3.2 -1.6,5.9 -3.1,8.5 -6.2,-4.3 -11.2,-10.1 -16.4,-15.5 -3.6,-3.9 -7.2,-8.1 -8.9,-13.2 -1.9,-5.3 -2.1,-10.9 -2.1,-16.3 z"
   id="path136" />&#10;			<path
   fill="#f99e39"
   d="m 206.8,530.9 c -4.2,-5.1 -7.1,-13 -2.1,-18.5 4.5,3 8.8,6.5 12.9,10.1 4.8,4.2 10.3,8 13.6,13.5 3.3,5.5 4.3,12 5.1,18.3 -10.5,-6.7 -21.4,-13.6 -29.5,-23.4 z"
   id="path137" />&#10;			<path
   fill="#f99e39"
   d="m 248.3,513.5 c 9.4,4 16,12.2 24.3,18 7.1,4.8 8.7,13.9 10.3,21.7 -9.1,-4.9 -18.1,-10.2 -26,-16.8 -4.6,-3.9 -8.9,-8.7 -10.3,-14.7 -0.7,-2.9 0.8,-5.6 1.7,-8.2 z"
   id="path138" />&#10;			<path
   fill="#f99e39"
   d="m 157.2,519.1 c 8.5,4 14.6,11.6 22.1,17 7.7,5.3 10,15 11.2,23.7 -10.4,-6 -20.8,-12.5 -29.1,-21.2 -5,-4.9 -8.5,-12.9 -4.2,-19.5 z"
   id="path139" />&#10;			<path
   fill="#f99e39"
   d="m 822.4,522.5 c 6.6,5.1 12.8,10.9 18.5,17 4.6,5.1 9.1,10.8 10.7,17.7 1,3.8 -0.3,8.1 -3.4,10.5 -4.2,-2.9 -7.4,-6.8 -10.8,-10.5 -4.5,-5.3 -10.1,-10.2 -12.7,-16.8 -2.3,-5.7 -2.4,-11.9 -2.3,-17.9 z"
   id="path140" />&#10;			<path
   fill="#f99e39"
   d="m 776.6,524.3 c 6.9,6.1 13.7,12.5 19.7,19.6 4.5,5.5 9.1,12 8.8,19.4 0,2.9 -2,5.2 -3.6,7.4 -7.6,-6.2 -13.4,-14.1 -19.5,-21.7 -5.5,-6.9 -5.8,-16.3 -5.4,-24.7 z"
   id="path141" />&#10;			<path
   fill="#f99e39"
   d="m 730,533.8 c 7.1,6.2 13.6,13.2 19.3,20.6 4.2,5.6 8.3,12.2 7.7,19.5 -0.2,2.9 -2.3,5.1 -4.2,7.1 -4.3,-4.2 -8.1,-9 -11.8,-13.8 -3.3,-4.3 -7.1,-8.4 -9.1,-13.4 -2.6,-6.3 -2.5,-13.3 -1.9,-20 z"
   id="path142" />&#10;			<path
   fill="#f99e39"
   d="m 250,538 c 6.4,3.4 12.1,8.1 18.3,11.8 3.6,2.2 7.3,4.4 10,7.7 4.4,5.2 6.3,11.9 7.9,18.4 -8.8,-3.9 -17.4,-8.6 -25.3,-14.1 -5.4,-3.8 -10.7,-8.7 -12.6,-15.3 -1.1,-2.9 0.5,-5.8 1.7,-8.5 z"
   id="path143" />&#10;			<path
   fill="#f99e39"
   d="m 210.1,558.5 c -5.2,-4.9 -9.7,-13 -5,-19.7 4.7,2.6 9.2,5.6 13.5,8.9 4.7,3.5 9.9,6.4 13.8,10.9 4.6,5.4 6.4,12.5 7.8,19.3 -10.6,-5.5 -21.3,-11.3 -30.1,-19.4 z"
   id="path144" />&#10;			<path
   fill="#f99e39"
   d="m 159.3,545.5 c 6.5,3.5 12.5,7.8 18.6,12.1 4.7,3.4 9.4,7.4 12,12.7 2.3,4.4 3.5,9.4 4.5,14.2 -9.2,-4.6 -18.2,-9.7 -26.3,-16 -4.5,-3.6 -8.8,-8.1 -10.5,-13.7 -1,-3.2 0.1,-6.4 1.7,-9.3 z"
   id="path145" />&#10;			<path
   fill="#f99e39"
   d="m 821.4,546.8 c 7.9,7.7 15.5,15.9 21.4,25.2 2.6,4.4 4.8,9.5 4.6,14.7 -0.1,3.2 -2.4,5.6 -4.3,8 -3.2,-3.2 -6.2,-6.7 -8.9,-10.4 -4.1,-5.4 -8.7,-10.7 -11.3,-17 -2.7,-6.5 -2.3,-13.7 -1.5,-20.5 z"
   id="path146" />&#10;			<path
   fill="#f99e39"
   d="m 776.1,549.3 c 7.1,7.8 13.8,16.1 19.2,25.2 2.6,4.8 4.9,10.2 4.5,15.8 -0.2,3.4 -2.6,5.9 -5,8.1 -6.9,-8 -12.7,-16.8 -17.5,-26.1 -3.4,-7.2 -2.4,-15.4 -1.2,-23 z"
   id="path147" />&#10;			<path
   fill="#f99e39"
   d="m 728,563 c 0.4,-1.1 0,-2.7 1.2,-3.3 7.3,8.4 14.4,17.2 19.5,27.1 2.7,5.1 3.7,10.9 2.7,16.6 -6.3,-5.6 -12.7,-11 -18.9,-16.7 C 727,580.2 726.6,571 728,563 Z"
   id="path148" />&#10;			<path
   fill="#f99e39"
   d="m 252.7,564 c 5.4,1.8 10.4,4.5 15.3,7.5 4.4,2.7 9.2,4.7 13.4,7.8 6,4.8 8.9,12.2 11.3,19.2 -10,-3.6 -19.9,-7.7 -28.9,-13.3 -4.4,-2.9 -8.7,-6.6 -11.1,-11.4 -1.6,-3.1 -0.7,-6.6 0,-9.8 z"
   id="path149" />&#10;			<path
   fill="#f99e39"
   d="m 207.6,564.7 c 5,2.2 9.7,5.1 14.3,8 5.5,3.5 11.7,6.2 15.9,11.3 4,4.9 6.1,11.1 7.8,17.1 -10.7,-4.5 -21.4,-9.5 -30.7,-16.6 -5.9,-4.5 -11.6,-12.4 -7.3,-19.8 z"
   id="path150" />&#10;			<path
   fill="#f99e39"
   d="m 817.5,571.3 c 7.1,7.7 13.7,15.8 19,24.8 3,5.4 5.7,11.6 4.4,17.9 -0.5,2.7 -2.8,4.5 -4.6,6.4 -6.4,-7.8 -12.5,-15.9 -17,-24.9 -3.9,-7.5 -3,-16.2 -1.8,-24.2 z"
   id="path151" />&#10;			<path
   fill="#f99e39"
   d="m 162.1,572.6 c 7.1,2.5 13.4,6.6 19.8,10.4 4.1,2.4 8.4,4.9 11.4,8.8 3.8,4.7 5.8,10.6 7.6,16.4 -9.1,-3.6 -18.2,-7.7 -26.6,-12.8 -5.4,-3.5 -11,-7.9 -13.1,-14.2 -1,-2.9 0.1,-5.9 0.9,-8.6 z"
   id="path152" />&#10;			<path
   fill="#f99e39"
   d="m 773.3,575 c 5.8,9.1 11.4,18.6 15.1,28.8 1.8,5.5 3.2,11.8 0.8,17.3 -1,2.5 -3.5,3.8 -5.6,5.3 -5,-8.9 -9.8,-18.1 -12.7,-27.9 -2.5,-7.8 -0.2,-16 2.4,-23.5 z"
   id="path153" />&#10;			<path
   fill="#f99e39"
   d="m 258.5,591.5 c 10,2.2 19.7,5.8 28.9,10.2 7.5,3.7 11.9,11.2 15.5,18.4 -11.8,-2.6 -23.8,-5.3 -34.5,-11.1 -6.2,-3.4 -12.2,-9.9 -9.9,-17.5 z"
   id="path154" />&#10;			<path
   fill="#f99e39"
   d="m 221.2,610 c -5.5,-4 -11.4,-11.4 -7.2,-18.4 8.9,3.6 17.6,7.7 25.8,12.6 7.6,4.6 11.7,12.8 14.5,20.9 -11.5,-3.9 -23.1,-8.1 -33.1,-15.1 z"
   id="path155" />&#10;			<path
   fill="#f99e39"
   d="m 812.5,596.5 c 2.6,1.7 3.9,4.7 5.8,7.1 6.2,9.4 13.2,19 14.7,30.5 0.8,4.9 -1.7,9.7 -5.9,12.2 -3.1,-4.4 -6,-9 -8.4,-13.8 -2.8,-5.4 -6.4,-10.6 -7.7,-16.7 -1.6,-6.4 -0.3,-13.1 1.5,-19.3 z"
   id="path156" />&#10;			<path
   fill="#f99e39"
   d="m 167.8,598.6 c 6.3,1.9 12.1,5 18,7.9 4.8,2.4 9.7,5 13.6,8.8 4.4,4.7 7,10.7 9.1,16.7 -11.4,-4 -23.1,-8.1 -33.1,-15.1 -5.7,-4.2 -10.8,-11.2 -7.6,-18.3 z"
   id="path157" />&#10;			<path
   fill="#f99e39"
   d="m 762.2,613.2 c 1.1,-3.8 2.6,-7.5 4.3,-11 3.9,7.7 7.1,15.7 10.2,23.7 -4.8,-4.3 -9.5,-8.7 -14.5,-12.7 z"
   id="path158" />&#10;			<path
   fill="#f99e39"
   d="m 266.6,615.9 c 6.1,0.7 12,2.2 17.8,4 5.3,1.7 11,2.4 15.9,5.4 5.7,3.6 9.7,9.2 13.2,14.8 -12.3,-1.5 -24.8,-3 -36.2,-8.1 -6.1,-2.8 -12.2,-8.7 -10.7,-16.1 z"
   id="path159" />&#10;			<path
   fill="#f99e39"
   d="m 220.5,618.6 c 6.2,1.5 12.4,3.2 18.3,5.6 5.4,2.2 11.3,3.9 15.7,7.8 4.6,4 7.6,9.4 10.5,14.6 -10.7,-2 -21.4,-4.6 -31.4,-9 -5,-2.4 -10.2,-5.6 -12.7,-10.7 -1.4,-2.6 -0.8,-5.6 -0.4,-8.3 z"
   id="path160" />&#10;			<path
   fill="#f99e39"
   d="m 805.9,619.3 c 6,9.5 11.6,19.4 15.2,30.1 1.8,5.2 1.9,10.8 0.7,16.2 -4.8,-4.5 -10.1,-8.4 -14.6,-13.2 -6.5,-9.9 -5.7,-22.6 -1.3,-33.1 z"
   id="path161" />&#10;			<path
   fill="#f99e39"
   d="m 172.1,624.4 c 9.9,1.9 19.3,5.8 28.6,9.7 7.8,3.4 12.4,11.1 16.1,18.3 -11.5,-2.4 -23.2,-5 -33.8,-10.3 -6.5,-3.3 -13.1,-9.7 -10.9,-17.7 z"
   id="path162" />&#10;			<path
   fill="#f99e39"
   d="m 278.3,640.6 c 9.9,0 19.8,1.5 29.5,3.6 5.2,1.2 9.7,4.2 13.6,7.9 -2.8,2.1 -5,5.7 -8.5,6.7 -10.2,-0.7 -21.5,-1.2 -29.9,-7.6 -3.5,-2.5 -5,-6.6 -4.7,-10.6 z"
   id="path163" />&#10;			<path
   fill="#f99e39"
   d="m 241.9,660.1 c -6.5,-3 -13.4,-9.1 -11.1,-17.1 4.7,1 9.4,2 14.1,3.3 6.7,2 13.8,3.5 19.6,7.6 5.4,3.7 8.9,9.3 12.2,14.8 -11.8,-1.7 -23.8,-3.7 -34.8,-8.6 z"
   id="path164" />&#10;			<path
   fill="#f99e39"
   d="m 182.5,648.8 c 7,1.2 13.8,3.2 20.6,5.1 5.4,1.6 10.9,3.6 15.3,7.3 4.3,3.7 7.4,8.5 10.3,13.3 -12.1,-1.9 -24.5,-3.8 -35.7,-9.1 -6.4,-3 -12.4,-9 -10.5,-16.6 z"
   id="path165" />&#10;			<path
   fill="#f99e39"
   d="m 294.3,661.6 c 5,0.3 10.1,0.8 15.1,1.3 -3.9,2.8 -7.3,6.1 -11.3,8.7 -1.6,0.6 -2.1,-1.3 -2.7,-2.4 -1.2,-2.4 -1,-5.1 -1.1,-7.6 z"
   id="path166" />&#10;			<path
   fill="#f99e39"
   d="m 241.3,668.4 c 10.6,0.2 21,2.1 31.3,4.4 5.3,1.3 9.4,5 13.1,8.8 -1.7,1.7 -3.3,3.5 -4.9,5.3 -11.4,-0.6 -23.8,-0.6 -33.8,-7 -4,-2.4 -6.2,-6.9 -5.7,-11.5 z"
   id="path167" />&#10;			<path
   fill="#f99e39"
   d="m 194.1,673.4 c 5.7,0.3 11.4,1.2 17,2.5 5.8,1.3 11.9,1.9 17.2,4.8 5.9,3.2 10.3,8.6 14.1,14 -11.9,-0.8 -24.1,-1.5 -35.5,-5.4 -6.7,-2.5 -14.1,-7.8 -12.8,-15.9 z"
   id="path168" />&#10;			<path
   fill="#f99e39"
   d="m 260.3,691.9 c 5.2,-0.1 10.3,0.3 15.5,0.8 -3.3,4.1 -6.4,8.4 -9.6,12.6 -4.1,-3.2 -6.8,-8.1 -5.9,-13.4 z"
   id="path169" />&#10;			<path
   fill="#f99e39"
   d="m 207.9,696.1 c 5.4,0 10.9,0.5 16.2,1.3 6.9,0.8 14.1,1.6 20.3,5.1 5.2,3 9.2,7.5 12.8,12.3 -12.5,-4.4 -25.8,-5.9 -38.9,-6 -6.4,0.1 -10.9,-6.7 -10.4,-12.7 z"
   id="path170" />&#10;			<path
   fill="#f99e39"
   d="m 219.1,712.8 c 12.5,0.8 25.4,1.2 36.9,6.6 -2.8,3.9 -5.8,7.7 -8.9,11.4 -8.7,-1.1 -18.3,-2.2 -24.9,-8.5 -2.7,-2.4 -3.3,-6.1 -3.1,-9.5 z"
   id="path171" />&#10;			<path
   fill="#f99e39"
   d="m 231.7,732.5 c 4.1,0.9 8.2,1.7 12.4,2.2 -1.9,2.1 -3.3,4.9 -5.8,6.5 -4.6,0.4 -5.7,-5.3 -6.6,-8.7 z"
   id="path172" />&#10;		</g>&#10;		<g
   id="g185"
   style="display:inline">&#10;			<path
   fill="#9b9b9c"
   d="m 292.2,223.4 c 3.2,-4.8 9.9,-3.3 14.6,-2.3 12.9,3.4 24.7,10 36.3,16.3 6.9,4.1 14.3,7.6 19.9,13.4 40.9,39.9 82.1,79.6 123.1,119.4 -6.5,13.8 -13,27.6 -19.4,41.4 -45.6,-40.6 -91.2,-81.3 -136.8,-122 -5.1,-5.1 -11.5,-9.1 -15.5,-15.2 C 307,263.9 300,253 294.7,241.2 c -2.5,-5.4 -4.2,-11.8 -2.5,-17.8 z"
   id="path173" />&#10;			<g
   id="g174">&#10;				<path
   fill="#9b9b9c"
   d="m 627,252.1 c 6.5,1.5 11.6,6 17.1,9.4 39.6,25.9 75.1,58.8 101.2,98.5 30.3,45.5 47.8,98.6 56.7,152.3 -2.7,-0.3 -6,-0.4 -7.3,-3.4 -4.5,-7.9 -5.5,-17.3 -10.8,-24.9 1.1,-5.7 -2.3,-10.7 -6.1,-14.5 0.4,-3 0.7,-6 1.7,-8.9 -2.1,-2.1 -4.4,-4.1 -6.9,-5.7 0,-4.8 -0.2,-9.6 -1.6,-14.1 -4.5,-11.5 -10.9,-22 -16.8,-32.8 -8.1,-13.2 -15.6,-27.3 -27.5,-37.6 -7.1,-6.1 -16.6,-10.7 -26.1,-8.6 -13.9,2.1 -24.3,12.3 -34.2,21.4 -5.8,-5 -11,-10.5 -16.4,-15.9 9.8,-9 19.9,-18 27.1,-29.4 4.2,-6.3 6.2,-14.4 3.6,-21.8 -3.8,-12.5 -15.4,-20.1 -26.2,-26.1 -10,-5.9 -21.4,-10 -29.7,-18.5 -0.1,-6.5 0,-13.1 2.2,-19.4 z m 57.1,88 c -5.8,1.9 -9.5,8.6 -7.7,14.5 1.6,7 10.5,11.2 16.8,7.5 7.3,-3.1 8.8,-14 3,-19.3 -3.1,-3.2 -8,-3.6 -12.1,-2.7 z"
   id="path174" />&#10;			</g>&#10;			<path
   fill="#9b9b9c"
   d="m 245.9,268.2 c 2.2,-5.4 9.2,-4 13.7,-3.4 17.4,4.6 33,14 48.4,23 5.8,3 9.9,8.3 14.8,12.6 30.8,30.2 61.9,60 92.8,90.1 -3,-1.3 -5.9,-2.6 -8.9,-3.8 4.1,22.6 8.3,45.2 12.4,67.8 C 373,412.8 326.3,371.7 280,330.1 c -4.2,-3.6 -8.6,-7.1 -11.7,-11.7 -7.4,-10.6 -14.6,-21.5 -19.7,-33.4 -2.3,-5.3 -4,-11.1 -2.7,-16.8 z"
   id="path175" />&#10;			<path
   fill="#9b9b9c"
   d="m 306.8,276.4 c 1.5,-0.6 3.7,1.4 3.3,2.9 -1.4,0.3 -4,-1.2 -3.3,-2.9 z"
   id="path176" />&#10;			<path
   fill="#9b9b9c"
   d="m 315.2,283 c 3,2.6 5.8,5.2 8.4,8.2 -3.3,-2.2 -6,-5.1 -8.4,-8.2 z"
   id="path177" />&#10;			<path
   fill="#9b9b9c"
   d="m 698.9,368 c 2.9,-0.7 5.9,-1.2 8.8,-0.8 0.2,0.6 0.6,1.7 0.8,2.2 -0.3,-0.5 -1,-1.4 -1.3,-1.9 -2.7,0.1 -5.5,0.3 -8.3,0.5 z"
   id="path178" />&#10;			<path
   fill="#9b9b9c"
   d="m 610.6,402.4 c 11.8,-10.6 23.5,-21.2 35.3,-31.8 5.4,5.4 10.8,10.8 16.1,16.2 -19.4,17.7 -38.9,35.4 -58.7,52.8 2.5,-12.4 5,-24.8 7.3,-37.2 z"
   id="path179" />&#10;			<path
   fill="#9b9b9c"
   d="m 596.6,474.8 c 3,2.8 6.2,5.6 9.3,8.3 -4.1,2.8 -8.2,5.6 -12.5,8.2 1.1,-5.5 2.2,-11 3.2,-16.5 z"
   id="path180" />&#10;			<path
   fill="#9b9b9c"
   d="m 662.4,597.4 c 13.8,-9.3 27.2,-19.2 41.1,-28.2 27.5,23.7 54.5,48.1 81.9,72.1 16.2,14.4 32.4,28.8 48.4,43.4 -5.5,8.8 -13.2,15.9 -20.6,23 -6,5.1 -11.7,10.9 -18.9,14.2 -2.3,1.4 -4.3,-0.9 -5.9,-2.2 -28.4,-26.3 -55.9,-53.5 -83.6,-80.6 -14.4,-13.7 -28.4,-27.7 -42.4,-41.7 z"
   id="path181" />&#10;			<path
   fill="#9b9b9c"
   d="m 609.2,634.2 c 13.6,-9.3 27.1,-18.7 40.6,-28.1 33.5,29.7 67.2,59.2 100.6,89 12.5,11.2 25.2,22.2 37.3,33.8 -5.8,9.1 -14,16.4 -21.8,23.9 -5.6,4.7 -10.9,10.1 -17.7,13 -2.7,1.3 -4.7,-1.3 -6.6,-2.8 -30.4,-27.9 -59.4,-57.2 -89.1,-85.8 -14.3,-14.4 -29,-28.5 -43.3,-43 z"
   id="path182" />&#10;			<path
   fill="#9b9b9c"
   d="m 309.2,670.6 c 22.9,-19.7 45.1,-40.2 67.8,-60.2 7,4.9 14.3,9.4 21.2,14.4 -23.6,21.3 -47.2,42.6 -71.2,63.4 -6.1,-5.6 -11.9,-11.7 -17.8,-17.6 z"
   id="path183" />&#10;			<g
   id="g184">&#10;				<path
   fill="#9b9b9c"
   d="m 262.5,720.8 c 12,-17 24.1,-34.7 41.8,-46.3 5.9,6.2 12.3,11.8 18.3,17.9 -7.1,6.6 -12.8,14.8 -20.9,20.3 -10.1,7 -20.8,13 -31.2,19.6 -9.3,5.6 -18.6,11.4 -28.7,15.6 6.2,-9.5 14.2,-17.7 20.7,-27.1 z m 27.3,-28.1 c -3.6,1 -6.8,3.8 -7.7,7.5 -2.1,6.2 3,13.3 9.4,13.7 6.3,0.8 12.4,-5.1 11.6,-11.4 0,-6.6 -7.1,-11.6 -13.3,-9.8 z"
   id="path184" />&#10;			</g>&#10;		</g>&#10;		<path
   fill="#b3262c"
   d="m 662.7,266.5 c 1.2,0.3 2.1,1 2.6,2.1 -2,0.6 -2.9,-0.1 -2.6,-2.1 z"
   id="path185" />&#10;		<path
   fill="#f99e39"
   d="m 326.3,293.5 c 4.3,3 8,6.9 12,10.2 -0.2,0.4 -0.6,1.3 -0.8,1.7 -4,-3.7 -8.5,-7.1 -11.2,-11.9 z"
   id="path186" />&#10;		<path
   fill="#b3262c"
   d="m 362,325.5 c 1.3,1.2 2.6,2.3 3.9,3.5 -1.2,-1 -2.4,-1.9 -3.6,-2.9 l -0.4,2.3 -0.1,0.6 c 0,-0.9 0.1,-2.7 0.2,-3.5 z"
   id="path187" />&#10;		<path
   fill="#b3262c"
   d="m 509.3,335 c 13.6,28.4 27,56.8 40.3,85.2 18.9,-8.1 37.5,-16.8 56.3,-25.1 -7,36.4 -14.2,72.7 -21.1,109.1 20.8,-13.4 41.1,-27.6 62,-40.9 0,12.5 0,25 0,37.4 18.4,0 36.8,-0.1 55.2,0 -12.5,13.2 -25.4,26 -38.2,38.9 12.9,7.5 26.1,14.7 39,22.2 -39.2,27.3 -78.5,54.3 -117.7,81.6 11.9,12.9 24.6,25.1 36.5,38 -34.4,0.1 -68.8,0.1 -103.2,0 -0.1,10.6 0,21.3 0,31.9 -4.9,0 -9.8,0 -14.7,0.1 -0.2,-10.6 -0.1,-21.2 0,-31.8 -36.1,-0.3 -72.1,0 -108.2,-0.2 12.9,-13.3 26.2,-26.3 39.3,-39.5 C 395,615 354.9,588.6 315.1,561.7 c 13.1,-7.3 26.2,-14.6 39.4,-21.8 -11.9,-13.5 -24.7,-26.1 -37,-39.3 18.3,0 36.6,0 54.9,0 0,-12.4 0,-24.8 0,-37.2 21,13.3 41.1,27.8 61.9,41.5 -6.4,-36.2 -13.2,-72.4 -19.8,-108.6 18.4,7.6 36.6,15.5 55,23 13.4,-28 26.6,-56.1 39.8,-84.3 z"
   id="path188" />&#10;	</g>&#10;</g>&#10;<metadata
   id="metadata189"><rdf:RDF><cc:Work
       rdf:about=""><dc:title>ACMG Insignia Logo</dc:title><dc:date>September 2023</dc:date><dc:creator><cc:Agent><dc:title>Association of Canaidna Mountain Guides</dc:title></cc:Agent></dc:creator><dc:rights><cc:Agent><dc:title>All rights reserved</dc:title></cc:Agent></dc:rights><dc:publisher><cc:Agent><dc:title>https://acmg.ca</dc:title></cc:Agent></dc:publisher><dc:description>Logo of the Association of Canadian Mountain Guides</dc:description></cc:Work></rdf:RDF></metadata></svg>
