<?xml version="1.0" encoding="UTF-8" standalone="no"?>
<svg
   version="1.1"
   id="Layer_1"
   x="0px"
   y="0px"
   viewBox="0 0 127.99999 127.99974"
   xml:space="preserve"
   width="127.99999"
   height="127.99974"
   xmlns:inkscape="http://www.inkscape.org/namespaces/inkscape"
   xmlns:sodipodi="http://sodipodi.sourceforge.net/DTD/sodipodi-0.dtd"
   xmlns="http://www.w3.org/2000/svg"
   xmlns:svg="http://www.w3.org/2000/svg"
   xmlns:rdf="http://www.w3.org/1999/02/22-rdf-syntax-ns#"
   xmlns:cc="http://creativecommons.org/ns#"
   xmlns:dc="http://purl.org/dc/elements/1.1/">
    <title
   id="title189">ACMG Favicon</title>
    <defs
   id="defs189" />
    <sodipodi:namedview
   id="namedview189"
   pagecolor="#ffffff"
   bordercolor="#000000"
   borderopacity="0.25"
   showgrid="false" />&#10;
    <g
   id="g9"
   transform="matrix(0.12992285,0,0,0.12992244,-1.2775337,-1.3814681)">
        <ellipse
     style="display:inline;fill:#f9f9f9;stroke:#000000;stroke-width:1.03671;stroke-dasharray:2.07344, 2.07344;stroke-dashoffset:1.24406"
     id="path189"
     cx="502.43311"
     cy="503.23434"
     rx="492.08157"
     ry="492.08273"
     inkscape:label="whitebackfill" />
        <g
     id="g189"
     style="display:inline;image-rendering:auto"
     inkscape:label="acmglogo"
     transform="translate(0.03305075,-0.76643223)">&#10;
            <g
   id="g1"
   style="display:inline"
   inkscape:label="border-circle">&#10;
                <path
   fill="#231f20"
   d="m 502.3,996.6 c -66.5,0 -131,-13 -191.7,-38.7 C 251.9,933.1 199.3,897.6 154,852.3 108.8,807.1 73.2,754.4 48.4,695.7 22.8,635 9.8,570.5 9.8,504 9.8,437.5 22.8,373 48.5,312.3 73.3,253.6 108.8,201 154.1,155.7 199.3,110.5 252,74.9 310.7,50.1 371.4,24.4 435.9,11.4 502.4,11.4 c 66.5,0 131,13 191.7,38.7 58.7,24.8 111.3,60.3 156.6,105.6 45.2,45.2 80.8,97.9 105.6,156.6 C 982,373 995,437.5 995,504 995,570.5 982,635 956.3,695.7 931.5,754.4 896,807 850.7,852.3 c -45.2,45.2 -97.9,80.8 -156.6,105.6 -60.8,25.6 -125.3,38.7 -191.8,38.7 z m 0,-978.2 C 234.6,18.4 16.8,236.2 16.8,504 16.8,771.8 234.6,989.6 502.4,989.6 770.2,989.6 987.9,771.7 987.9,504 987.9,236.3 770.1,18.4 502.3,18.4 Z"
   id="path1" />&#10;
            </g>&#10;	&#10;	&#10;
            <g
   id="g6"
   style="display:inline"
   inkscape:label="ACMG">&#10;
                <g
   id="g2"
   inkscape:label="A">&#10;
                    <path
   fill="#3a3a3c"
   d="m 289.2,871.5 -29,-21.4 -14.1,10.7 -26.1,-19.2 92,-59.8 27.9,20.5 -29.8,105.6 -26.8,-19.7 z m 7.9,-21.8 12.8,-36.5 -30.9,23.1 z"
   id="path2" />&#10;
                </g>&#10;
                <g
   id="g3"
   inkscape:label="C">&#10;
                    <path
   fill="#3a3a3c"
   d="m 437.1,909.5 24.3,15.9 c -4,7 -8.7,12.4 -14,16.3 -5.3,3.9 -11.2,6.3 -17.7,7.2 -6.5,0.9 -14.1,0 -22.9,-2.6 -10.7,-3.1 -19,-7.3 -24.9,-12.4 -5.9,-5.1 -10.1,-12.3 -12.8,-21.6 -2.6,-9.3 -2.2,-20.1 1.4,-32.3 4.8,-16.3 12.8,-27.6 24.1,-33.8 11.2,-6.2 24.8,-7 40.7,-2.3 12.4,3.6 21.4,9 27.1,16.1 5.6,7.1 8.6,16.4 9,27.8 l -28.7,-1.9 c -0.1,-3.3 -0.4,-5.8 -1,-7.5 -1,-2.8 -2.6,-5.2 -4.7,-7.2 -2.1,-2 -4.7,-3.4 -7.7,-4.3 -6.9,-2 -13,-0.8 -18.3,3.7 -4,3.3 -7.3,9.4 -9.9,18.2 -3.2,10.9 -3.7,18.9 -1.6,23.9 2.1,5 6.2,8.4 12.2,10.2 5.8,1.7 10.7,1.4 14.7,-1 4,-2.5 7.5,-6.6 10.7,-12.4 z"
   id="path3" />&#10;
                </g>&#10;
                <g
   id="g4"
   inkscape:label="M">&#10;
                    <path
   fill="#3a3a3c"
   d="m 504.6,856.8 41.3,-6.2 25.3,59.4 6.5,-64.2 41.3,-6.2 15.3,101.6 -25.7,3.9 -11.7,-77.5 -8.1,80.5 -23.3,3.5 -31.5,-74.5 11.7,77.5 -25.7,3.9 z"
   id="path4" />&#10;
                </g>&#10;
                <g
   id="g5"
   inkscape:label="G">&#10;
                    <path
   fill="#3a3a3c"
   d="M 723.1,852.5 711,834.9 751.4,807 l 24.9,36.1 c -4.1,10.6 -8.5,18.9 -13.1,24.9 -4.6,6 -11,11.8 -19.2,17.4 -10,6.9 -19.4,10.9 -28.1,11.8 -8.7,0.9 -17.1,-0.8 -25.3,-5.1 -8.2,-4.4 -15.3,-10.9 -21.3,-19.7 -6.4,-9.2 -10,-18.6 -10.9,-28 -0.9,-9.5 1.1,-18.5 6,-27.1 3.8,-6.7 10.6,-13.4 20.3,-20.1 9.3,-6.4 16.9,-10.4 22.7,-11.9 5.8,-1.5 11.5,-1.5 17,-0.1 5.5,1.5 10.9,4.4 16.2,8.8 l -22.1,21.9 c -3.2,-2.5 -6.7,-3.7 -10.3,-3.7 -3.6,0 -7.4,1.4 -11.2,4 -5.7,4 -8.9,9.1 -9.6,15.4 -0.7,6.3 2,13.8 7.9,22.4 6.3,9.2 12.5,14.5 18.7,16.1 6.1,1.5 12.3,0.2 18.5,-4 2.9,-2 5.4,-4.4 7.5,-7 2.1,-2.7 4.1,-6.2 6.1,-10.6 l -5.5,-8 z"
   id="path5" />&#10;
                </g>&#10;
            </g>&#10;
            <path
   fill="#b3262c"
   d="m 507.66976,47.339222 c 28.41854,59.344608 56.41917,118.689228 84.21084,178.033838 39.49342,-16.92575 78.35997,-35.10526 117.64443,-52.44893 -14.62719,76.0614 -29.67231,151.91385 -44.09054,227.97526 43.46366,-28.00063 85.88252,-57.67294 129.55512,-85.4646 0,26.11998 0,52.23997 0,78.151 38.4486,0 76.8973,-0.20896 115.3459,0 -26.12,27.58271 -53.0758,54.32958 -79.8227,81.28541 26.9558,15.67199 54.5385,30.7171 81.4944,46.3891 -81.9123,57.04605 -164.03356,113.46523 -245.94584,170.51129 24.86623,26.95583 51.40414,52.44893 76.27037,79.40473 -71.88221,0.209 -143.76442,0.209 -215.64663,0 -0.20896,22.1498 0,44.5085 0,66.6582 -10.23904,0 -20.47807,0 -30.71711,0.209 -0.41792,-22.1497 -0.20896,-44.2995 0,-66.4492 -75.43453,-0.6269 -150.66009,0 -226.09462,-0.418 26.95583,-27.7916 54.74749,-54.9564 82.12124,-82.53913 -83.16604,-56.21022 -166.95897,-111.37564 -250.12501,-167.58585 27.37375,-15.25408 54.7475,-30.50815 82.3302,-45.55326 -24.86622,-28.20959 -51.61309,-54.53854 -77.31516,-82.12125 38.23966,0 76.47933,0 114.71899,0 0,-25.91103 0,-51.82206 0,-77.73308 43.88158,27.79166 85.88252,58.09085 129.34618,86.71836 -13.37343,-75.64349 -27.5827,-151.28698 -41.37406,-226.93046 38.44863,15.88095 76.47933,32.38878 114.92795,48.06077 28.00063,-58.50877 55.58334,-117.22651 83.16605,-176.153198 z"
   id="path188"
   style="display:inline;stroke-width:2.0896;image-rendering:auto"
   inkscape:label="MapleLeaf" />&#10;
        </g>
    </g>&#10;
    <metadata
   id="metadata189">
        <rdf:RDF>
            <cc:Work
       rdf:about="">
                <dc:title>ACMG Favicon</dc:title>
                <dc:date>September 2023</dc:date>
                <dc:creator>
                    <cc:Agent>
                        <dc:title>Association of Canadian Mountain Guides</dc:title>
                    </cc:Agent>
                </dc:creator>
                <dc:rights>
                    <cc:Agent>
                        <dc:title>All rights reserved</dc:title>
                    </cc:Agent>
                </dc:rights>
                <dc:publisher>
                    <cc:Agent>
                        <dc:title>https://acmg.ca</dc:title>
                    </cc:Agent>
                </dc:publisher>
                <dc:description>Logo of the Association of Canadian Mountain Guides</dc:description>
            </cc:Work>
        </rdf:RDF>
    </metadata>
</svg>