<?xml version="1.0" encoding="UTF-8" standalone="no"?>
<svg
   version="1.1"
   id="Layer_1"
   x="0px"
   y="0px"
   viewBox="0 0 127.99999 127.99974"
   xml:space="preserve"
   width="127.99999"
   height="127.99974"
   sodipodi:docname="acmg-fav.svg"
   inkscape:version="1.3 (0e150ed, 2023-07-21)"
   inkscape:export-filename="acmg-fav.svg"
   inkscape:export-xdpi="96"
   inkscape:export-ydpi="96"
   xmlns:inkscape="http://www.inkscape.org/namespaces/inkscape"
   xmlns:sodipodi="http://sodipodi.sourceforge.net/DTD/sodipodi-0.dtd"
   xmlns="http://www.w3.org/2000/svg"
   xmlns:svg="http://www.w3.org/2000/svg"
   xmlns:rdf="http://www.w3.org/1999/02/22-rdf-syntax-ns#"
   xmlns:cc="http://creativecommons.org/ns#"
   xmlns:dc="http://purl.org/dc/elements/1.1/">&#10;    <title
   id="title189">ACMG Favicon</title>&#10;    <defs
   id="defs189" />&#10;    <sodipodi:namedview
   id="namedview189"
   pagecolor="#ffffff"
   bordercolor="#000000"
   borderopacity="0.25"
   showgrid="false"
   inkscape:showpageshadow="2"
   inkscape:pageopacity="0.0"
   inkscape:pagecheckerboard="0"
   inkscape:deskcolor="#d1d1d1"
   inkscape:zoom="4.8229806"
   inkscape:cx="64.068265"
   inkscape:cy="63.964595"
   inkscape:window-width="1512"
   inkscape:window-height="916"
   inkscape:window-x="0"
   inkscape:window-y="38"
   inkscape:window-maximized="1"
   inkscape:current-layer="g189" />&#10;&#10;    <g
   id="g9"
   transform="matrix(0.12992285,0,0,0.12992244,-1.2775337,-1.3814681)">&#10;        <ellipse
   style="display:inline;fill:#f9f9f9;stroke:#000000;stroke-width:1.03671;stroke-dasharray:2.07344, 2.07344;stroke-dashoffset:1.24406"
   id="path189"
   cx="502.43311"
   cy="503.23434"
   rx="492.08157"
   ry="492.08273"
   inkscape:label="whitebackfill" />&#10;        <g
   id="g189"
   style="display:inline;image-rendering:auto"
   inkscape:label="acmglogo"
   transform="translate(0.03305075,-0.76643223)">&#10;&#10;            <g
   id="g1"
   style="display:inline"
   inkscape:label="border-circle">&#10;&#10;                <path
   fill="#231f20"
   d="m 502.3,996.6 c -66.5,0 -131,-13 -191.7,-38.7 C 251.9,933.1 199.3,897.6 154,852.3 108.8,807.1 73.2,754.4 48.4,695.7 22.8,635 9.8,570.5 9.8,504 9.8,437.5 22.8,373 48.5,312.3 73.3,253.6 108.8,201 154.1,155.7 199.3,110.5 252,74.9 310.7,50.1 371.4,24.4 435.9,11.4 502.4,11.4 c 66.5,0 131,13 191.7,38.7 58.7,24.8 111.3,60.3 156.6,105.6 45.2,45.2 80.8,97.9 105.6,156.6 C 982,373 995,437.5 995,504 995,570.5 982,635 956.3,695.7 931.5,754.4 896,807 850.7,852.3 c -45.2,45.2 -97.9,80.8 -156.6,105.6 -60.8,25.6 -125.3,38.7 -191.8,38.7 z m 0,-978.2 C 234.6,18.4 16.8,236.2 16.8,504 16.8,771.8 234.6,989.6 502.4,989.6 770.2,989.6 987.9,771.7 987.9,504 987.9,236.3 770.1,18.4 502.3,18.4 Z"
   id="path1" />&#10;&#10;            </g>&#10;	&#10;	&#10;&#10;            &#10;&#10;            <path
   fill="#b3262c"
   d="m 500.93815,18.613376 c 33.9822,70.962818 67.46466,141.925644 100.69725,212.888464 47.22526,-20.23939 93.70092,-41.978 140.67631,-62.71713 -17.49083,90.95234 -35.48142,181.65483 -52.72238,272.60718 51.97276,-33.48245 102.69619,-68.96387 154.91881,-102.19645 0,31.23362 0,62.46726 0,93.45104 45.97589,0 91.9519,-0.24988 137.92774,0 -31.23361,32.98272 -63.46668,64.96597 -95.44997,97.19908 32.23308,18.74018 65.21579,36.73075 97.44904,55.47095 -97.94875,68.21426 -196.14733,135.67891 -294.09601,203.89318 29.73441,32.23312 61.46779,62.71715 91.20222,94.95022 -85.95497,0.24992 -171.90994,0.24992 -257.86492,0 -0.24987,26.48618 0,53.22217 0,79.70823 -12.24359,0 -24.48717,0 -36.73076,0.24992 -0.49974,-26.48607 -0.24987,-52.97225 0,-79.45831 -90.20275,-0.74964 -180.15562,0 -270.35837,-0.49984 32.23312,-33.2325 65.4657,-65.7155 98.19856,-98.69825 C 215.33777,718.24686 115.14025,652.28142 15.692345,585.06663 48.425196,566.82618 81.158057,548.58574 114.14077,530.59517 84.406357,496.86284 52.423112,465.37933 21.689203,432.3966 c 45.72605,0 91.452107,0 137.178147,0 0,-30.98376 0,-61.96754 0,-92.95129 52.47251,33.23258 102.6962,69.4636 154.66897,103.69567 -15.99161,-90.45262 -32.98272,-180.90523 -49.47408,-271.35784 45.97592,18.99005 91.4521,38.7297 137.428,57.46988 33.48247,-69.96335 66.4652,-140.176566 99.44791,-210.639644 z"
   id="path188"
   style="display:inline;stroke-width:2.49869;image-rendering:auto"
   inkscape:label="MapleLeaf" /><g
   id="g6"
   style="display:inline;fill:#f9f9f9;fill-opacity:1;image-rendering:auto"
   inkscape:label="ACMG"
   transform="matrix(1.4503908,0,0,1.4503908,-233.1395,-625.01109)">&#10;&#10;                <g
   id="g2"
   inkscape:label="A"
   style="fill:#f9f9f9;fill-opacity:1">&#10;&#10;                    <path
   fill="#3a3a3c"
   d="m 289.2,871.5 -29,-21.4 -14.1,10.7 -26.1,-19.2 92,-59.8 27.9,20.5 -29.8,105.6 -26.8,-19.7 z m 7.9,-21.8 12.8,-36.5 -30.9,23.1 z"
   id="path2"
   style="fill:#f9f9f9;fill-opacity:1" />&#10;&#10;                </g>&#10;&#10;                <g
   id="g3"
   inkscape:label="C"
   style="fill:#f9f9f9;fill-opacity:1">&#10;&#10;                    <path
   fill="#3a3a3c"
   d="m 437.1,909.5 24.3,15.9 c -4,7 -8.7,12.4 -14,16.3 -5.3,3.9 -11.2,6.3 -17.7,7.2 -6.5,0.9 -14.1,0 -22.9,-2.6 -10.7,-3.1 -19,-7.3 -24.9,-12.4 -5.9,-5.1 -10.1,-12.3 -12.8,-21.6 -2.6,-9.3 -2.2,-20.1 1.4,-32.3 4.8,-16.3 12.8,-27.6 24.1,-33.8 11.2,-6.2 24.8,-7 40.7,-2.3 12.4,3.6 21.4,9 27.1,16.1 5.6,7.1 8.6,16.4 9,27.8 l -28.7,-1.9 c -0.1,-3.3 -0.4,-5.8 -1,-7.5 -1,-2.8 -2.6,-5.2 -4.7,-7.2 -2.1,-2 -4.7,-3.4 -7.7,-4.3 -6.9,-2 -13,-0.8 -18.3,3.7 -4,3.3 -7.3,9.4 -9.9,18.2 -3.2,10.9 -3.7,18.9 -1.6,23.9 2.1,5 6.2,8.4 12.2,10.2 5.8,1.7 10.7,1.4 14.7,-1 4,-2.5 7.5,-6.6 10.7,-12.4 z"
   id="path3"
   style="fill:#f9f9f9;fill-opacity:1" />&#10;&#10;                </g>&#10;&#10;                <g
   id="g4"
   inkscape:label="M"
   style="fill:#f9f9f9;fill-opacity:1">&#10;&#10;                    <path
   fill="#3a3a3c"
   d="m 504.6,856.8 41.3,-6.2 25.3,59.4 6.5,-64.2 41.3,-6.2 15.3,101.6 -25.7,3.9 -11.7,-77.5 -8.1,80.5 -23.3,3.5 -31.5,-74.5 11.7,77.5 -25.7,3.9 z"
   id="path4"
   style="fill:#f9f9f9;fill-opacity:1" />&#10;&#10;                </g>&#10;&#10;                <g
   id="g5"
   inkscape:label="G"
   style="fill:#f9f9f9;fill-opacity:1">&#10;&#10;                    <path
   fill="#3a3a3c"
   d="M 723.1,852.5 711,834.9 751.4,807 l 24.9,36.1 c -4.1,10.6 -8.5,18.9 -13.1,24.9 -4.6,6 -11,11.8 -19.2,17.4 -10,6.9 -19.4,10.9 -28.1,11.8 -8.7,0.9 -17.1,-0.8 -25.3,-5.1 -8.2,-4.4 -15.3,-10.9 -21.3,-19.7 -6.4,-9.2 -10,-18.6 -10.9,-28 -0.9,-9.5 1.1,-18.5 6,-27.1 3.8,-6.7 10.6,-13.4 20.3,-20.1 9.3,-6.4 16.9,-10.4 22.7,-11.9 5.8,-1.5 11.5,-1.5 17,-0.1 5.5,1.5 10.9,4.4 16.2,8.8 l -22.1,21.9 c -3.2,-2.5 -6.7,-3.7 -10.3,-3.7 -3.6,0 -7.4,1.4 -11.2,4 -5.7,4 -8.9,9.1 -9.6,15.4 -0.7,6.3 2,13.8 7.9,22.4 6.3,9.2 12.5,14.5 18.7,16.1 6.1,1.5 12.3,0.2 18.5,-4 2.9,-2 5.4,-4.4 7.5,-7 2.1,-2.7 4.1,-6.2 6.1,-10.6 l -5.5,-8 z"
   id="path5"
   style="fill:#f9f9f9;fill-opacity:1" />&#10;&#10;                </g>&#10;&#10;            </g>&#10;&#10;        </g>&#10;    </g>&#10;&#10;    <metadata
   id="metadata189">&#10;        <rdf:RDF>&#10;            <cc:Work
   rdf:about="">&#10;                <dc:title>ACMG Favicon</dc:title>&#10;                <dc:date>September 2023</dc:date>&#10;                <dc:creator>&#10;                    <cc:Agent>&#10;                        <dc:title>Association of Canadian Mountain Guides</dc:title>&#10;                    </cc:Agent>&#10;                </dc:creator>&#10;                <dc:rights>&#10;                    <cc:Agent>&#10;                        <dc:title>All rights reserved</dc:title>&#10;                    </cc:Agent>&#10;                </dc:rights>&#10;                <dc:publisher>&#10;                    <cc:Agent>&#10;                        <dc:title>https://acmg.ca</dc:title>&#10;                    </cc:Agent>&#10;                </dc:publisher>&#10;                <dc:description>Logo of the Association of Canadian Mountain Guides</dc:description>&#10;            </cc:Work>&#10;        </rdf:RDF>&#10;    </metadata>&#10;</svg>
