<?xml version="1.0" encoding="UTF-8" standalone="no"?>
<!-- Generator: Adobe Illustrator 19.2.1, SVG Export Plug-In . SVG Version: 6.00 Build 0)  -->

<svg
   version="1.1"
   id="layer"
   x="0px"
   y="0px"
   viewBox="0 0 652 652"
   style="enable-background:new 0 0 652 652;"
   xml:space="preserve"
   sodipodi:docname="ivbv-uiagm-ifmga-logo-vector.svg"
   inkscape:version="1.3 (0e150ed, 2023-07-21)"
   xmlns:inkscape="http://www.inkscape.org/namespaces/inkscape"
   xmlns:sodipodi="http://sodipodi.sourceforge.net/DTD/sodipodi-0.dtd"
   xmlns="http://www.w3.org/2000/svg"
   xmlns:svg="http://www.w3.org/2000/svg"><defs
   id="defs4" /><sodipodi:namedview
   id="namedview4"
   pagecolor="#ffffff"
   bordercolor="#000000"
   borderopacity="0.25"
   inkscape:showpageshadow="2"
   inkscape:pageopacity="0.0"
   inkscape:pagecheckerboard="0"
   inkscape:deskcolor="#d1d1d1"
   inkscape:zoom="1.0289025"
   inkscape:cx="325.58964"
   inkscape:cy="326.07559"
   inkscape:window-width="1512"
   inkscape:window-height="916"
   inkscape:window-x="0"
   inkscape:window-y="38"
   inkscape:window-maximized="1"
   inkscape:current-layer="layer" />&#10;<style
   type="text/css"
   id="style1">&#10;	.st0{fill:#FFFFFF;}&#10;	.st1{fill-rule:evenodd;clip-rule:evenodd;fill:#004C93;}&#10;	.st2{fill:#004C93;}&#10;</style>&#10;<circle
   style="fill:#f9f9f9;stroke-width:45.6978;stroke-dashoffset:1.20189"
   id="path5"
   cx="320.70001"
   cy="320.79999"
   r="250"
   inkscape:label="whitebackdrop" /><path
   class="st0"
   d="M430.3,322.3c0,60.5-49.1,109.6-109.6,109.6s-109.6-49.1-109.6-109.6c0-60.5,49.1-109.6,109.6-109.6  S430.3,261.7,430.3,322.3"
   id="path1" />&#10;<path
   class="st1"
   d="M349,388.6c0.6,1.3,4.7,10.2,6.4,15.7c1.7,5.5,3.3,16,3.3,18.2c0,2.2-0.1,2.8-3,3.9c-2.9,1-7.9,3-14.6,4.2  c-6.7,1.1-10.6,1.5-16.9,1.1c-1.3-0.1-2-0.8-2-2.2c0-1.4,0.5-32.5,0.5-33.7c0-1.2,0.4-1.9,1.9-1.9c1.5,0,6.7-0.4,12.1-2.1  c5.5-1.7,8.9-3.3,9.9-3.9C347.6,387.5,348.4,387.4,349,388.6 M324.6,352.8c3.7,2.6,9.6,8.4,13.1,13.8c3.7,5.7,5.3,8.8,7.9,15.8  c0.6,1.6,0.1,2.3-1.3,3c-1.4,0.7-8.5,3.5-11.6,4c-3.1,0.5-7.7,0.8-10.2,0.6c-0.1,0.1,0.5-35.7,0.5-36.6  C323,352.5,323.3,351.9,324.6,352.8 M367,373.8c1.3,0.9,9.5,9.6,12.7,14.4c3.1,4.7,8.3,14.7,9.2,16.9c0.9,2.1,0.8,3.5-1.3,4.9  c-2.1,1.4-16.7,10.9-20.2,11.8c-3.5,0.9-4.9,1.2-5.5-2.4c-0.5-3.6-1.3-10.8-4.5-18.7c-3.1-7.9-4.6-11.1-5.4-12.9  c-0.7-1.8-0.8-2.4,0.8-3.5c1.7-1.2,4.4-2.7,6.7-4.9c2.3-2.2,3.7-4,4.5-4.9C365,373.4,365.8,372.8,367,373.8 M329.3,346.6  c1.9,0,11.1,0,20.5,3.2c9.4,3.2,14.1,5.6,19.4,9c1.5,1,1.3,1.9,0.8,3c-0.6,1.1-1.7,2.6-2.4,4.1c-0.8,1.5-2.6,1.9-5.1-0.2  c-2.5-2.1-9-7.7-14.7-10.5c-7.5-3.8-12.4-5.6-18.4-7.1C327.6,347.7,327.4,346.6,329.3,346.6 M391.3,374.3c7.1,6.6,10.1,11.8,12,14.7  c1.9,2.8,1.9,3.9-0.4,6.6c-2.3,2.6-6.4,6.6-7.7,7.7c-1.3,1.1-2.5,1.3-3.6-0.9c-1.1-2.2-4.5-10.5-10.4-17.7  c-5.8-7.2-10.5-11.9-11.8-12.8c-1.3-0.9-1.1-2.1-0.4-3.6c0.8-1.5,2.6-4.2,3.4-5.3c1.1-1.5,2.5-0.8,4.1,0.2  C378.4,364.1,384.2,367.7,391.3,374.3 M292.8,388.6c-0.6,1.3-4.7,10.2-6.4,15.7c-1.7,5.5-3.4,16-3.4,18.2c0,2.2,0.1,2.8,3,3.9  c2.9,1,7.9,3,14.6,4.2c6.7,1.1,10.6,1.5,16.9,1.1c1.3-0.1,2-0.8,2-2.2c0-1.4-0.5-32.5-0.5-33.7c0-1.2-0.4-1.9-1.9-1.9  c-1.5,0-6.7-0.4-12.1-2.1c-5.5-1.7-8.9-3.3-9.9-3.9C294.2,387.5,293.4,387.4,292.8,388.6 M317.2,352.8c-3.7,2.6-9.6,8.4-13.1,13.8  c-3.7,5.7-5.4,8.8-7.9,15.8c-0.5,1.6-0.1,2.3,1.3,3c1.4,0.7,8.5,3.5,11.6,4c3.2,0.5,7.7,0.8,10.2,0.6c0.1,0.1-0.5-35.7-0.5-36.6  C318.8,352.5,318.5,351.9,317.2,352.8 M274.8,373.8c-1.3,0.9-9.5,9.6-12.7,14.4c-3.1,4.7-8.3,14.7-9.2,16.9  c-0.9,2.1-0.8,3.5,1.3,4.9c2.1,1.4,16.7,10.9,20.2,11.8c3.5,0.9,4.9,1.2,5.5-2.4c0.5-3.6,1.3-10.8,4.5-18.7  c3.2-7.9,4.6-11.1,5.4-12.9c0.7-1.8,0.8-2.4-0.8-3.5c-1.7-1.2-4.4-2.7-6.7-4.9c-2.3-2.2-3.6-4-4.5-4.9  C276.8,373.4,276,372.8,274.8,373.8 M314,350c-4.1,0.8-10.9,2.6-17.9,7c-7,4.3-11,6.5-16.5,13.2c-0.9,1.1-0.5,2.2,0.4,3  c2.6,2.6,6,5.6,10.7,7.9c1.1,0.5,1.9,0.8,2.4-0.7c0.6-1.5,5.3-10.7,8.8-15.2c3.6-4.5,12-12.8,13.2-13.7  C316.3,350.4,316.1,349.6,314,350 M312.5,346.6c-1.9,0-11.1,0-20.5,3.2c-9.4,3.2-14.1,5.6-19.4,9c-1.5,1-1.3,1.9-0.7,3  c0.5,1.1,1.7,2.6,2.4,4.1c0.8,1.5,2.6,1.9,5.1-0.2c2.4-2.1,9-7.7,14.7-10.5c7.5-3.8,12.4-5.6,18.4-7.1  C314.2,347.7,314.4,346.6,312.5,346.6 M250.5,374.3c-7.2,6.6-10.2,11.8-12,14.7c-1.9,2.8-1.9,3.9,0.4,6.6c2.3,2.6,6.4,6.6,7.7,7.7  c1.3,1.1,2.4,1.3,3.6-0.9c1.1-2.2,4.5-10.5,10.3-17.7c5.8-7.2,10.5-11.9,11.8-12.8c1.3-0.9,1.1-2.1,0.4-3.6  c-0.7-1.5-2.6-4.2-3.4-5.3c-1.1-1.5-2.4-0.8-4.1,0.2C263.4,364.1,257.6,367.7,250.5,374.3 M271.3,309c-0.6,1.7-21.4,62.1-21.4,62.1  s7.3-5.8,12.2-9.2c4.9-3.4,11.5-7.9,11.5-7.9s-0.4-43.2-0.4-44.8C273.2,307.7,271.9,307.3,271.3,309 M359.9,312.8  c-0.2,1.7-3.7,29.5-4.1,31.6c-0.6,2.6-0.2,3.6,2.1,4.3c2.3,0.8,7.7,3.2,9,3.8c1.3,0.6,1.7-0.2,1.7-2.1c0-1.9-1.7-31-1.9-33.1  c-0.2-2.1-0.6-3.8-1.9-4.5c-1.3-0.8-1.7-0.9-2.6-1.3C361.2,311.1,360.1,311.1,359.9,312.8 M323.1,265.6c0.2,1.5-0.4,16.9-1.3,22.9  c-0.9,6-3.4,17.9-3.4,17.9s-1.3,6.2-2.8,10.5c-1.5,4.3-7.9,22.2-8.7,23.9c-0.8,1.7-0.4,2.6,1.7,2.5c2.1-0.2,9.4-0.8,9.4-0.8  l15.6-0.2l-4.7-39.9l12,11.1c0,0-7.3-21.8-10.2-30.5s-5.6-16.5-6.2-17.9C324,263.9,322.9,264.1,323.1,265.6 M345.4,302.1  c-1.3-1.4-3.6-0.7-2.7,2.5c0.6,2.1,7,27,7,27l-0.7-26.2C349,305.3,345.4,302.2,345.4,302.1 M382.6,330.8l-8.4,10.2l3.6,13.1l3,2.5  L382.6,330.8z M303.7,273.2c-0.7,2.9-9.9,36-10.6,38.3c-0.7,2.3-1.1,3.8,0,5.5c1.1,1.8,2.7,2.5,2.7,2.5l5.4-2.1l5.4,8.4  c0,0,1.9-3.8,2.7-5.9c0.7-2.2,0.7-4.8,0.4-7.4c-0.4-2.5-1.8-36.5-2.2-39C307.1,271,304.5,270.3,303.7,273.2 M210.4,320.8  c0-60.9,49.4-110.3,110.3-110.3S431,259.9,431,320.8c0,25.5-8.7,49-23.2,67.7l-8.5-10.5l-13.8-67.2l-11.3,19.7l-5-46.3l-7.3-6.5  l-10.6,23.7l-9.2-47.1l-7.9,16.4l-11.7-34.3l-12,30.3l-8.1-8.1l-20.5,49.2l-1.8-20.5l-9-4.7l-28.9,97l-7.5,10.1  C219.5,370.9,210.4,346.9,210.4,320.8 M328.1,350c4.1,0.8,10.9,2.6,17.9,7c7,4.3,11,6.5,16.6,13.2c0.9,1.1,0.5,2.2-0.4,3  c-2.6,2.6-6,5.6-10.7,7.9c-1.1,0.5-1.9,0.8-2.4-0.7c-0.6-1.5-5.3-10.7-8.8-15.2c-3.6-4.5-12-12.8-13.2-13.7  C325.8,350.4,326,349.6,328.1,350"
   id="path2" />&#10;<path
   class="st1"
   d="M70.7,320.8c0-138.1,111.9-250,250-250c138.1,0,250,111.9,250,250c0,138.1-111.9,250-250,250  C182.6,570.8,70.7,458.8,70.7,320.8 M320.7,75.2c135.6,0,245.6,109.9,245.6,245.6S456.3,566.4,320.7,566.4  c-135.6,0-245.6-109.9-245.6-245.6S185.1,75.2,320.7,75.2 M320.7,136.6c101.7,0,184.2,82.5,184.2,184.2  c0,101.7-82.5,184.2-184.2,184.2c-101.7,0-184.2-82.5-184.2-184.2C136.5,219,219,136.6,320.7,136.6 M132.1,320.8  c0-104.2,84.4-188.6,188.6-188.6c104.2,0,188.6,84.4,188.6,188.6c0,104.2-84.4,188.6-188.6,188.6  C216.5,509.4,132.1,424.9,132.1,320.8 M320.7,206.7c63,0,114,51.1,114,114c0,63-51.1,114-114,114s-114-51.1-114-114  C206.7,257.8,257.7,206.7,320.7,206.7 M430.8,320.8c0,60.8-49.3,110.1-110.1,110.1s-110.1-49.3-110.1-110.1  c0-60.8,49.3-110.1,110.1-110.1S430.8,259.9,430.8,320.8"
   id="path3" />&#10;<path
   class="st2"
   d="M544,382.8l-1.3,5.3l-28.2-7.6l1.3-5.3L544,382.8z M228.3,515.6c0,2.1,1.7,3.7,3.7,3.7s3.7-1.7,3.7-3.7  c0-2.1-1.7-3.7-3.7-3.7S228.3,513.6,228.3,515.6 M400.8,515.6c0,2.1,1.7,3.7,3.7,3.7c2,0,3.7-1.7,3.7-3.7c0-2.1-1.7-3.7-3.7-3.7  C402.5,511.9,400.8,513.6,400.8,515.6 M369,520.8l0.7,1.9c0.5,1.3,1,2.6,1.5,3.8l3.4,7.7l-4.5,1.1l-0.4-8.4L369,520.8z M370.3,539.7  l6.2-1.5l3.2,6.8l5.7-1.4l-13.5-26.7l-7.1,1.8l0.3,30l5.7-1.4L370.3,539.7z M348.9,550.7c1.8-0.2,3.1-0.6,3.9-1.3  c1.8-1.4,2.9-3.6,3.1-6.8c0.1-1.8,0-4.7-0.5-8.7c-0.5-3.7-1-6.4-1.8-8c-0.8-1.8-2-3.1-3.6-3.8c-1.1-0.5-2.3-0.7-3.5-0.6l-11.3,1.4  l3.6,29L348.9,550.7 M341.3,526.6l3.6-0.4c1.6-0.2,2.7,0.4,3.5,1.8c0.7,1.3,1.2,3.7,1.6,7.2c0.5,4.5,0.7,7.4,0.3,8.7  c-0.4,1.6-1.8,2.6-4.1,2.9l-2.4,0.3L341.3,526.6z M328.5,523.2l-5.4,0.1l0.5,29.2l5.5-0.1L328.5,523.2z M309.5,543.1  c-0.1,1.8-0.4,3.1-0.8,3.8c-0.6,1.1-1.7,1.6-3.3,1.5c-1.6-0.1-2.7-0.8-3.2-2c-0.3-0.8-0.4-2.1-0.3-3.9l1.4-19.8l-5.4-0.4l-1.4,20.3  c-0.2,3.3,0.3,5.8,1.4,7.3c1.3,1.6,3.7,2.6,7.2,2.8c3.5,0.2,5.9-0.4,7.4-1.8c1.4-1.4,2.2-3.7,2.4-7l1.4-20.3l-5.4-0.4L309.5,543.1   M269.4,534c-0.9,4.6-1,7.8-0.5,9.8c0.8,2.8,3.2,4.5,7.3,5.3c2.4,0.4,4.4-0.6,5.9-3l-0.6,3.3l4,0.8l3-15.4l-8.9-1.7l-0.8,4.2  l3.7,0.7c-0.9,5.1-2.7,7.3-5.4,6.8c-2.6-0.5-3.5-2.8-2.6-7l1.5-8c0.4-2.2,0.8-3.6,1.2-4.4c0.9-1.8,2.2-2.5,4.1-2.1  c1.6,0.3,2.6,1.1,3,2.2c0.2,0.8,0.2,2-0.1,3.9l5.4,1c0.3-1.9,0.4-3,0.4-3.5c-0.1-2.5-0.9-4.3-2.2-5.6c-1.2-1.1-3.1-1.9-5.5-2.3  c-3.9-0.8-6.8-0.1-8.6,2.1c-1.3,1.5-2.4,4.5-3.2,8.8L269.4,534 M436.5,500.9c0.2,0.2,0.3,0.5,0.5,0.7l2.4,3.4  c2.7,3.8,4.9,6.2,6.7,7.1c2.6,1.3,5.5,0.8,8.8-1.6c2-1.4,2.6-3.5,2-6.3l1.9,2.7l3.3-2.3l-2.7-3.8l-6.6,0c1.5,2.8,1.3,4.8-0.5,6.1  c-2.1,1.5-4.4,0.5-6.9-3l-2.2-3.2L436.5,500.9z M472,455.6l-3.7,4l21.4,19.9l3.7-4L472,455.6z M473.6,482.4c1.2,1.3,2,2.4,2.2,3.2  c0.4,1.2,0,2.4-1.1,3.5c-1.2,1.1-2.4,1.5-3.6,1c-0.8-0.3-1.8-1.2-3-2.5L454.5,473l-4,3.7l13.9,14.9c2.3,2.4,4.4,3.8,6.4,3.9  c2.1,0.2,4.4-0.9,7-3.3c2.5-2.4,3.8-4.6,3.7-6.7c0-1.9-1.2-4.1-3.5-6.6L464,464.1l-4,3.7L473.6,482.4 M174.3,495.2l-7.4-6.6l6-6.7  l6.8,6.1l2.9-3.2l-6.8-6.1l4.9-5.5l7.3,6.6l2.9-3.2l-11.4-10.3L160,488.1l11.4,10.2L174.3,495.2z M161.8,453.3l2.3,2.7  c1,1.2,1.1,2.5,0.4,3.9c-0.7,1.3-2.5,3-5.2,5.3c-3.5,2.9-5.8,4.6-7.1,5c-1.6,0.5-3.1-0.1-4.6-1.9l-1.5-1.8L161.8,453.3z   M459.4,500.9l-6.3-9l-7.4,5.2l2.5,3.5l3.1-2.2c0.7,0.9,1.2,1.8,1.6,2.5H459.4z M443.3,500.9l-2.4-3.5c-1.3-1.8-2-3.1-2.3-3.9  c-0.6-1.9-0.2-3.3,1.3-4.3c1.4-0.9,2.6-1.1,3.7-0.6c0.7,0.4,1.6,1.3,2.7,2.8l4.5-3.1c-1.1-1.5-1.9-2.4-2.3-2.7  c-1.8-1.6-3.7-2.4-5.6-2.3c-1.6,0.1-3.5,0.9-5.5,2.3c-3.3,2.3-4.8,4.8-4.4,7.6c0.2,1.9,1.4,4.5,3.6,7.7H443.3z M477.9,448.6  l-1.6,2.1l23.3,17.6l6.1-8.1c1.1-1.4,1.7-2.7,1.8-3.7c0.3-2.2-0.6-4.6-2.7-7c-0.3-0.3-0.5-0.6-0.9-1l-8.8,0c0.1,0.1,0.1,0.1,0.2,0.1  c3.6,2.7,5.8,4.7,6.5,5.9c0.9,1.4,0.6,3.1-0.8,4.9l-1.4,1.9L483,448.9l0.3-0.3H477.9z M438.9,448.6l0.1,0.1l-18.1,14.7l-5.9-7.3  l3.8-3.1l-3.6-4.5H438.9z M369.7,448.6l0.4,0.9l-4.1,1.6l6.5,16.1c2,4.9,4.2,7.5,9.7,5.3c5.5-2.2,5.3-5.7,3.3-10.6l-5.4-13.4h14.7  l3.4,8.5c5.5,13.6,1.5,20.6-11.7,26c-13.3,5.4-21,3.1-26.1-9.6l-6.9-17.1l-4.4,1.8l-3.5-8.7l2-0.8H369.7z M266.9,448.6l-8.4,10.1  l7.8,3.2l1-13.3h19.6l-2.4,6l-3.8-1.5l-1.7,28.3l3,1.2l-3.5,8.7l-21.1-8.5l3.5-8.7l4.6,1.9l0.3-6.1l-12.6-5.1l-4,4.6l4.7,1.9  l-3.5,8.7l-20.3-8.2l3.5-8.7l3,1.2l13.6-15.6H266.9z M225.6,448.6l-0.6,0.6l-0.6-0.6H225.6z M219.6,448.6l-9,8.7l-8-8.3l0.4-0.4  H219.6z M159,448.6l-19.7,16.6l6.5,7.7c1.2,1.4,2.2,2.2,3.2,2.6c2.2,0.8,4.6,0.4,7.4-1.1c1.6-0.9,3.9-2.6,7-5.2  c2.8-2.4,4.8-4.3,5.8-5.9c1.1-1.7,1.5-3.4,1.3-5.1c-0.2-1.2-0.7-2.3-1.4-3.2l-5.5-6.5H159z M133.6,448.6l-4.3,3l3.1,4.5l10.7-7.5  H133.6z M447.9,403.2l-13.2-4.1l8.4,11L447.9,403.2z M520.2,430.8l-5.1,8.5l-7.7-4.6l4.7-7.8l-3.7-2.2l-4.7,7.8l-6.3-3.8l5.1-8.5  l-3.7-2.2l-7.9,13.1l25,15l7.9-13.1L520.2,430.8z M128.3,432.7c-1.6,0.9-2.8,1.3-3.6,1.4c-1.3,0.1-2.3-0.5-3.1-1.9  c-0.8-1.5-0.8-2.7-0.1-3.8c0.5-0.7,1.5-1.5,3.1-2.3l17.4-9.6l-2.6-4.8l-17.8,9.9c-2.9,1.6-4.7,3.3-5.3,5.2c-0.7,2-0.2,4.5,1.5,7.6  c1.7,3,3.5,4.8,5.6,5.2c1.9,0.4,4.3-0.2,7.2-1.8l17.8-9.9l-2.6-4.8L128.3,432.7 M483.3,448.6l1.9-2.5c0.9-1.3,2.2-1.7,3.7-1.2  c1.4,0.4,3.4,1.6,6.2,3.8l8.8,0c-1.3-1.2-3.2-2.8-5.7-4.7c-3-2.2-5.3-3.7-7-4.3c-1.9-0.7-3.6-0.7-5.3-0.1c-1.2,0.4-2.1,1.2-2.8,2.1  l-5.3,7H483.3z M415.2,448.6l-13.3-16.4l-3.8,3.1l-5.9-7.3l18.1-14.7l5.9,7.3l-3.8,3.1l16.9,20.9l3.8-3.1l5.8,7.1H415.2z M380,448.6  l-1.1-2.6l-4.1,1.6l-3.5-8.7l21.1-8.5l3.5,8.7l-4.4,1.8l3.1,7.8H380z M347.5,448.6l19.1-7.7l3.1,7.7H347.5z M250.2,448.6l5.1-5.8  l-3.8-1.5l3.5-8.7l33,13.4l-1.1,2.6h-19.6l0-0.5l-0.4,0.5H250.2z M202.9,448.6l3.1-3c-5.1,0-9.6-1.5-13.2-5.2  c-9.7-10-8.8-23,1.1-32.5c9.3-8.9,22.2-11.9,32.1-1.7c3.2,3.3,4.9,6.6,5.3,11.4l2.2-2.2l8.5,8.8l-11.5,11.1l-8.4-8.7  c0.7-1.8,0.7-3.6,0.3-5.2c-0.4-1.6-1.4-3.1-2.7-4.5c-4.8-5-11.1-3.6-15.7,0.8c-4.6,4.5-5.7,10.5-1.1,15.3c2.7,2.8,6.6,4.6,9.6,2.4  l-4-4.2l6.2-6l17,17.6l-5.9,5.7h-1.2l-2.4-2.5l-2.5,2.5H202.9z M163.5,448.6l-1.9-2.2l-2.6,2.2H163.5z M143.1,448.6l13.3-9.3  l-3.1-4.5l-19.6,13.8H143.1z M508.7,396.5l-2.7,7l27.3,10.5l3.6-9.4c0.7-1.7,0.9-3,0.7-4.1c-0.2-1.4-0.9-2.8-2.1-4l-11.3,0.1  c3.9,1.5,6.3,2.7,7.3,3.6c1.2,1.1,1.4,2.8,0.6,4.9l-0.9,2.2L512,400l1.3-3.3c0-0.1,0-0.1,0.1-0.1H508.7z M477.2,396.5l2,1.4  l-13.1,18.7l-7.7-5.4l2.9-4.1l-5.9-1.7l-7.8,11.1l3.6,5l2.9-4.1l7.6,5.4l-12.5,17.9l-7.7-5.4l1.9-2.6l-16.7-23.1l-2.4,3.4l-7.6-5.4  l7.8-11.1H477.2z M178.3,396.5l-5.2,1.8l1.3,3.7l-8.8,3l-2.9-8.5H178.3z M128.7,396.6c0.5,1.4,0.4,2.6-0.3,3.5  c-0.5,0.6-1.6,1.3-3.3,2l2,5.1c1.7-0.8,2.8-1.3,3.2-1.6c2-1.4,3.2-3.1,3.5-4.9c0.2-1.2,0-2.5-0.4-4.1L128.7,396.6z M105.4,396.5  c-0.2,0.2-0.5,0.4-0.7,0.7c-1.9,2.2-2,5.2-0.4,9c1,2.3,2.8,3.4,5.7,3.3l-3.1,1.3l1.5,3.8l14.6-5.9l-3.4-8.4l-4,1.6l1.4,3.5  c-4.7,2-7.6,1.8-8.7-0.8c-1-2.4,0.5-4.4,4.4-6l4.9-2L105.4,396.5z M116.1,361.2c-3.6,0.6-8.9,1.7-16.2,3.3c3.8-1.8,7.5-3.7,10.9-5.7  l9.8-5.9l-0.9-5.6L90.9,352l0.9,5.4l5.4-0.9c3.9-0.6,9.3-1.8,16.2-3.3c-4.1,1.9-7.7,3.8-10.8,5.6l-9.6,5.8l0.9,5.6l28.9-4.6  l-0.9-5.4L116.1,361.2 M513.3,396.5c0.6-1.4,1.6-2.1,3.2-2.1c1.4,0,3.8,0.7,7.2,2c0.2,0.1,0.4,0.1,0.5,0.2h11.3  c-0.7-0.7-1.5-1.3-2.4-2c-1.5-1-4.2-2.2-7.9-3.6c-3.5-1.3-6.1-2.1-7.9-2.2c-2-0.2-3.7,0.3-5.1,1.4c-1,0.8-1.7,1.7-2.1,2.8l-1.4,3.6  H513.3z M424.6,396.5l12.7-18l7.6,5.3l-2.4,3.4l27.2,8l1.8-2.6l5.6,3.9H424.6z M117.7,396.5l2.6-1.1c2-0.8,3.5-1.3,4.4-1.4  c2-0.2,3.3,0.5,3.9,2.3c0,0.1,0.1,0.1,0.1,0.2l4.6,0c-0.2-0.6-0.4-1.2-0.6-1.8c-1.5-3.7-3.6-5.7-6.4-6c-2-0.3-5.1,0.4-9.2,2.1  l-3.8,1.6c-3.7,1.5-6.3,2.9-7.8,4.2H117.7z M522,344.3l-0.5,5.8l29.1,2.5l0.5-5.4l-9.2-0.8c-6.4-0.6-12.2-0.9-17.4-1.3l6.6-0.8H522z   M476.6,344.3l-0.9,4.8l-8.5-1.6l0.6-3.1H476.6z M458.9,344.4c-0.7,1.1-1.1,2.4-1.4,3.8c-1.3,6.8,3.4,11.2,9.6,12.4  c6.3,1.2,11.9-1.4,13.2-7.9c0.6-3.1,0.2-6.5-1.9-8.3l11.3,0c2.2,3.7,3.1,7.8,2.3,12.2c-2.7,13.7-13.7,20.4-27.2,17.8  c-12.6-2.5-22.5-11.4-19.8-25.3c0.3-1.7,0.8-3.3,1.4-4.7L458.9,344.4z M192.7,344.3l3.8,10.9l-15.3,13.6l20.4,1.1l7,20.3l-8.8,3  l-1.3-3.7l-20.2,6.9h-15.7l-4-11.6l8.8-3l1.5,4.4l20.7-7.3l-23.7-1.6l-2.1-6.1l17.7-15.9l-20.7,7.1l1.5,4.4l-8.8,3l-7-20.2l8.8-3  l1.3,3.7l17.8-6.1H192.7z M496.4,306.8l-9.1,2.3l-0.9-3.8l-26.1,6.5l0.9,3.8l-9.1,2.3L447,297l16.5-12.2l-20.2-2.9l-5.2-20.8  l9.1-2.2l0.9,3.8l26.1-6.5l-0.9-3.8l9-2.3l5.2,20.7l-9,2.2l-1.1-4.5l-21.2,5.4l23.5,3.6l1.6,6.2l-19,14.4l21.2-5.3l-1.1-4.5l9-2.3  L496.4,306.8z M148.6,286.1l9.3,0.7l-0.3,4.7l26.8,1.9l0.3-4.7l9.3,0.7l-3,43.2l-17-1.2l0.7-9.6l7.8-1.3l1-13.6l-8.3-0.6l-0.6,8  l-10.2-0.7l0.6-8l-8.3-0.6l-0.5,6.9l-9.3-0.7L148.6,286.1z M152.9,273.9l7.6-22.1l8.8,3l-1.6,4.6l25.4,8.7l1.6-4.6l8.8,3l-7.6,22.1  l-8.8-3l1.6-4.6l-25.4-8.8l-1.6,4.6L152.9,273.9z M519.7,264.2l23.8-7.3l-1.6-5.2l-23.8,7.3l-1.9-6.1l-4.1,1.3l5.3,17.4l4.1-1.3  L519.7,264.2z M525,280.1c3.5-0.7,8.9-2,16.1-3.9c-3.8,1.9-7.3,3.9-10.6,6l-9.6,6.2l1.1,5.5l28.7-5.6l-1-5.4l-5.4,1  c-3.8,0.8-9.2,2.1-16.1,3.9c4.1-2,7.6-4.1,10.6-6l9.4-6.1l-1.1-5.6l-28.7,5.6l1,5.4L525,280.1 M534.2,312.7c-2.2,0.2-3.7,0.1-4.5,0  c-1.9-0.4-3-1.5-3.1-3.4c-0.1-1.7,0.7-3,2.6-3.7c1-0.4,2.5-0.6,4.6-0.8l7.5-0.5c2-0.2,3.5-0.1,4.5,0.2c1.6,0.5,2.5,1.5,2.6,3.2  c0.2,2.6-1.8,4.1-6.1,4.4L534.2,312.7 M540,317.9c4.6-0.3,7.8-1,9.5-2.1c2.4-1.5,3.5-4.3,3.2-8.4c-0.3-4.1-1.7-6.7-4.4-7.8  c-1.9-0.8-5.1-1-9.7-0.7l-4.2,0.3c-4.4,0.3-7.4,1-9.1,2.1c-2.4,1.6-3.4,4.3-3.1,8.3c0.3,4,1.7,6.5,4.2,7.7c1.9,0.9,5,1.2,9.4,0.9  L540,317.9 M118.9,338.8l-0.4-5.4l-29.1,2l0.4,5.4L118.9,338.8z M114.9,316.7l-1.9,0.2c-1.4,0.1-2.8,0.3-4.1,0.5l-8.3,1.3l0.1-4.7  l8.3,1.8L114.9,316.7z M96.4,313l-0.1,6.4l-7.4,1.3l-0.1,5.9l29.3-6.1l0.1-7.4l-29.1-7.5l-0.1,5.9L96.4,313z M116.2,289.5L91.5,286  l-0.8,5.4l24.7,3.5l-0.9,6.3l4.2,0.6l2.5-18l-4.2-0.6L116.2,289.5z M118.5,270.5c-3.5-0.9-8.9-2.1-16.2-3.6  c4.2-0.1,8.3-0.3,12.2-0.8l11.4-1.4l1.5-5.5l-28.2-7.6l-1.4,5.3l5.3,1.4c3.8,1,9.2,2.2,16.2,3.5c-4.5,0.1-8.6,0.3-12.2,0.8  l-11.1,1.4l-1.5,5.5l28.2,7.6l1.4-5.3L118.5,270.5 M531.1,344.3l20.4-2.6l0.3-3.3l-26-8.2c5.1,0.8,10.9,1.4,17.3,2l9.2,0.8l0.5-5.4  l-29.1-2.5l-0.8,8.6l13.3,4.1l6.6,1.5c-2.6,0-4.9,0.2-6.8,0.4l-13.8,1.7l-0.3,2.9H531.1z M467.8,344.3l4.1-20.9l8.9,1.7l-0.8,4.2  l15.8,3.1l-2.2,11.3l-4.8-0.9c0.4,0.5,0.7,1,1,1.6l-11.3,0c-0.5-0.4-1-0.8-1.7-1l-0.2,0.9H467.8z M446.5,344.4  c1-2.3,2.6-4.3,4.8-6.1l-3-0.6l2.3-11.9l15.7,3l-2.3,11.9c-1.9,0.5-3.3,1.5-4.4,2.7c-0.3,0.3-0.5,0.7-0.7,1L446.5,344.4z   M174.4,344.3l7.6-2.6l-1.3-3.7l8.8-3l3.2,9.3H174.4z M506.7,240l2.4,5.9l29.7-4.5l-0.6-1.4h-22.3l-5.2,1.3l1.7-0.9  c0.2-0.1,0.5-0.2,0.7-0.4H506.7z M106,240c1,1.4,2.8,2.6,5.4,3.7l18.9,7.6l2-5L117,240L106,240z M516.4,221.9  c4.1-2.2,6.7-4.2,7.8-5.9c1.6-2.4,1.4-5.4-0.7-8.9c-1.2-2.1-3.2-3-6.1-2.6l2.9-1.6l-2-3.6l-13.7,7.6l4.4,7.9l3.7-2.1l-1.8-3.3  c4.4-2.6,7.3-2.7,8.7-0.2c1.3,2.3,0.1,4.5-3.6,6.5l-7.1,3.9c-1.9,1.1-3.3,1.7-4.2,1.9c-1.9,0.4-3.3-0.2-4.2-1.8  c-0.8-1.5-0.8-2.7-0.2-3.7c0.4-0.7,1.4-1.5,3-2.4l-2.6-4.8c-1.6,0.9-2.6,1.6-3,2c-1.8,1.6-2.8,3.4-2.8,5.3c0,1.6,0.5,3.6,1.8,5.8  c1.9,3.5,4.3,5.2,7.1,5.2c2,0,5-1,8.8-3.2L516.4,221.9 M138.4,209.2c1.9,1.1,3.1,2,3.7,2.6c1.4,1.4,1.5,3,0.6,4.5  c-0.9,1.5-2.3,2-4.3,1.5c-1-0.3-2.4-0.9-4.2-2l-6.4-3.8c-1.8-1-2.9-2-3.5-2.7c-1.1-1.3-1.1-2.7-0.3-4.2c1.4-2.2,3.8-2.3,7.5-0.1  L138.4,209.2 M136.7,201.6c-4-2.4-7-3.7-9-3.8c-2.9-0.2-5.4,1.5-7.5,5c-2.1,3.5-2.4,6.5-0.9,8.9c1.1,1.7,3.6,3.8,7.6,6.2l3.6,2.1  c3.8,2.2,6.7,3.4,8.7,3.5c2.8,0.1,5.3-1.6,7.3-5c2.1-3.4,2.4-6.4,1-8.8c-1-1.8-3.4-3.8-7.2-6.1L136.7,201.6 M513.1,240  c1-0.5,2-1.1,2.8-1.7l7.1-4.5l1.8,4.3l-8.3,1.6l-0.7,0.2h22.3l-1.6-4l-7.4,1.4l-2.4-5.9l6.3-4.1l-2.2-5.4L506.3,239l0.4,0.9  L513.1,240z M117,240l-3.1-1.3c-1.7-0.7-2.8-1.3-3.4-1.9c-0.9-0.9-1-2.1-0.4-3.6c0.6-1.5,1.6-2.4,2.9-2.4c0.9-0.1,2.1,0.3,3.8,0.9  l18.5,7.5l2-5l-18.9-7.6c-3.1-1.3-5.6-1.6-7.4-0.9c-2,0.8-3.6,2.7-4.9,6c-1.3,3.2-1.5,5.8-0.6,7.6c0.2,0.3,0.3,0.6,0.5,0.9H117z   M496,187.8c-1.4,2-2.8,3.9-4,5.9l-6.1,9.7l3.3,4.6l23.6-17.2l-2.2-3h-3l-2.5,1.8c-3.2,2.3-7.5,5.8-12.9,10.3  c2.8-3.6,5.2-6.9,7.1-10l1.4-2.2H496z M485.5,187.8l-7.2,5.2l3.2,4.4l4.6-3.4c2-1.5,4.7-3.6,8-6.3H485.5z M473.7,187.8l0.5,0.6  l0.6-0.6H473.7z M396.7,187.8l-0.9,4.6l4.7-4.6h18.5L393,210.9l-10.9-5.8l2.3-17.4H396.7z M363.9,187.8c-2.8,6.1-9.4,6.8-20,5.3  l-26.2-3.7l0.2-1.6H363.9z M298.4,187.8l-0.8,5.3l-12,2.6l-4.9-7.8H298.4z M256.5,187.8l3.3,6.9l4.4-2.1l4.1,8.4l-21,10.2l-4.1-8.4  l4.4-2.1l-6.2-12.8H256.5z M160.7,187.8l4.9,2.5l2-2.5H160.7z M136.4,187.8l18.8,15.2l5.4-6.7l-6.9-8.5h-5.2l7.7,9.7  c-3.3-3-7.1-6.3-11.3-9.7H136.4z M339.5,164.7l6.1,0.9c4.2,0.6,6.7-0.6,7.1-3.6c0.6-4.1-3.6-4.7-7.2-5.2l-4.9-0.7L339.5,164.7z   M337,182.7l7.3,1c4.9,0.7,7.2-0.5,7.7-4.4c0.5-3.6-2.3-5.5-6-6.1l-7.5-1L337,182.7z M451,159.9c0,2,1.7,3.7,3.7,3.7  c2.1,0,3.7-1.7,3.7-3.7c0-2.1-1.7-3.7-3.7-3.7C452.6,156.2,451,157.8,451,159.9 M180.6,157.1c0,2.1,1.7,3.7,3.7,3.7s3.7-1.7,3.7-3.7  c0-2.1-1.7-3.7-3.7-3.7S180.6,155,180.6,157.1 M439.8,129.8c1,0.6,1.6,1.2,1.8,1.9c0.3,0.8,0,1.9-0.8,3.2c-1.4,2.4-3.1,3.1-4.9,2  l-3.7-2.2l4.2-6.9L439.8,129.8z M430.8,138.8c1.9,1.1,3.2,2,3.8,2.7c0.6,0.6,0.7,1.4,0.4,2.5c-0.2,0.5-0.6,1.4-1.3,2.6  c-2,3.5-3.1,5.8-3.3,6.6l5.4,2.6c-0.4-0.8,0.8-3.7,3.8-8.5c1.6-2.7,1.3-5-0.8-6.8c2.8,1.2,5.3-0.1,7.5-3.7c2.4-4,1.2-7.4-3.5-10.3  l-8.8-5.3l-15,25l4.7,2.8L430.8,138.8 M414.3,139.1l-9-4l3.7-8.2l8.3,3.7l1.8-3.9l-8.3-3.7l3-6.7l9,4l1.7-3.9l-14-6.2l-11.9,26.7  l14,6.2L414.3,139.1z M390.2,107.4c1.1,0.4,1.8,0.8,2.1,1.4c0.4,0.7,0.4,1.8-0.1,3.3c-0.9,2.7-2.3,3.7-4.3,3l-4.1-1.3l2.5-7.7  L390.2,107.4z M383.5,118.2c2.1,0.7,3.5,1.3,4.3,1.8c0.7,0.5,1,1.2,1,2.3c-0.1,0.5-0.3,1.5-0.7,2.8c-1.2,3.9-1.8,6.3-1.7,7.2  l5.9,1.3c-0.6-0.7,0-3.8,1.7-9.1c1-3,0.2-5.1-2.3-6.4c3,0.5,5.1-1.2,6.4-5.3c1.5-4.4-0.4-7.5-5.7-9.2l-9.8-3.2l-9,27.8l5.2,1.7  L383.5,118.2 M354.5,110.9l7.5,1.2l-2.1,13.2l5.4,0.9l4.6-28.9l-5.4-0.8l-1.8,11.4l-7.6-1.2l1.8-11.4l-5.4-0.9l-4.6,28.9l5.4,0.9  L354.5,110.9z M337.2,85.3l-5-0.2l-0.2,4.5l5,0.2L337.2,85.3z M329.6,85l-4.9-0.2l-0.2,4.5l4.9,0.2L329.6,85z M333.8,112.7  c-0.1,1.8-0.3,3.1-0.7,3.8c-0.6,1.2-1.7,1.7-3.3,1.6c-1.6-0.1-2.7-0.7-3.3-1.9c-0.3-0.8-0.5-2.1-0.4-3.9l0.7-19.9l-5.5-0.2  l-0.7,20.3c-0.1,3.3,0.4,5.8,1.7,7.3c1.4,1.6,3.8,2.5,7.3,2.6c3.5,0.1,5.9-0.6,7.4-2.1c1.3-1.4,2.1-3.8,2.2-7.1l0.7-20.4l-5.4-0.2  L333.8,112.7 M302.9,109.1l9.4-0.7l-0.3-4.3l-9.4,0.7l-0.5-7.4l10-0.7l-0.3-4.3l-15.4,1.1l2,29.1l5.4-0.4L302.9,109.1z M268.9,114.8  c0.9,4.6,2,7.7,3.2,9.3c1.8,2.2,4.7,3,8.7,2.1c2.4-0.5,3.8-2.1,4.4-5l0.6,3.3l4-0.8l-3-15.4l-8.9,1.7l0.8,4.2l3.7-0.7  c1.1,5,0.3,7.8-2.5,8.3c-2.6,0.5-4.3-1.3-5.1-5.5l-1.5-7.9c-0.4-2.2-0.6-3.7-0.5-4.5c0.2-2,1.2-3.1,3-3.4c1.6-0.3,2.8,0,3.6,1  c0.5,0.6,0.9,1.8,1.3,3.6l5.4-1c-0.4-1.8-0.7-3-0.9-3.4c-1-2.2-2.4-3.7-4.2-4.3c-1.5-0.5-3.5-0.6-6-0.1c-3.9,0.8-6.3,2.5-7.2,5.2  c-0.7,1.9-0.6,5,0.3,9.4L268.9,114.8 M247.6,108.5c1.1-0.3,1.9-0.4,2.6-0.1c0.8,0.3,1.4,1.3,1.9,2.7c0.9,2.7,0.3,4.3-1.7,5l-4.1,1.3  l-2.5-7.7L247.6,108.5z M248.5,121.2c2.1-0.7,3.6-1,4.5-1c0.8,0,1.6,0.4,2.1,1.3c0.3,0.5,0.7,1.4,1.1,2.7c1.3,3.9,2.3,6.1,2.8,6.9  l5.5-2.4c-0.9-0.2-2.2-3-4-8.4c-1-3-2.8-4.3-5.7-3.8c2.7-1.3,3.4-4,2.1-8.1c-1.4-4.4-4.8-5.8-10.1-4.1l-9.8,3.2l9,27.8l5.2-1.7  L248.5,121.2 M237.9,134.1l-9,4.2l-3.8-8.2l8.3-3.8l-1.8-3.9l-8.3,3.9l-3.1-6.7l9-4.2l-1.8-3.9l-13.9,6.5l12.3,26.5l13.9-6.5  L237.9,134.1z M212.9,151.9c1.6-1,2.7-2.2,3.2-3.5c0.5-1.3,0.5-2.9,0.1-4.8c-0.2-0.9-0.8-2-1.6-3.2c-2.2-3.5-4.6-4.7-7.2-3.6  c1.5-2,1.4-4.3-0.3-7c-1.2-1.9-2.5-3.2-4-3.7c-1.7-0.6-3.8-0.1-6.4,1.5l-7.5,4.7l15.5,24.8L212.9,151.9 M196.2,133l2.2-1.3  c1-0.6,1.8-0.8,2.5-0.5c0.6,0.2,1.1,0.8,1.8,1.8c0.9,1.3,1.2,2.3,1.2,3c-0.1,0.8-1,1.8-3.6,3.5L196.2,133z M202.4,143l1.8-1.1  c1.4-0.9,2.5-1.1,3.3-0.8c0.8,0.3,1.6,1.1,2.4,2.5c1.2,1.9,1.4,3.3,0.7,4.3c-0.3,0.4-1.2,1.1-2.6,2l-1,0.6L202.4,143z M510.6,187.8  l-1-1.4l-1.9,1.4H510.6z M494.2,187.8c1.5-1.2,3.1-2.6,4.9-4.1c-1.1,1.4-2.1,2.7-3.1,4.1h4.7l4.6-7.3l-3.3-4.6l-16.5,11.9H494.2z   M474.9,187.8l20.7-19.3l-10.5-11.2l-3.1,2.9l6.7,7.2l-6.6,6.1l-6.2-6.7l-3.1,2.9l6.2,6.7l-5.4,5l-6.7-7.2l-3.1,2.9l9.9,10.6H474.9z   M400.6,187.8l9.2-9l-2.7-1.5l4.4-8.2l17.3,9.2l-4.4,8.2l-2.4-1.3l-2.8,2.5H400.6z M384.5,187.8l2.8-20.9l-2.4-1.3l4.4-8.3l17.3,9.2  l-4.4,8.3l-2.7-1.5l-2.8,14.4H384.5z M317.9,187.8l1.1-7.6l4.5,0.6l3.7-26.6l-4.6-0.6l1.3-9.3l29,4.1c4.7,0.7,15.2,2.5,13.7,13.5  c-0.8,5.6-4.6,8.5-10,8.9c6.3,1.6,9.6,5.6,8.7,12.4c-0.3,1.8-0.7,3.4-1.3,4.7H317.9z M280.6,187.8L264.9,163l-2.6,0.6l-1.9-9.1  l19.2-4.1l1.9,9.1l-3,0.6l9.5,17l1.9-19.4l-3,0.6l-1.9-9.1l19.2-4.1l1.9,9.1l-2.7,0.6l-4.9,33H280.6z M241.3,187.8l-5.5-11.3  l-4.4,2.1l-4.1-8.4l21-10.2l4.1,8.4l-4.4,2.1l8.4,17.3H241.3z M153.9,187.8l-1.8-2.3l-4.6-5c2.2,1.5,4.2,2.6,5.9,3.5l7.5,3.8h6.9  l3.5-4.3l-22.7-18.4l-3.4,4.2l7.1,5.8c5,4.1,9.6,7.6,13.7,10.7l-24.3-12.3l-2.1,2.6l9.2,11.6H153.9z M145.1,187.8  c-0.7-0.5-1.3-1-1.9-1.6l-7.2-5.8l-3.4,4.2l3.9,3.1H145.1z"
   id="path4" />&#10;</svg>
